<svg id="f376bf24-6c20-42b9-abac-dca1ccf3889f" data-name="ebf6441e-d1fc-45de-a8d0-8887f1d068e3" xmlns="http://www.w3.org/2000/svg" xmlns:xlink="http://www.w3.org/1999/xlink" viewBox="0 0 1624.32 871.69"><defs><clipPath id="a2c9722c-a411-4b5c-8c75-f2f0e63c951d" transform="translate(62.15 -816.61)"><rect width="1919.85" height="1366.47" fill="none"/></clipPath><linearGradient id="fd59350b-e09d-46f2-b1a2-b22a048573a4" x1="2904.46" y1="-566.07" x2="3776.15" y2="-566.07" gradientTransform="matrix(0, -1, -1, 0, 183.94, 4592.76)" gradientUnits="userSpaceOnUse"><stop offset="0" stop-color="#faaf3b" stop-opacity="0.4"/><stop offset="0.06" stop-color="#faaf3b" stop-opacity="0.48"/><stop offset="0.2" stop-color="#faaf3b" stop-opacity="0.64"/><stop offset="0.35" stop-color="#faaf3b" stop-opacity="0.77"/><stop offset="0.5" stop-color="#faaf3b" stop-opacity="0.87"/><stop offset="0.65" stop-color="#faaf3b" stop-opacity="0.94"/><stop offset="0.81" stop-color="#faaf3b" stop-opacity="0.99"/><stop offset="1" stop-color="#faaf3b"/></linearGradient></defs><title>bot</title><g clip-path="url(#a2c9722c-a411-4b5c-8c75-f2f0e63c951d)"><path d="M315.19,1684.85c173.09,4.63,354.28,10.39,524.9-25.34,67.39-14.12,132-36.86,182.77-84.87,36.21-34.26,63.38-75.85,104.25-105.48,104.94-76.07,241.84-92.79,348.13-170.39,275.58-201.18-178.43-351.07-333.13-390.88-313-80.57-694.13-153.95-997.41-6.62C76.35,934.47,1.32,979.52-37.69,1047.39c-42.7,74.27-20.89,173.44.72,251.36C4.7,1449.1,133.49,1680,315.19,1684.85Z" transform="translate(62.15 -816.61)" fill="url(#fd59350b-e09d-46f2-b1a2-b22a048573a4)"/></g></svg>