<svg id="ebf6441e-d1fc-45de-a8d0-8887f1d068e3" data-name="Слой 1" xmlns="http://www.w3.org/2000/svg" xmlns:xlink="http://www.w3.org/1999/xlink" viewBox="0 0 1624.32 871.69"><defs><clipPath id="a7afc0a9-ebc8-41f8-8edf-2ffeda0f94ad" transform="translate(62.15 -530.52)"><rect y="-286.1" width="1919.85" height="1366.47" fill="none"/></clipPath><linearGradient id="bab9128e-274c-40e5-aee6-5ac3dbba2a99" x1="2218.61" y1="2630.69" x2="3090.29" y2="2630.69" gradientTransform="translate(-1880.68 3620.81) rotate(-90)" gradientUnits="userSpaceOnUse"><stop offset="0" stop-color="#faaf3b" stop-opacity="0.4"/><stop offset="0.06" stop-color="#faaf3b" stop-opacity="0.48"/><stop offset="0.2" stop-color="#faaf3b" stop-opacity="0.64"/><stop offset="0.35" stop-color="#faaf3b" stop-opacity="0.77"/><stop offset="0.5" stop-color="#faaf3b" stop-opacity="0.87"/><stop offset="0.65" stop-color="#faaf3b" stop-opacity="0.94"/><stop offset="0.81" stop-color="#faaf3b" stop-opacity="0.99"/><stop offset="1" stop-color="#faaf3b"/></linearGradient></defs><title>низ узор</title><g clip-path="url(#a7afc0a9-ebc8-41f8-8edf-2ffeda0f94ad)"><path d="M315.19,1398.75c173.09,4.63,354.28,10.39,524.9-25.34,67.39-14.12,132-36.86,182.77-84.87,36.21-34.26,63.38-75.85,104.25-105.48,104.94-76.07,241.84-92.79,348.13-170.39,275.58-201.18-178.43-351.07-333.13-390.88-313-80.57-694.13-153.95-997.41-6.62C76.35,648.37,1.32,693.42-37.69,761.29c-42.7,74.27-20.89,173.44.72,251.36C4.7,1163,133.49,1393.88,315.19,1398.75Z" transform="translate(62.15 -530.52)" fill="url(#bab9128e-274c-40e5-aee6-5ac3dbba2a99)"/></g></svg>