<svg data-name="Слой 1" xmlns="http://www.w3.org/2000/svg" xmlns:xlink="http://www.w3.org/1999/xlink" viewBox="0 0 1192.85 978.57">
  <defs>
    <linearGradient id="e" x1="312.41" y1="774.43" x2="1139.38" y2="-52.54" gradientUnits="userSpaceOnUse">
      <stop offset=".11" stop-color="#ffb33f"/>
      <stop offset=".4" stop-color="#ff9e5c"/>
      <stop offset="1" stop-color="#ff6aa2"/>
    </linearGradient>
    <radialGradient id="d" cx="606.64" cy="204.45" r="158.17" gradientUnits="userSpaceOnUse">
      <stop offset="0" stop-color="#a6692b"/>
      <stop offset=".21" stop-color="#895523"/>
      <stop offset=".65" stop-color="#40220e"/>
      <stop offset=".67" stop-color="#3d200d"/>
    </radialGradient>
    <radialGradient id="b" cx="422.6" cy="-.62" r="192.31" gradientUnits="userSpaceOnUse">
      <stop offset="0" stop-color="#a6692b"/>
      <stop offset=".32" stop-color="#895224"/>
      <stop offset=".67" stop-color="#66371b"/>
    </radialGradient>
    <radialGradient id="f" cx="1117.06" cy="350.19" r="576.17" gradientUnits="userSpaceOnUse">
      <stop offset=".2" stop-color="#784613"/>
      <stop offset=".38" stop-color="#7c4915"/>
      <stop offset=".54" stop-color="#87511a"/>
      <stop offset=".71" stop-color="#9a6024"/>
      <stop offset=".87" stop-color="#b57431"/>
      <stop offset="1" stop-color="#d1893f"/>
    </radialGradient>
    <linearGradient id="a" x1="-437.66" y1="-149.16" x2="-306.02" y2="-149.16" gradientTransform="matrix(.45 -.89 .72 .36 621.18 5.02)" gradientUnits="userSpaceOnUse">
      <stop offset="0" stop-color="#ffe7ed"/>
      <stop offset=".52" stop-color="#ffc7da"/>
      <stop offset="1" stop-color="#ffaeca"/>
    </linearGradient>
    <linearGradient id="g" x1="-367.16" y1="25.04" x2="-212.41" y2="25.04" gradientTransform="matrix(.68 -.73 .64 .59 521.55 101.05)" xlink:href="#a"/>
    <linearGradient id="h" x1="481.21" y1="57.1" x2="603.43" y2="57.1" gradientTransform="matrix(.83 .56 -.49 .72 -255.94 -23.64)" xlink:href="#a"/>
    <linearGradient id="i" x1="195.53" y1="207.16" x2="327.8" y2="207.16" gradientTransform="matrix(1.2 .25 -.19 .93 -60.88 96.1)" xlink:href="#a"/>
    <linearGradient id="j" x1="-88.66" y1="183.4" x2="70.57" y2="183.57" gradientTransform="matrix(1.15 -.44 .33 .88 221.65 198.44)" xlink:href="#a"/>
    <linearGradient id="k" x1="2748.55" y1="537.44" x2="2795.94" y2="537.44" gradientTransform="matrix(.48 .88 -.7 .39 -87.25 -2010.2)" xlink:href="#a"/>
    <linearGradient id="l" x1="2880.56" y1="-381.06" x2="2936.28" y2="-381.06" gradientTransform="matrix(.22 .98 -.85 .19 -110.03 -2146.68)" xlink:href="#a"/>
    <linearGradient id="m" x1="748.45" y1="-3714.25" x2="792.45" y2="-3714.25" gradientTransform="matrix(-.93 .37 -.32 -.81 432.77 -2717.12)" xlink:href="#a"/>
    <linearGradient id="n" x1="1409.3" y1="-2911.84" x2="1456.92" y2="-2911.84" gradientTransform="matrix(-.88 .85 -.66 -.68 223.67 -2624.07)" xlink:href="#a"/>
    <linearGradient id="o" x1="2199.93" y1="-1681.96" x2="2257.27" y2="-1681.9" gradientTransform="matrix(-.29 1.2 -.91 -.22 -20.6 -2449.06)" xlink:href="#a"/>
    <radialGradient id="p" cx="516.56" cy="623.38" r="166.2" xlink:href="#b"/>
    <linearGradient id="c" x1="416.83" y1="652.28" x2="573.71" y2="652.28" gradientUnits="userSpaceOnUse">
      <stop offset="0" stop-color="#f0c17f"/>
      <stop offset=".57" stop-color="#f9d4a6"/>
      <stop offset="1" stop-color="#ffe1bf"/>
    </linearGradient>
    <linearGradient id="q" x1="445.18" y1="633" x2="566.65" y2="633" xlink:href="#c"/>
    <linearGradient id="r" x1="480.02" y1="614.53" x2="550" y2="614.53" xlink:href="#c"/>
    <linearGradient id="s" x1="389.89" y1="682.43" x2="570.28" y2="682.43" xlink:href="#c"/>
    <radialGradient id="t" cx="720" cy="88.02" r="143.25" xlink:href="#d"/>
    <radialGradient id="u" cx="844.09" cy="267.26" r="141.07" xlink:href="#d"/>
    <radialGradient id="v" cx="1044.77" cy="83.43" r="129.13" xlink:href="#d"/>
    <radialGradient id="w" cx="1060.09" cy="285.64" r="129.92" xlink:href="#d"/>
    <radialGradient id="x" cx="850.21" cy="-34.53" r="125.77" xlink:href="#d"/>
    <linearGradient id="y" x1="391.34" y1="9.63" x2="425.33" y2="9.63" xlink:href="#c"/>
    <linearGradient id="z" x1="343.43" y1="22.83" x2="394.87" y2="22.83" xlink:href="#c"/>
    <linearGradient id="A" x1="285.91" y1="30.97" x2="352.9" y2="30.97" xlink:href="#c"/>
    <radialGradient id="B" cx="1146.68" cy="503.89" r="133.76" xlink:href="#b"/>
    <linearGradient id="C" x1="1143.59" y1="506.83" x2="1192.97" y2="506.83" xlink:href="#c"/>
    <linearGradient id="D" x1="1124.09" y1="534.26" x2="1193.35" y2="534.26" xlink:href="#c"/>
    <linearGradient id="E" x1="1112.35" y1="559.76" x2="1192.97" y2="559.76" xlink:href="#c"/>
    <linearGradient id="F" x1="1107.6" y1="590.85" x2="1193.35" y2="590.85" xlink:href="#c"/>
  </defs>
  <path d="M1193 1.08C799 .32 376.12.32.51 1.08 58 90.25 152.53 169.55 116.73 293.74 85.6 401.7 61.06 545 164.37 624c39 29.83 88.36 22.38 131.69 41.4 36.41 16 66.95 41.29 91.5 75.5 37 51.58 56.64 144.07 118.35 167.17 129.14 48.36 206-215.4 334.76-174.52 44.85 14.25 58.94 66.18 79.79 106.52 20.92 40.51 47.08 65.22 84.5 86 57.46 31.94 124.72 46.45 188 53z" transform="translate(-.51 -.51)" fill="url(#e)"/>
  <path d="M716.24 268c-5.09 15.25-22.72 34.95-42.36 35.58-19.13.62-25-14.82-28.8-35.58-3.58-19.32 6.42-42.35 26.07-42.35 32.19.04 51.3 23.75 45.09 42.35z" transform="translate(-.51 -.51)" fill="url(#d)"/>
  <path d="M212.2 1.16q3.24 4.46 6.9 8.71a132.79 132.79 0 0 0 187.29 13.72 133 133 0 0 0 20.66-22.43z" transform="translate(-.51 -.51)" fill="url(#b)"/>
  <path d="M664.18 1c-16.85 35.77-27.59 73.43-31.08 110.12C617.22 277.85 728.86 394 936.36 414.38c118 11.59 206.55-43.78 256.61-127.59V1z" transform="translate(-.51 -.51)" fill="url(#f)"/>
  <path d="M409.22 240.82c44.15 22.29 103.07 65.79 51.15 133-37.47 48.52-115.36-27-144.9-48.2-15.12-10.85-115.29-84.09-93.58-115.28 12.18-17.5 64.53-5.12 77.1-3.18 38.27 5.93 76.21 16.48 110.23 33.66z" transform="translate(-.51 -.51)" fill="url(#a)"/>
  <path d="M427.33 303.21c39.34 36.37 65.56 77.31 9.85 141.77-73.38 84.92-101.33-58-126.09-88.57-12.68-15.63-96.33-120.51-66.55-144.23 16.7-13.31 66.83 15.95 79.12 21.95 37.42 18.3 73.34 41.06 103.67 69.08z" transform="translate(-.51 -.51)" fill="url(#g)"/>
  <path d="M183.62 401.89c-30 44.36-42.8 88.16-102.11 27-42.82-44.14 5.55-104.83 32-133.91 13.55-14.88 104.65-113.36 132.58-87.49C261.78 222 240.4 276 236.31 289c-12.45 39.75-29.55 78.71-52.69 112.89z" transform="translate(-.51 -.51)" fill="url(#h)"/>
  <path d="M266.65 427.62c-11.71 57.18 43.15 100.52-100.35 68.54-73-16.27-45.35-109.84-30.11-150C144 325.6 197.17 189 241 204.38c24.56 8.63 27.2 72.19 29 87.13 5.61 45.49 5.67 92.05-3.35 136.11z" transform="translate(-.51 -.51)" fill="url(#i)"/>
  <path d="M382.72 381.33c20.47 54.12 55.86 100.59-66.42 128.94-133.5 31-114.31-79.39-105.36-122C233.05 283 219 210.46 242 208.22c26.08-2.54 61.62 45.87 71.15 57.39 28.96 35.09 53.79 74.01 69.57 115.72z" transform="translate(-.51 -.51)" fill="url(#j)"/>
  <path d="M868 654.72c-15.61 8.57-40.53 17.19-49.91-11.92-6.76-21 31.52-28.74 43.84-33.19 6.3-2.27 48.45-17.09 53.28-4.29 2.72 7.19-11.63 20.2-14.76 23.54C890.9 639 880 648.13 868 654.72z" transform="translate(-.51 -.51)" fill="url(#k)"/>
  <path d="M845.8 647.39c-18.81 4.26-36.31 3.7-44.09-26-10.26-39.08 37.87-18.25 52-19.38 7.23-.58 55.4-4 56.38 9.64.54 7.67-18.36 16.58-22.64 19-13.08 7.42-27.16 13.45-41.65 16.74z" transform="translate(-.51 -.51)" fill="url(#l)"/>
  <path d="M866.17 554.93c-7-17.95-17.45-30.66 12.79-35.81 21.83-3.71 30 23 33.22 36.8 1.66 7.05 12.33 54.16-1 57.18-7.5 1.69-19.16-15.65-22.21-19.52-9.29-11.8-17.37-24.81-22.8-38.65z" transform="translate(-.51 -.51)" fill="url(#m)"/>
  <path d="M841.61 574.34c-14.59-15.13-38.63-7.67.1-43.76 19.71-18.36 41.85 8.93 50.67 21.63 4.51 6.5 34.22 50.13 20.73 60-7.57 5.53-27-6.63-31.78-9.13-14.65-7.62-28.48-17.08-39.72-28.74z" transform="translate(-.51 -.51)" fill="url(#n)"/>
  <path d="M831.7 618.23c-20.24-5-41.24-3.92-24.74-46 18-45.94 46.86-17.76 57.67-6.42 26.75 28 51.15 38.62 47.14 45.89-4.56 8.26-26.17 8.95-31.53 9.43-16.33 1.47-32.94.87-48.54-2.9z" transform="translate(-.51 -.51)" fill="url(#o)"/>
  <circle cx="469.33" cy="692.84" r="99.19" fill="url(#p)"/>
  <path d="M416.84 604.56c-.31 24.38 8.41 50.94 24.4 69.37 25.09 28.94 68.59 36.19 104.31 27 8.75-2.25 17.81-5.27 25.69-9.8 5.57-3.2.76-12-4.84-8.75-17.93 10.29-40.93 13.93-61.23 11.92-19.16-1.9-39.26-9.6-53.05-23.34-11-11-17.91-25.33-21.72-40.27a100.85 100.85 0 0 1-3.56-25.8c.08-6.43-9.92-6.76-10-.32z" transform="translate(-.51 -.51)" fill="url(#c)"/>
  <path d="M445.48 595.91c-2.14 19.15 7.64 39.81 21.06 52.85 20.85 20.25 55.52 33.06 83.7 21.71 5.34-2.15 11-5.2 15-9.41 4.43-4.65-2.47-11.89-6.93-7.22-8.24 8.65-23.6 11.8-36.1 10.64-28.19-2.62-57.47-22.35-64.91-50.5-1.5-5.68-2.47-11.86-1.82-17.75.72-6.4-9.29-6.68-10-.32z" transform="translate(-.51 -.51)" fill="url(#q)"/>
  <path d="M480.1 596.47c4.5 27.34 42.75 55 68.1 35.84 5.12-3.88-1.84-11.07-6.92-7.22 2-1.52-1 .52-1.75.88a23.16 23.16 0 0 1-7.13 2.11c-9.2 1.23-18.33-2.69-25.61-8.05-8.15-6-15.29-15.69-17-25.9-1-6.35-10.76-4-9.72 2.34z" transform="translate(-.51 -.51)" fill="url(#r)"/>
  <path d="M389.89 626.8c.23 29.12 10.33 60.8 29.11 83.13 29 34.49 76.83 38.65 117.74 26.83 10.58-3.06 21.34-6.9 31-12.21 5.63-3.09.81-11.85-4.85-8.75-22.1 12.11-49.48 18.46-74.55 17-21.24-1.22-42.08-9.18-57.22-24.42-13.44-13.53-21.75-31.28-26.5-49.57-2.67-10.28-4.67-21.07-4.76-31.7-.05-6.43-10.05-6.77-10-.33z" transform="translate(-.51 -.51)" fill="url(#s)"/>
  <path d="M803.76 153.76c-5.08 15.25-22.71 35.58-42.35 35.58s-33.89-25.41-28.81-35.58c8.79-17.57 15.93-35.58 35.58-35.58 32.19 0 41.82 16.94 35.58 35.58z" transform="translate(-.51 -.51)" fill="url(#t)"/>
  <path d="M927.32 339.22c-5.08 15.25-29.57 40.66-49.22 40.66s-33.88-25.41-28.8-35.58c8.79-17.57 22.8-49.13 42.45-49.13 32.19 0 41.79 25.41 35.57 44.05z" transform="translate(-.51 -.51)" fill="url(#u)"/>
  <path d="M1138.6 137.61c-5.08 15.25-22.71 35.58-42.36 35.58s-33.88-25.42-28.8-35.58C1076.23 120 1083.37 102 1103 102c32.21 0 41.81 17 35.6 35.61z" transform="translate(-.51 -.51)" fill="url(#v)"/>
  <path d="M1148.76 337.52c-5.08 15.25-22.7 35.58-42.35 35.58s-33.88-25.41-28.8-35.58c8.78-17.57 15.93-35.57 35.58-35.57 32.19.05 41.81 16.93 35.57 35.57z" transform="translate(-.51 -.51)" fill="url(#w)"/>
  <path d="M861.56 1.16l-3 6c-5.08 10.16 24.49 47.43 44.14 47.43s33.92-35.59 39-50.82a20.1 20.1 0 0 0 .68-2.61z" transform="translate(-.51 -.51)" fill="url(#x)"/>
  <path d="M420.88 5.12a37.31 37.31 0 0 1-8.79-4h-20.75c1.53 1.58 3.13 3.11 4.82 4.57 5.82 5 12.9 9.86 20.39 12.06 8.23 2.46 12.63-10.19 4.33-12.63z" transform="translate(-.51 -.51)" fill="url(#y)"/>
  <path d="M391.9 32.25c-12.37-8-23.38-18.85-32.49-31.09h-16A159.31 159.31 0 0 0 357 18.83c8 9 17.2 18 27.42 24.55 7.26 4.67 14.75-6.44 7.48-11.13z" transform="translate(-.51 -.51)" fill="url(#z)"/>
  <path d="M350 48.62A192.45 192.45 0 0 1 301.61 1h-15.7A203.27 203.27 0 0 0 309 30.32c10.12 10.68 21.29 21.16 33.55 29.43 7.14 4.81 14.61-6.3 7.45-11.13z" transform="translate(-.51 -.51)" fill="url(#A)"/>
  <path d="M1193.35 489.8a81 81 0 0 0 0 162z" transform="translate(-.51 -.51)" fill="url(#B)"/>
  <path d="M1193 498c-4.64 5.36-11.73 8.1-18.61 9.14-8.17 1.23-17.88-.23-24.75-5.16-4.27-3.06-8.51 3.92-4.26 7 12.46 8.93 34 9 47.62.11z" transform="translate(-.51 -.51)" fill="url(#C)"/>
  <path d="M1193.35 533.32c-16.31 7-35.82 7.75-51.06-1.11A40.46 40.46 0 0 1 1131 523c-3.29-4.11-9.22 1.5-6 5.58 9.82 12.29 27.4 18.57 42.67 18.35a77.73 77.73 0 0 0 25.64-4.9z" transform="translate(-.51 -.51)" fill="url(#D)"/>
  <path d="M1193 564.24a61.83 61.83 0 0 1-20.77 3.83c-12.7 0-25-4.27-35.79-10.7a82.17 82.17 0 0 1-17-12.84c-3.67-3.76-9.63 1.82-6 5.59 13.9 14.25 34.27 24.55 54.13 26a67.59 67.59 0 0 0 25.34-3.14z" transform="translate(-.51 -.51)" fill="url(#E)"/>
  <path d="M1193.35 600.33a62.7 62.7 0 0 1-13.64 1.47c-15.57 0-30.62-5.5-43.92-13.32a107.62 107.62 0 0 1-21-15.55c-3.74-3.68-9.71 1.89-6 5.58 16.94 16.68 41 29.14 64.79 31.19a71.17 71.17 0 0 0 19.77-1z" transform="translate(-.51 -.51)" fill="url(#F)"/>
</svg>
