<svg xmlns="http://www.w3.org/2000/svg" xmlns:xlink="http://www.w3.org/1999/xlink" viewBox="150 146 1208 1280"  >
  <defs>
    <linearGradient id="e" x1="1039.38" y1="774.43" x2="1866.35" y2="-52.54" gradientUnits="userSpaceOnUse">
      <stop offset=".11" stop-color="#ffb33f"/>
      <stop offset=".4" stop-color="#ff9e5c"/>
      <stop offset="1" stop-color="#ff6aa2"/>
    </linearGradient>
    <radialGradient id="b" cx="1149.6" cy="-.62" r="192.31" gradientUnits="userSpaceOnUse">
      <stop offset="0" stop-color="#a6692b"/>
      <stop offset=".32" stop-color="#895224"/>
      <stop offset=".67" stop-color="#66371b"/>
    </radialGradient>
    <radialGradient id="f" cx="1844.06" cy="350.19" r="576.17" gradientUnits="userSpaceOnUse">
      <stop offset=".2" stop-color="#946132"/>
      <stop offset=".42" stop-color="#986433"/>
      <stop offset=".63" stop-color="#a36d38"/>
      <stop offset=".83" stop-color="#b67b3f"/>
      <stop offset="1" stop-color="#cc8c47"/>
    </radialGradient>
    <linearGradient id="a" x1="289.34" y1="-149.16" x2="420.98" y2="-149.16" gradientTransform="matrix(.45 -.89 .72 .36 1020.49 653.99)" gradientUnits="userSpaceOnUse">
      <stop offset="0" stop-color="#ffe7ed"/>
      <stop offset=".52" stop-color="#ffc7da"/>
      <stop offset="1" stop-color="#ffaeca"/>
    </linearGradient>
    <linearGradient id="g" x1="359.84" y1="25.04" x2="514.59" y2="25.04" gradientTransform="matrix(.68 -.73 .64 .59 755.03 634.87)" xlink:href="#a"/>
    <linearGradient id="h" x1="1208.21" y1="57.1" x2="1330.43" y2="57.1" gradientTransform="matrix(.83 .56 -.49 .72 -130.93 -431.24)" xlink:href="#a"/>
    <linearGradient id="i" x1="922.53" y1="207.16" x2="1054.8" y2="207.16" gradientTransform="matrix(1.2 .25 -.19 .93 -204.16 -82.08)" xlink:href="#a"/>
    <linearGradient id="j" x1="638.34" y1="183.4" x2="797.57" y2="183.57" gradientTransform="matrix(1.15 -.44 .33 .88 112.05 514.88)" xlink:href="#a"/>
    <linearGradient id="k" x1="3475.55" y1="537.44" x2="3522.94" y2="537.44" gradientTransform="matrix(.48 .88 -.7 .39 290.16 -2647.63)" xlink:href="#a"/>
    <linearGradient id="l" x1="3607.56" y1="-381.06" x2="3663.28" y2="-381.06" gradientTransform="matrix(.22 .98 -.85 .19 456.16 -2855.68)" xlink:href="#a"/>
    <linearGradient id="m" x1="1475.45" y1="-3714.25" x2="1519.45" y2="-3714.25" gradientTransform="matrix(-.93 .37 -.32 -.81 1836.5 -2982.75)" xlink:href="#a"/>
    <linearGradient id="n" x1="2136.3" y1="-2911.84" x2="2183.92" y2="-2911.84" gradientTransform="matrix(-.88 .85 -.66 -.68 1590.09 -3240.73)" xlink:href="#a"/>
    <linearGradient id="o" x1="2926.93" y1="-1681.96" x2="2984.27" y2="-1681.9" gradientTransform="matrix(-.29 1.2 -.91 -.22 918.97 -3317.87)" xlink:href="#a"/>
    <radialGradient id="p" cx="682.06" cy="768.89" r="166.2" xlink:href="#b"/>
    <linearGradient id="c" x1="1143.83" y1="652.28" x2="1300.71" y2="652.28" gradientUnits="userSpaceOnUse">
      <stop offset="0" stop-color="#f0c17f"/>
      <stop offset=".57" stop-color="#f9d4a6"/>
      <stop offset="1" stop-color="#ffe1bf"/>
    </linearGradient>
    <linearGradient id="q" x1="1172.18" y1="633" x2="1293.65" y2="633" xlink:href="#c"/>
    <linearGradient id="r" x1="1207.02" y1="614.53" x2="1277" y2="614.53" xlink:href="#c"/>
    <linearGradient id="s" x1="1116.89" y1="682.43" x2="1297.28" y2="682.43" xlink:href="#c"/>
    <radialGradient id="d" cx="1458.53" cy="129.6" r="136.34" gradientUnits="userSpaceOnUse">
      <stop offset=".07" stop-color="#82480e"/>
      <stop offset=".14" stop-color="#703e0e"/>
      <stop offset=".26" stop-color="#572f0e"/>
      <stop offset=".39" stop-color="#44250e"/>
      <stop offset=".52" stop-color="#3a1f0e"/>
      <stop offset=".67" stop-color="#361d0e"/>
    </radialGradient>
    <radialGradient id="t" cx="1563.72" cy="302.19" r="167.7" xlink:href="#d"/>
    <radialGradient id="u" cx="1778.19" cy="108.15" r="152.4" xlink:href="#d"/>
    <radialGradient id="v" cx="1798.62" cy="306.79" r="141.08" xlink:href="#d"/>
    <radialGradient id="w" cx="1590.28" cy="-12.87" r="127.69" xlink:href="#d"/>
    <linearGradient id="x" x1="1118.34" y1="9.63" x2="1152.33" y2="9.63" xlink:href="#c"/>
    <linearGradient id="y" x1="1070.43" y1="22.83" x2="1121.87" y2="22.83" xlink:href="#c"/>
    <linearGradient id="z" x1="1012.91" y1="30.97" x2="1079.9" y2="30.97" xlink:href="#c"/>
    <radialGradient id="A" cx="1873.68" cy="503.89" r="133.76" xlink:href="#b"/>
    <linearGradient id="B" x1="1870.59" y1="506.83" x2="1919.97" y2="506.83" xlink:href="#c"/>
    <linearGradient id="C" x1="1851.09" y1="534.26" x2="1920.35" y2="534.26" xlink:href="#c"/>
    <linearGradient id="D" x1="1839.35" y1="559.76" x2="1919.97" y2="559.76" xlink:href="#c"/>
    <linearGradient id="E" x1="1834.6" y1="590.85" x2="1920.35" y2="590.85" xlink:href="#c"/>
  </defs>
  <g data-name="Слой 1">
    <path d="M1920 1.08c-394-.76-816.88-.76-1192.49 0C785 90.25 879.5 169.55 843.7 293.74 812.57 401.7 788 545 891.34 624c39 29.83 88.36 22.38 131.7 41.4 36.4 16 66.94 41.29 91.49 75.5 37 51.58 56.64 144.07 118.35 167.17 129.15 48.36 206-215.4 334.76-174.52 44.85 14.25 58.94 66.18 79.79 106.52 20.92 40.51 47.08 65.22 84.5 86 57.46 31.94 124.72 46.45 188 53z" transform="translate(-562 145)" fill="url(#e)"/>
    <path d="M881.24 413c-5.09 15.25-22.72 34.95-42.36 35.58-19.13.62-25-14.82-28.8-35.58-3.58-19.32 6.42-42.35 26.07-42.35 32.19.04 51.3 23.75 45.09 42.35z" fill="#42210b"/>
    <path d="M939.2 1.16q3.24 4.46 6.9 8.71a132.79 132.79 0 0 0 187.29 13.72 133 133 0 0 0 20.66-22.43z" transform="translate(-562 145)" fill="url(#b)"/>
    <path d="M1391.18 1c-16.85 35.77-27.59 73.43-31.08 110.12-15.88 166.73 95.76 282.88 303.26 303.26 118 11.59 206.55-43.78 256.61-127.59V1z" transform="translate(-562 145)" fill="url(#f)"/>
    <path d="M1136.22 240.82c44.15 22.29 103.07 65.79 51.15 133-37.47 48.52-115.36-27-144.9-48.2-15.12-10.85-115.29-84.09-93.58-115.28 12.18-17.5 64.53-5.12 77.1-3.18 38.27 5.93 76.21 16.48 110.23 33.66z" transform="translate(-562 145)" fill="url(#a)"/>
    <path d="M1154.33 303.21c39.34 36.37 65.56 77.31 9.85 141.77-73.38 84.92-101.33-58-126.09-88.57-12.68-15.63-96.33-120.51-66.55-144.23 16.7-13.31 66.83 15.95 79.12 21.95 37.42 18.3 73.34 41.06 103.67 69.08z" transform="translate(-562 145)" fill="url(#g)"/>
    <path d="M910.62 401.89c-30 44.36-42.8 88.16-102.11 27-42.82-44.14 5.55-104.83 32-133.91 13.55-14.88 104.65-113.36 132.58-87.49C988.78 222 967.4 276 963.31 289c-12.45 39.75-29.55 78.71-52.69 112.89z" transform="translate(-562 145)" fill="url(#h)"/>
    <path d="M993.65 427.62c-11.71 57.18 43.15 100.52-100.35 68.54-73-16.27-45.35-109.84-30.11-150C871 325.6 924.17 189 968 204.38c24.56 8.63 27.2 72.19 29 87.13 5.61 45.49 5.67 92.05-3.35 136.11z" transform="translate(-562 145)" fill="url(#i)"/>
    <path d="M1109.72 381.33c20.47 54.12 55.86 100.59-66.42 128.94-133.5 31-114.31-79.39-105.36-122 22.11-105.27 8-177.84 31-180.08 26.08-2.54 61.62 45.87 71.15 57.39 29.02 35.12 53.85 74.04 69.63 115.75z" transform="translate(-562 145)" fill="url(#j)"/>
    <path d="M1595 654.72c-15.61 8.57-40.53 17.19-49.91-11.92-6.76-21 31.52-28.74 43.84-33.19 6.3-2.27 48.45-17.09 53.28-4.29 2.72 7.19-11.63 20.2-14.76 23.54-9.55 10.14-20.45 19.27-32.45 25.86z" transform="translate(-562 145)" fill="url(#k)"/>
    <path d="M1572.8 647.39c-18.81 4.26-36.31 3.7-44.09-26-10.26-39.08 37.87-18.25 52-19.38 7.23-.58 55.4-4 56.38 9.64.54 7.67-18.36 16.58-22.64 19-13.08 7.42-27.16 13.45-41.65 16.74z" transform="translate(-562 145)" fill="url(#l)"/>
    <path d="M1593.17 554.93c-7.05-17.95-17.45-30.66 12.79-35.81 21.83-3.71 30 23 33.22 36.8 1.66 7.05 12.33 54.16-1 57.18-7.5 1.69-19.16-15.65-22.21-19.52-9.29-11.8-17.37-24.81-22.8-38.65z" transform="translate(-562 145)" fill="url(#m)"/>
    <path d="M1568.61 574.34c-14.59-15.13-38.63-7.67.1-43.76 19.71-18.36 41.85 8.93 50.67 21.63 4.51 6.5 34.22 50.13 20.73 60-7.57 5.53-27-6.63-31.78-9.13-14.65-7.62-28.48-17.08-39.72-28.74z" transform="translate(-562 145)" fill="url(#n)"/>
    <path d="M1558.7 618.23c-20.24-5-41.24-3.92-24.74-46 18-45.94 46.86-17.76 57.67-6.42 26.75 28 51.15 38.62 47.14 45.89-4.56 8.26-26.17 8.95-31.53 9.43-16.33 1.47-32.94.87-48.54-2.9z" transform="translate(-562 145)" fill="url(#o)"/>
    <circle cx="634.84" cy="838.35" r="99.19" fill="url(#p)"/>
    <path d="M1143.84 604.56c-.31 24.38 8.41 50.94 24.4 69.37 25.09 28.94 68.59 36.19 104.31 27 8.75-2.25 17.81-5.27 25.69-9.8 5.57-3.2.76-12-4.84-8.75-17.93 10.29-40.93 13.93-61.23 11.92-19.16-1.9-39.26-9.6-53.05-23.34-11-11-17.91-25.33-21.72-40.27a100.85 100.85 0 0 1-3.56-25.8c.08-6.43-9.92-6.76-10-.32z" transform="translate(-562 145)" fill="url(#c)"/>
    <path d="M1172.48 595.91c-2.14 19.15 7.64 39.81 21.06 52.85 20.85 20.25 55.52 33.06 83.7 21.71 5.34-2.15 11-5.2 15-9.41 4.43-4.65-2.47-11.89-6.93-7.22-8.24 8.65-23.6 11.8-36.1 10.64-28.19-2.62-57.47-22.35-64.91-50.5-1.5-5.68-2.47-11.86-1.82-17.75.72-6.4-9.29-6.68-10-.32z" transform="translate(-562 145)" fill="url(#q)"/>
    <path d="M1207.1 596.47c4.5 27.34 42.75 55 68.1 35.84 5.12-3.88-1.84-11.07-6.92-7.22 2-1.52-1 .52-1.75.88a23.16 23.16 0 0 1-7.13 2.11c-9.2 1.23-18.33-2.69-25.61-8.05-8.15-6-15.29-15.69-17-25.9-1-6.35-10.76-4-9.72 2.34z" transform="translate(-562 145)" fill="url(#r)"/>
    <path d="M1116.89 626.8c.23 29.12 10.33 60.8 29.11 83.13 29 34.49 76.83 38.65 117.74 26.83 10.58-3.06 21.34-6.9 31-12.21 5.63-3.09.81-11.85-4.85-8.75-22.1 12.11-49.48 18.46-74.55 17-21.24-1.22-42.08-9.18-57.22-24.42-13.44-13.53-21.75-31.28-26.5-49.57-2.67-10.28-4.67-21.07-4.76-31.7-.05-6.43-10.05-6.77-10-.33z" transform="translate(-562 145)" fill="url(#s)"/>
    <path d="M1530.76 153.76c-5.08 15.25-22.71 35.58-42.35 35.58s-33.89-25.41-28.81-35.58c8.79-17.57 15.93-35.58 35.58-35.58 32.19 0 41.82 16.94 35.58 35.58z" transform="translate(-562 145)" fill="url(#d)"/>
    <path d="M1654.32 339.22c-5.08 15.25-29.57 40.66-49.22 40.66s-33.88-25.41-28.8-35.58c8.79-17.57 22.8-49.13 42.45-49.13 32.19 0 41.79 25.41 35.57 44.05z" transform="translate(-562 145)" fill="url(#t)"/>
    <path d="M1865.6 137.61c-5.08 15.25-22.71 35.58-42.36 35.58s-33.88-25.42-28.8-35.58C1803.23 120 1810.37 102 1830 102c32.21 0 41.81 17 35.6 35.61z" transform="translate(-562 145)" fill="url(#u)"/>
    <path d="M1875.76 337.52c-5.08 15.25-22.7 35.58-42.35 35.58s-33.88-25.41-28.8-35.58c8.78-17.57 15.93-35.57 35.58-35.57 32.19.05 41.81 16.93 35.57 35.57z" transform="translate(-562 145)" fill="url(#v)"/>
    <path d="M1588.56 1.16l-3 6c-5.08 10.16 24.49 47.43 44.14 47.43s33.88-35.57 39-50.82a20.1 20.1 0 0 0 .68-2.61z" transform="translate(-562 145)" fill="url(#w)"/>
    <path d="M1147.88 5.12a37.31 37.31 0 0 1-8.79-4h-20.75c1.53 1.58 3.13 3.11 4.82 4.57 5.82 5 12.9 9.86 20.39 12.06 8.23 2.46 12.63-10.19 4.33-12.63z" transform="translate(-562 145)" fill="url(#x)"/>
    <path d="M1118.9 32.25c-12.37-8-23.38-18.85-32.49-31.09h-16A159.31 159.31 0 0 0 1084 18.83c8 9 17.2 18 27.42 24.55 7.26 4.67 14.75-6.44 7.48-11.13z" transform="translate(-562 145)" fill="url(#y)"/>
    <path d="M1077 48.62A192.45 192.45 0 0 1 1028.61 1h-15.7A203.27 203.27 0 0 0 1036 30.32c10.12 10.71 21.29 21.16 33.55 29.43 7.14 4.81 14.61-6.3 7.45-11.13z" transform="translate(-562 145)" fill="url(#z)"/>
    <path d="M1920.35 489.8a81 81 0 0 0 0 162z" transform="translate(-562 145)" fill="url(#A)"/>
    <path d="M1920 498c-4.64 5.36-11.73 8.1-18.61 9.14-8.17 1.23-17.88-.23-24.75-5.16-4.27-3.06-8.51 3.92-4.26 7 12.46 8.93 34 9 47.62.11z" transform="translate(-562 145)" fill="url(#B)"/>
    <path d="M1920.35 533.32c-16.31 7-35.82 7.75-51.06-1.11A40.46 40.46 0 0 1 1858 523c-3.29-4.11-9.22 1.5-6 5.58 9.82 12.29 27.4 18.57 42.67 18.35a77.73 77.73 0 0 0 25.64-4.9z" transform="translate(-562 145)" fill="url(#C)"/>
    <path d="M1920 564.24a61.83 61.83 0 0 1-20.77 3.83c-12.7 0-25-4.27-35.79-10.7a82.17 82.17 0 0 1-17-12.84c-3.67-3.76-9.63 1.82-6 5.59 13.9 14.25 34.27 24.55 54.13 26a67.59 67.59 0 0 0 25.34-3.14z" transform="translate(-562 145)" fill="url(#D)"/>
    <path d="M1920.35 600.33a62.7 62.7 0 0 1-13.64 1.47c-15.57 0-30.62-5.5-43.92-13.32a107.62 107.62 0 0 1-21-15.55c-3.74-3.68-9.71 1.89-6 5.58 16.94 16.68 41 29.14 64.79 31.19a71.17 71.17 0 0 0 19.77-1z" transform="translate(-562 145)" fill="url(#E)"/>
  </g>
</svg>
