<?xml version="1.0" encoding="utf-8"?>
<!-- Generator: Adobe Illustrator 23.0.2, SVG Export Plug-In . SVG Version: 6.00 Build 0)  -->
<svg version="1.1" id="Слой_1" 
	xmlns="http://www.w3.org/2000/svg" 
	xmlns:xlink="http://www.w3.org/1999/xlink" x="0px" y="0px" viewBox="-10 1 1180 977" style="enable-background:new 0 0 1192.8 978.6;" xml:space="preserve">
	<style type="text/css">
	.st0{fill:url(#SVGID_1_);}
	.st1{fill:url(#SVGID_2_);}
	.st2{fill:url(#SVGID_3_);}
	.st3{fill:url(#SVGID_4_);}
	.st4{fill:url(#SVGID_5_);}
	.st5{fill:url(#SVGID_6_);}
	.st6{fill:url(#SVGID_7_);}
	.st7{fill:url(#SVGID_8_);}
	.st8{fill:url(#SVGID_9_);}
	.st9{fill:url(#SVGID_10_);}
	.st10{fill:url(#SVGID_11_);}
	.st11{fill:url(#SVGID_12_);}
	.st12{fill:url(#SVGID_13_);}
	.st13{fill:url(#SVGID_14_);}
	.st14{fill:url(#SVGID_15_);}
	.st15{fill:url(#SVGID_16_);}
	.st16{fill:url(#SVGID_17_);}
	.st17{fill:url(#SVGID_18_);}
	.st18{fill:url(#SVGID_19_);}
	.st19{fill:url(#SVGID_20_);}
	.st20{fill:url(#SVGID_21_);}
	.st21{fill:url(#SVGID_22_);}
	.st22{fill:url(#SVGID_23_);}
	.st23{fill:url(#SVGID_24_);}
	.st24{fill:url(#SVGID_25_);}
	.st25{fill:url(#SVGID_26_);}
	.st26{fill:url(#SVGID_27_);}
	.st27{fill:url(#SVGID_28_);}
	.st28{fill:url(#SVGID_29_);}
	.st29{fill:url(#SVGID_30_);}
	.st30{fill:url(#SVGID_31_);}
	.st31{fill:url(#SVGID_32_);}
	</style>
	<linearGradient id="SVGID_1_" gradientUnits="userSpaceOnUse" x1="312.407" y1="203.597" x2="1139.365" y2="1030.5551" gradientTransform="matrix(1 0 0 -1 -0.51 977.49)">
		<stop offset="0.11" style="stop-color:#FFB33F"/>
		<stop offset="0.4" style="stop-color:#FF9E5C"/>
		<stop offset="1" style="stop-color:#FF6AA2"/>
	</linearGradient>
	<path class="st0" d="M1192.5,0.6C798.5-0.2,375.6-0.2,0,0.6C57.5,89.7,152,169,116.2,293.2c-31.1,108-55.7,251.3,47.6,330.3
	c39,29.8,88.4,22.4,131.7,41.4c36.4,16,67,41.3,91.5,75.5c37,51.6,56.6,144.1,118.4,167.2c129.1,48.4,206-215.4,334.8-174.5
	c44.8,14.3,58.9,66.2,79.8,106.5c20.9,40.5,47.1,65.2,84.5,86c57.5,31.9,124.7,46.5,188,53L1192.5,0.6z"/>
	<radialGradient id="SVGID_2_" cx="606.64" cy="773.55" r="158.17" gradientTransform="matrix(1 0 0 -1 -0.51 977.49)" gradientUnits="userSpaceOnUse">
		<stop offset="0" style="stop-color:#A6692B"/>
		<stop offset="0.21" style="stop-color:#895523"/>
		<stop offset="0.65" style="stop-color:#40220E"/>
		<stop offset="0.67" style="stop-color:#3D200D"/>
	</radialGradient>
	<path class="st1" d="M715.7,267.5c-5.1,15.3-22.7,35-42.4,35.6c-19.1,0.6-25-14.8-28.8-35.6c-3.6-19.3,6.4-42.3,26.1-42.3
	C702.8,225.2,721.9,248.9,715.7,267.5L715.7,267.5z"/>
	<radialGradient id="SVGID_3_" cx="422.6" cy="978.62" r="192.31" gradientTransform="matrix(1 0 0 -1 -0.51 977.49)" gradientUnits="userSpaceOnUse">
		<stop offset="0" style="stop-color:#A6692B"/>
		<stop offset="0.32" style="stop-color:#895224"/>
		<stop offset="0.67" style="stop-color:#66371B"/>
	</radialGradient>
	<path class="st2" d="M211.7,0.6c2.2,3,4.5,5.9,6.9,8.7C266.5,64.9,350.4,71,405.9,23.1c7.7-6.7,14.7-14.2,20.7-22.4L211.7,0.6z"/>
	<radialGradient id="SVGID_4_" cx="1117.0601" cy="627.81" r="576.17" gradientTransform="matrix(1 0 0 -1 -0.51 977.49)" gradientUnits="userSpaceOnUse">
		<stop offset="0.2" style="stop-color:#784613"/>
		<stop offset="0.38" style="stop-color:#7C4915"/>
		<stop offset="0.54" style="stop-color:#87511A"/>
		<stop offset="0.71" style="stop-color:#9A6024"/>
		<stop offset="0.87" style="stop-color:#B57431"/>
		<stop offset="1" style="stop-color:#D1893F"/>
	</radialGradient>
	<path class="st3" d="M663.7,0.5c-16.8,35.8-27.6,73.4-31.1,110.1c-15.9,166.7,95.8,282.9,303.3,303.3
	c118,11.6,206.6-43.8,256.6-127.6V0.5H663.7z"/>
	<linearGradient id="SVGID_5_" gradientUnits="userSpaceOnUse" x1="-32.4672" y1="1404.8062" x2="99.1728" y2="1404.8062" gradientTransform="matrix(0.45 -0.89 -0.72 -0.36 1343.05 817.49)">
		<stop offset="0" style="stop-color:#FFE7ED"/>
		<stop offset="0.52" style="stop-color:#FFC7DA"/>
		<stop offset="1" style="stop-color:#FFAECA"/>
	</linearGradient>
	<path class="st4" d="M408.7,240.3c44.1,22.3,103.1,65.8,51.1,133c-37.5,48.5-115.4-27-144.9-48.2c-15.1-10.9-115.3-84.1-93.6-115.3
	c12.2-17.5,64.5-5.1,77.1-3.2C336.7,212.6,374.7,223.1,408.7,240.3z"/>
	<linearGradient id="SVGID_6_" gradientUnits="userSpaceOnUse" x1="-80.096" y1="1190.7683" x2="74.654" y2="1190.7683" gradientTransform="matrix(0.68 -0.73 -0.64 -0.59 1104.72 1028.13)">
		<stop offset="0" style="stop-color:#FFE7ED"/>
		<stop offset="0.52" style="stop-color:#FFC7DA"/>
		<stop offset="1" style="stop-color:#FFAECA"/>
	</linearGradient>
	<path class="st5" d="M426.8,302.7c39.3,36.4,65.6,77.3,9.9,141.8c-73.4,84.9-101.3-58-126.1-88.6c-12.7-15.6-96.3-120.5-66.5-144.2
	c16.7-13.3,66.8,15.9,79.1,21.9C360.6,251.9,396.5,274.7,426.8,302.7L426.8,302.7z"/>
	<linearGradient id="SVGID_7_" gradientUnits="userSpaceOnUse" x1="407.2215" y1="686.3214" x2="529.4212" y2="686.3214" gradientTransform="matrix(0.83 0.56 0.49 -0.72 -559.74 553.17)">
		<stop offset="0" style="stop-color:#FFE7ED"/>
		<stop offset="0.52" style="stop-color:#FFC7DA"/>
		<stop offset="1" style="stop-color:#FFAECA"/>
	</linearGradient>
	<path class="st6" d="M183.1,401.4c-30,44.4-42.8,88.2-102.1,27c-42.8-44.1,5.6-104.8,32-133.9c13.6-14.9,104.7-113.4,132.6-87.5
	c15.7,14.5-5.7,68.5-9.8,81.5C223.4,328.2,206.3,367.2,183.1,401.4z"/>
	<linearGradient id="SVGID_8_" gradientUnits="userSpaceOnUse" x1="225.9391" y1="705.8986" x2="358.2091" y2="705.8986" gradientTransform="matrix(1.2 0.25 0.19 -0.93 -271 935.36)">
		<stop offset="0" style="stop-color:#FFE7ED"/>
		<stop offset="0.52" style="stop-color:#FFC7DA"/>
		<stop offset="1" style="stop-color:#FFAECA"/>
	</linearGradient>
	<path class="st7" d="M266.1,427.1c-11.7,57.2,43.1,100.5-100.3,68.5c-73-16.3-45.4-109.8-30.1-150c7.8-20.6,61-157.2,104.8-141.8
	c24.6,8.6,27.2,72.2,29,87.1C275.1,336.5,275.2,383,266.1,427.1z"/>
	<linearGradient id="SVGID_9_" gradientUnits="userSpaceOnUse" x1="62.3784" y1="925.0226" x2="221.5151" y2="924.8527" gradientTransform="matrix(1.15 -0.44 -0.33 -0.88 413.11 1239.49)">
		<stop offset="0" style="stop-color:#FFE7ED"/>
		<stop offset="0.52" style="stop-color:#FFC7DA"/>
		<stop offset="1" style="stop-color:#FFAECA"/>
	</linearGradient>
	<path class="st8" d="M382.2,380.8c20.5,54.1,55.9,100.6-66.4,128.9c-133.5,31-114.3-79.4-105.4-122c22.1-105.3,8.1-177.8,31.1-180
	c26.1-2.5,61.6,45.9,71.1,57.4C341.6,300.2,366.4,339.1,382.2,380.8z"/>
	<linearGradient id="SVGID_10_" gradientUnits="userSpaceOnUse" x1="2718.2551" y1="-26.8677" x2="2765.6487" y2="-26.8677" gradientTransform="matrix(0.48 0.88 0.7 -0.39 -425.14 -1787.98)">
		<stop offset="0" style="stop-color:#FFE7ED"/>
		<stop offset="0.52" style="stop-color:#FFC7DA"/>
		<stop offset="1" style="stop-color:#FFAECA"/>
	</linearGradient>
	<path class="st9" d="M867.5,654.2c-15.6,8.6-40.5,17.2-49.9-11.9c-6.8-21,31.5-28.7,43.8-33.2c6.3-2.3,48.5-17.1,53.3-4.3
	c2.7,7.2-11.6,20.2-14.8,23.5C890.4,638.5,879.5,647.6,867.5,654.2z"/>
	<linearGradient id="SVGID_11_" gradientUnits="userSpaceOnUse" x1="2919.187" y1="798.6945" x2="2974.907" y2="798.6945" gradientTransform="matrix(0.22 0.98 0.85 -0.19 -468.81 -2106.8599)">
		<stop offset="0" style="stop-color:#FFE7ED"/>
		<stop offset="0.52" style="stop-color:#FFC7DA"/>
		<stop offset="1" style="stop-color:#FFAECA"/>
	</linearGradient>
	<path class="st10" d="M845.3,646.9c-18.8,4.3-36.3,3.7-44.1-26c-10.3-39.1,37.9-18.3,52-19.4c7.2-0.6,55.4-4,56.4,9.6
	c0.5,7.7-18.4,16.6-22.6,19C873.9,637.6,859.8,643.6,845.3,646.9L845.3,646.9z"/>
	<linearGradient id="SVGID_12_" gradientUnits="userSpaceOnUse" x1="1328.2231" y1="4035.4014" x2="1372.2231" y2="4035.4014" gradientTransform="matrix(-0.93 0.37 0.32 0.81 863.56 -3205.2402)">
		<stop offset="0" style="stop-color:#FFE7ED"/>
		<stop offset="0.52" style="stop-color:#FFC7DA"/>
		<stop offset="1" style="stop-color:#FFAECA"/>
	</linearGradient>
	<path class="st11" d="M865.7,554.4c-7-18-17.5-30.7,12.8-35.8c21.8-3.7,30,23,33.2,36.8c1.7,7,12.3,54.2-1,57.2
	c-7.5,1.7-19.2-15.7-22.2-19.5C879.2,581.3,871.1,568.3,865.7,554.4L865.7,554.4z"/>
	<linearGradient id="SVGID_13_" gradientUnits="userSpaceOnUse" x1="1822.1794" y1="3208.6211" x2="1869.7994" y2="3208.6211" gradientTransform="matrix(-0.88 0.85 0.66 0.68 385.9 -3182.2002)">
		<stop offset="0" style="stop-color:#FFE7ED"/>
		<stop offset="0.52" style="stop-color:#FFC7DA"/>
		<stop offset="1" style="stop-color:#FFAECA"/>
	</linearGradient>
	<path class="st12" d="M841.1,573.8c-14.6-15.1-38.6-7.7,0.1-43.8c19.7-18.4,41.8,8.9,50.7,21.6c4.5,6.5,34.2,50.1,20.7,60
	c-7.6,5.5-27-6.6-31.8-9.1C866.2,595,852.3,585.5,841.1,573.8L841.1,573.8z"/>
	<linearGradient id="SVGID_14_" gradientUnits="userSpaceOnUse" x1="2423.6104" y1="1995.9384" x2="2480.9504" y2="1995.8784" gradientTransform="matrix(-0.29 1.2 0.91 0.22 -247.26 -2788.3501)">
		<stop offset="0" style="stop-color:#FFE7ED"/>
		<stop offset="0.52" style="stop-color:#FFC7DA"/>
		<stop offset="1" style="stop-color:#FFAECA"/>
	</linearGradient>
	<path class="st13" d="M831.2,617.7c-20.2-5-41.2-3.9-24.7-46c18-45.9,46.9-17.8,57.7-6.4c26.8,28,51.2,38.6,47.1,45.9
	c-4.6,8.3-26.2,9-31.5,9.4C863.4,622.1,846.8,621.5,831.2,617.7z"/>
	<radialGradient id="SVGID_15_" cx="516.56" cy="354.62" r="166.2" gradientTransform="matrix(1 0 0 -1 0 978)" gradientUnits="userSpaceOnUse">
		<stop offset="0" style="stop-color:#A6692B"/>
		<stop offset="0.32" style="stop-color:#895224"/>
		<stop offset="0.67" style="stop-color:#66371B"/>
	</radialGradient>
	<circle class="st14" cx="469.3" cy="692.8" r="99.2"/>
	<linearGradient id="SVGID_16_" gradientUnits="userSpaceOnUse" x1="416.832" y1="325.712" x2="573.7136" y2="325.712" gradientTransform="matrix(1 0 0 -1 -0.51 977.49)">
		<stop offset="0" style="stop-color:#F0C17F"/>
		<stop offset="0.57" style="stop-color:#F9D4A6"/>
		<stop offset="1" style="stop-color:#FFE1BF"/>
	</linearGradient>
	<path class="st15" d="M416.3,604c-0.3,24.4,8.4,50.9,24.4,69.4c25.1,28.9,68.6,36.2,104.3,27c8.8-2.3,17.8-5.3,25.7-9.8
	c5.6-3.2,0.8-12-4.8-8.8c-17.9,10.3-40.9,13.9-61.2,11.9c-19.2-1.9-39.3-9.6-53-23.3c-11-11-17.9-25.3-21.7-40.3
	c-2.3-8.4-3.5-17.1-3.6-25.8C426.4,597.9,416.4,597.6,416.3,604L416.3,604z"/>
	<linearGradient id="SVGID_17_" gradientUnits="userSpaceOnUse" x1="445.1856" y1="345.0001" x2="566.6664" y2="345.0001" gradientTransform="matrix(1 0 0 -1 -0.51 977.49)">
		<stop offset="0" style="stop-color:#F0C17F"/>
		<stop offset="0.57" style="stop-color:#F9D4A6"/>
		<stop offset="1" style="stop-color:#FFE1BF"/>
	</linearGradient>
	<path class="st16" d="M445,595.4c-2.1,19.2,7.6,39.8,21.1,52.8c20.9,20.3,55.5,33.1,83.7,21.7c5.3-2.2,11-5.2,15-9.4
	c4.4-4.7-2.5-11.9-6.9-7.2c-8.2,8.7-23.6,11.8-36.1,10.6c-28.2-2.6-57.5-22.3-64.9-50.5c-1.5-5.7-2.5-11.9-1.8-17.8
	C455.7,589.3,445.7,589,445,595.4L445,595.4z"/>
	<linearGradient id="SVGID_18_" gradientUnits="userSpaceOnUse" x1="479.9926" y1="363.4719" x2="549.9933" y2="363.4719" gradientTransform="matrix(1 0 0 -1 -0.51 977.49)">
		<stop offset="0" style="stop-color:#F0C17F"/>
		<stop offset="0.57" style="stop-color:#F9D4A6"/>
		<stop offset="1" style="stop-color:#FFE1BF"/>
	</linearGradient>
	<path class="st17" d="M479.6,596c4.5,27.3,42.7,55,68.1,35.8c5.1-3.9-1.8-11.1-6.9-7.2c2-1.5-1,0.5-1.8,0.9
	c-2.2,1.1-4.7,1.8-7.1,2.1c-9.2,1.2-18.3-2.7-25.6-8c-8.1-6-15.3-15.7-17-25.9C488.3,587.3,478.5,589.6,479.6,596L479.6,596z"/>
	<linearGradient id="SVGID_19_" gradientUnits="userSpaceOnUse" x1="389.8598" y1="295.578" x2="570.25" y2="295.578" gradientTransform="matrix(1 0 0 -1 -0.51 977.49)">
		<stop offset="0" style="stop-color:#F0C17F"/>
		<stop offset="0.57" style="stop-color:#F9D4A6"/>
		<stop offset="1" style="stop-color:#FFE1BF"/>
	</linearGradient>
	<path class="st18" d="M389.4,626.3c0.2,29.1,10.3,60.8,29.1,83.1c29,34.5,76.8,38.7,117.7,26.8c10.6-3.1,21.3-6.9,31-12.2
	c5.6-3.1,0.8-11.8-4.8-8.8c-22.1,12.1-49.5,18.5-74.5,17c-21.2-1.2-42.1-9.2-57.2-24.4c-13.4-13.5-21.8-31.3-26.5-49.6
	c-2.7-10.3-4.7-21.1-4.8-31.7C399.3,620.2,389.3,619.8,389.4,626.3L389.4,626.3z"/>
	<radialGradient id="SVGID_20_" cx="720" cy="889.98" r="143.25" gradientTransform="matrix(1 0 0 -1 -0.51 977.49)" gradientUnits="userSpaceOnUse">
		<stop offset="0" style="stop-color:#A6692B"/>
		<stop offset="0.21" style="stop-color:#895523"/>
		<stop offset="0.65" style="stop-color:#40220E"/>
		<stop offset="0.67" style="stop-color:#3D200D"/>
	</radialGradient>
	<path class="st19" d="M803.3,153.3c-5.1,15.3-22.7,35.6-42.3,35.6s-33.9-25.4-28.8-35.6c8.8-17.6,15.9-35.6,35.6-35.6
	C799.9,117.7,809.5,134.6,803.3,153.3L803.3,153.3z"/>
	<radialGradient id="SVGID_21_" cx="844.09" cy="710.74" r="141.07" gradientTransform="matrix(1 0 0 -1 -0.51 977.49)" gradientUnits="userSpaceOnUse">
		<stop offset="0" style="stop-color:#A6692B"/>
		<stop offset="0.21" style="stop-color:#895523"/>
		<stop offset="0.65" style="stop-color:#40220E"/>
		<stop offset="0.67" style="stop-color:#3D200D"/>
	</radialGradient>
	<path class="st20" d="M926.8,338.7c-5.1,15.3-29.6,40.7-49.2,40.7s-33.9-25.4-28.8-35.6c8.8-17.6,22.8-49.1,42.5-49.1
	C923.4,294.7,933,320.1,926.8,338.7L926.8,338.7z"/>
	<radialGradient id="SVGID_22_" cx="1044.77" cy="894.57" r="129.13" gradientTransform="matrix(1 0 0 -1 -0.51 977.49)" gradientUnits="userSpaceOnUse">
		<stop offset="0" style="stop-color:#A6692B"/>
		<stop offset="0.21" style="stop-color:#895523"/>
		<stop offset="0.65" style="stop-color:#40220E"/>
		<stop offset="0.67" style="stop-color:#3D200D"/>
	</radialGradient>
	<path class="st21" d="M1138.1,137.1c-5.1,15.3-22.7,35.6-42.4,35.6s-33.9-25.4-28.8-35.6c8.8-17.6,15.9-35.6,35.6-35.6
	C1134.7,101.5,1144.3,118.5,1138.1,137.1z"/>
	<radialGradient id="SVGID_23_" cx="1060.09" cy="692.36" r="129.92" gradientTransform="matrix(1 0 0 -1 -0.51 977.49)" gradientUnits="userSpaceOnUse">
		<stop offset="0" style="stop-color:#A6692B"/>
		<stop offset="0.21" style="stop-color:#895523"/>
		<stop offset="0.65" style="stop-color:#40220E"/>
		<stop offset="0.67" style="stop-color:#3D200D"/>
	</radialGradient>
	<path class="st22" d="M1148.3,337c-5.1,15.3-22.7,35.6-42.3,35.6s-33.9-25.4-28.8-35.6c8.8-17.6,15.9-35.6,35.6-35.6
	C1144.9,301.5,1154.5,318.4,1148.3,337L1148.3,337z"/>
	<radialGradient id="SVGID_24_" cx="850.21" cy="1012.53" r="125.77" gradientTransform="matrix(1 0 0 -1 -0.51 977.49)" gradientUnits="userSpaceOnUse">
		<stop offset="0" style="stop-color:#A6692B"/>
		<stop offset="0.21" style="stop-color:#895523"/>
		<stop offset="0.65" style="stop-color:#40220E"/>
		<stop offset="0.67" style="stop-color:#3D200D"/>
	</radialGradient>
	<path class="st23" d="M861,0.6l-3,6c-5.1,10.2,24.5,47.4,44.1,47.4s33.9-35.6,39-50.8c0.3-0.9,0.5-1.7,0.7-2.6L861,0.6z"/>
	<linearGradient id="SVGID_25_" gradientUnits="userSpaceOnUse" x1="391.34" y1="968.4072" x2="425.3275" y2="968.4072" gradientTransform="matrix(1 0 0 -1 -0.51 977.49)">
		<stop offset="0" style="stop-color:#F0C17F"/>
		<stop offset="0.57" style="stop-color:#F9D4A6"/>
		<stop offset="1" style="stop-color:#FFE1BF"/>
	</linearGradient>
	<path class="st24" d="M420.4,4.6c-3.1-0.9-6-2.3-8.8-4h-20.8c1.5,1.6,3.1,3.1,4.8,4.6c5.8,5,12.9,9.9,20.4,12.1
	C424.3,19.7,428.7,7.1,420.4,4.6L420.4,4.6z"/>
	<linearGradient id="SVGID_26_" gradientUnits="userSpaceOnUse" x1="343.41" y1="955.1686" x2="394.8666" y2="955.1686" gradientTransform="matrix(1 0 0 -1 -0.51 977.49)">
		<stop offset="0" style="stop-color:#F0C17F"/>
		<stop offset="0.57" style="stop-color:#F9D4A6"/>
		<stop offset="1" style="stop-color:#FFE1BF"/>
	</linearGradient>
	<path class="st25" d="M391.4,31.7c-12.4-8-23.4-18.9-32.5-31.1h-16c4.1,6.2,8.7,12.1,13.6,17.7c8,9,17.2,18,27.4,24.5
	C391.2,47.5,398.7,36.4,391.4,31.7L391.4,31.7z"/>
	<linearGradient id="SVGID_27_" gradientUnits="userSpaceOnUse" x1="285.91" y1="947.034" x2="352.9032" y2="947.034" gradientTransform="matrix(1 0 0 -1 -0.51 977.49)">
		<stop offset="0" style="stop-color:#F0C17F"/>
		<stop offset="0.57" style="stop-color:#F9D4A6"/>
		<stop offset="1" style="stop-color:#FFE1BF"/>
	</linearGradient>
	<path class="st26" d="M349.5,48.1c-18.8-12.9-35.2-29-48.4-47.6h-15.7c6.8,10.5,14.5,20.3,23.1,29.3C318.6,40.5,329.8,51,342,59.2
	C349.2,64,356.6,52.9,349.5,48.1z"/>
	<radialGradient id="SVGID_28_" cx="1146.6801" cy="474.11" r="133.76" gradientTransform="matrix(1 0 0 -1 -0.51 977.49)" gradientUnits="userSpaceOnUse">
		<stop offset="0" style="stop-color:#A6692B"/>
		<stop offset="0.32" style="stop-color:#895224"/>
		<stop offset="0.67" style="stop-color:#66371B"/>
	</radialGradient>
	<path class="st27" d="M1192.8,489.3c-44.7,0-81,36.3-81,81s36.3,81,81,81V489.3z"/>
	<linearGradient id="SVGID_29_" gradientUnits="userSpaceOnUse" x1="1143.618" y1="471.1412" x2="1193" y2="471.1412" gradientTransform="matrix(1 0 0 -1 -0.51 977.49)">
		<stop offset="0" style="stop-color:#F0C17F"/>
		<stop offset="0.57" style="stop-color:#F9D4A6"/>
		<stop offset="1" style="stop-color:#FFE1BF"/>
	</linearGradient>
	<path class="st28" d="M1192.5,497.5c-4.6,5.4-11.7,8.1-18.6,9.1c-8.2,1.2-17.9-0.2-24.8-5.2c-4.3-3.1-8.5,3.9-4.3,7
	c12.5,8.9,34,9,47.6,0.1V497.5z"/>
	<linearGradient id="SVGID_30_" gradientUnits="userSpaceOnUse" x1="1124.0715" y1="443.7502" x2="1193.35" y2="443.7502" gradientTransform="matrix(1 0 0 -1 -0.51 977.49)">
		<stop offset="0" style="stop-color:#F0C17F"/>
		<stop offset="0.57" style="stop-color:#F9D4A6"/>
		<stop offset="1" style="stop-color:#FFE1BF"/>
	</linearGradient>
	<path class="st29" d="M1192.8,532.8c-16.3,7-35.8,7.8-51.1-1.1c-4.3-2.4-8.1-5.5-11.3-9.2c-3.3-4.1-9.2,1.5-6,5.6
	c9.8,12.3,27.4,18.6,42.7,18.3c8.8-0.2,17.4-1.8,25.6-4.9L1192.8,532.8z"/>
	<linearGradient id="SVGID_31_" gradientUnits="userSpaceOnUse" x1="1112.3101" y1="418.2238" x2="1193" y2="418.2238" gradientTransform="matrix(1 0 0 -1 -0.51 977.49)">
		<stop offset="0" style="stop-color:#F0C17F"/>
		<stop offset="0.57" style="stop-color:#F9D4A6"/>
		<stop offset="1" style="stop-color:#FFE1BF"/>
	</linearGradient>
	<path class="st30" d="M1192.5,563.7c-6.7,2.5-13.7,3.8-20.8,3.8c-12.7,0-25-4.3-35.8-10.7c-6.2-3.5-11.9-7.8-17-12.8
	c-3.7-3.8-9.6,1.8-6,5.6c13.9,14.3,34.3,24.5,54.1,26c8.6,0.6,17.2-0.5,25.3-3.1L1192.5,563.7z"/>
	<linearGradient id="SVGID_32_" gradientUnits="userSpaceOnUse" x1="1107.62" y1="387.1475" x2="1193.35" y2="387.1475" gradientTransform="matrix(1 0 0 -1 -0.51 977.49)">
		<stop offset="0" style="stop-color:#F0C17F"/>
		<stop offset="0.57" style="stop-color:#F9D4A6"/>
		<stop offset="1" style="stop-color:#FFE1BF"/>
	</linearGradient>
	<path class="st31" d="M1192.8,599.8c-4.5,1-9.1,1.5-13.6,1.5c-15.6,0-30.6-5.5-43.9-13.3c-7.6-4.3-14.7-9.5-21-15.5
	c-3.7-3.7-9.7,1.9-6,5.6c16.9,16.7,41,29.1,64.8,31.2c6.6,0.6,13.3,0.3,19.8-1V599.8z"/>
</svg>
