<svg id="baddaba9-f3f5-4b6c-b914-d88fc75431bf" data-name="Слой 1" xmlns="http://www.w3.org/2000/svg" viewBox="0 0 342.36 283.45"><title>казконд лого</title><path d="M1130.45,596.35c-2,10.33-7.73,17.61-18.12,20.12-11.13,2.68-20.36-1.16-27.59-9.85-2.18-2.61-4.64-3.58-7.93-2.72a24.83,24.83,0,0,1-17.53-1.62c-2-1-2.68-.23-2.82,1.53-.21,2.73-1.28,3.28-4.07,2.81-9.22-1.58-18.34-3.94-27.78-4.08a96.55,96.55,0,0,0-13.28.57c-1,.13-2,0-2.13,1.63-1.18,11.82-8.4,19-18.78,23.27-3.81,1.56-6.46,3.35-8.74,7.11-6.26,10.35-16.21,14.46-28.07,13.22-10.48-1.09-18.37-6.47-22.9-16.16-.85-1.82-2.09-2.37-3.72-2.89-10.2-3.27-17.88-9.28-21.32-19.83a11.82,11.82,0,0,1-.39-1.19c-1.06-5.37-1.07-5.21-6.7-5.64-11.62-.88-22.91,1.28-34.19,3.46-5.92,1.14-5.89,1.34-7.3-4.45-1-4.23-1-3.92-5.22-2.84-10.12,2.53-19.24,7.71-29.17,10.68s-19.38,2-27.3-5.67c-3.6-3.5-5.07-8.1-6.8-12.58V583c.82-3.11.81-6.41,2.24-9.4a3.45,3.45,0,0,0,0-2.78c-1.44-3.19-1.66-6.64-2.24-10v-8.88c1.17-1,.73-2.86,1.82-3.95,2.55,1.6,2.7,4.17,2.88,6.95a25.78,25.78,0,0,0,2.46-2c2-1.83,2.48-1.61,3.3,1.25-.69,3.25.69,6.06,2.08,8.75a18.79,18.79,0,0,1,.37,17.29c-2.78,6.16-1.92,12.45,2.39,16.37a13.58,13.58,0,0,0,12.71,3.08,49.25,49.25,0,0,0,17.21-6.95,6.66,6.66,0,0,1,3.5-1.39c4.55-.13,8.63-2,12.78-3.44a38.33,38.33,0,0,1,9.3-1.69c3.69-.35,4.86.63,6,4.2,1.22,3.91,1.27,4.15,5.22,3.33,9.48-2,19-2.12,28.66-1.93a58.36,58.36,0,0,1,13.74,2c2.8.74,3.61,2.17,3.31,4.9q-1.65,14.79,12.64,19.76a22.12,22.12,0,0,0,6.18,1.3c2.46.12,3.83,1.5,4.35,3.85,1.66,7.46,6.26,12.25,13.71,13.56,7.7,1.35,14.44-.73,19.17-7.51a16.82,16.82,0,0,0,2.44-6.13c.58-2.62,2.09-3.54,4.63-3.87,6.49-.82,12.18-3.36,16.23-8.76a13.26,13.26,0,0,0,2.4-11.08c-.87-4.23.22-5.81,4.59-6.53a107.08,107.08,0,0,1,39,.22c.62.12,1.25.2,1.88.3,3.87.63,3.9.61,5.06-3.19,1.68-5.46,5.31-6.45,9.7-2.59,1.9,1.66,3.59,3.56,6,4.52a14,14,0,0,0,10.5.36,11.45,11.45,0,0,1,8,.07c4.64,1.46,8.39,3.53,11.47,7.7a14.06,14.06,0,0,0,14.39,5.4c5.17-1,9.13-4,10.21-9.21,1.46-7.05,1.29-14-3.84-20-3.14-3.7-3.91-8.6-5.66-13-2.39-6-4.46-12.08-7.61-17.73-2.94-5.28-6.54-9.83-12.7-11.66a19.44,19.44,0,0,0-10.61-.3c-2.34.61-4.4.39-6.17-1.31-4.4-4.24-10-5.62-15.74-6.82-.62-.13-1.27-.08-1.89-.23-3.52-.82-4.14-2.7-1.53-5.28,2.43-2.39,4.75-4.75,5.55-8.24.76-3.29-.06-6.24-1.54-9.13-2.19-4.27-1.8-5.9,2.13-9.16,3.57-1.15,7.16-2.16,10.82-.3-2.62,4.55-1.14,9.07-.09,13.68.66,2.91-.1,5.88-.94,8.7-.43,1.46,0,2,1.26,2.63,2.08,1,4.07,2.18,6,3.36a4.21,4.21,0,0,0,2.69.63c15.84-1.52,26.15,6.29,33.22,19.64,3.84,7.26,6.28,15.09,9.25,22.71a26.16,26.16,0,0,0,3.8,7.17c3.11,3.87,4.36,8.56,5.08,13.39A53.1,53.1,0,0,1,1130.45,596.35Z" transform="translate(-788.6 -365.11)" fill="#ef8b2e"/><path d="M829.45,580.33" transform="translate(-788.6 -365.11)" fill="#0a0305"/><path d="M788.6,560.8" transform="translate(-788.6 -365.11)" fill="#0a0305"/><path d="M1130.45,596.35" transform="translate(-788.6 -365.11)" fill="#883704"/><path d="M1130.39,585.58a1.1,1.1,0,0,0,.57-.06" transform="translate(-788.6 -365.11)" fill="#883704"/><path d="M1008.64,411.2a5,5,0,0,1-2.55,1.9,6.7,6.7,0,0,0-3.81,1.88,15.59,15.59,0,0,1-7.53,1.95c-.71,0-1.85-.5-2,.88-.07.91-.21,1.82,1,2.38,4.57,2.16,8.87,4.82,13.26,7.32,1.75,1,4,.37,5.9.87,18.11,4.68,34.87,11.9,47.66,26.25a39.65,39.65,0,0,1,7.68,12.17c.56,2.12-.48,2.17-2,1.53a1.21,1.21,0,0,1-.62-.69c-2-5.44-6.91-4.52-11.14-5.1-1.87-.44-3-1.87-4.3-3.11-10.8-10.4-24-16.29-38.21-20.13a12.25,12.25,0,0,0-2.84-.24,17.35,17.35,0,0,1-9.43-3.14,85.11,85.11,0,0,0-15.41-8c-2.6-1.06-3.5-2.84-2.91-5.52,1.37-6.16-.08-11.67-3.7-16.75-.9-1.25-2.77-2.72-1-4.37,1.53-1.47,3.56-.87,5.36,0a13,13,0,0,1,2.33,1.64c4.38,3.4,9.1,4.19,14.26,2a8.28,8.28,0,0,1,2.45-.64c2.83-.29,5.45,1.63,8.49.55,1.4-.49,2.28.91,1.46,2.42S1009.48,409.89,1008.64,411.2Z" transform="translate(-788.6 -365.11)" fill="#f9d253"/><path d="M1008.64,411.2c.12-1.9.07-3.85,2-5l-.46-.62c-3,2.76-5.81-.31-8.71-.23-.36-1.45.6-2.35,1.4-3.33,6.39-7.91,3.37-18.26-6.15-21.79a58,58,0,0,0-25.42-3.85,29.78,29.78,0,0,0-18.12,8.11c-1.59,1.47-2.69,3.6-5.08,4.1-2.31-1.65-.71-3,.37-4.36,1.53-1.91,3.93-3.11,4.71-5.59a13.58,13.58,0,0,0-7,3.13c-1.53,1.27-3,.62-4.14-1.11,4.25-6.43,10.51-10.15,17.53-12.66,12-4.29,24-3.52,35.9.4,6,2,11.86,4.09,16.18,9.22C1020,387.64,1018.73,403.47,1008.64,411.2Z" transform="translate(-788.6 -365.11)" fill="#fbe360"/><path d="M845.72,497.4l.44-.68a1.21,1.21,0,0,1,1.46-.14c3.28,2,5.13,7.56,3.63,11.19-.37.89,0,1.31.43,1.92.66.95,1,2.08,1.59,3.07,1.46,4,4.64,6.74,7.56,9.63s3,3.45.2,6.4a7.2,7.2,0,0,0-.64.71c-2.78,3.73-3.7,5.09-9.17,2.12-4.42-2.39-9.06-1.08-13.58.18-1.89.53-3.67,1.76-5.8,1a39.83,39.83,0,0,0-4.71-3.66c-1.54-1.13-2.25-2.51-1.12-4.35a49.6,49.6,0,0,1,17.74-5.37c.44-1.17-.67-2-.49-3.06-.92-3.17.12-6.37-.17-9.57a6.13,6.13,0,0,1,1.8-5.51C846.12,500.24,845.48,498.71,845.72,497.4Z" transform="translate(-788.6 -365.11)" fill="#f2a232"/><path d="M890,430.71c.19-.58.71-.63,1.19-.77a3.88,3.88,0,0,1,3.45,1,3.25,3.25,0,0,0,3.47.88c1.15-.32,2.4-.38,3,1s-.27,2.2-1.2,2.95a6.52,6.52,0,0,0-1.6,1.5c-4.28,3.7-8.42,7.48-14,9.45-4.06,1.45-7.3,4.52-10.43,7.5s-6.08,6.1-9.18,9.1c-1,1-2,2.25-3.75,1.85-.59-.9-.46-2.24-2.34-3a7.1,7.1,0,0,1,2.44,3.1,11.79,11.79,0,0,1-5.85,8.84c-1.77-1.66-.73-3.29.17-4.81,1-1.67,1.91-3-1.22-3.21-1.67-.08-2.25-1.28-1.18-2.63.91-1.14.24-2.2.28-3.29,8.38-10,17.2-19.58,29.65-24.69,1.72-.71,2.76-2.24,4.46-2.83A2.8,2.8,0,0,0,890,430.71Z" transform="translate(-788.6 -365.11)" fill="#f7c048"/><path d="M826,524.81c-.09,2.06,1.15,3.22,2.81,4.05,1.46.74,2.74,1.59,2.9,3.42l-.23.38c-1.54,1.13-3.16.73-4.89.06-.23,2.46-1.42,3.72-3.88,3.71a5.92,5.92,0,0,0-3.74,1.46,33.94,33.94,0,0,1-5.47,2.36,21.85,21.85,0,0,0-13.14,11.43c-.45.93-.63,2.36-2.27,2.11-.22-.43-.26-2.12-.92-.75-1.13,2.34-3.41,2.55-5.38,3.92,1.61-3.43-1.09-6-1.38-9,2.43-7.35,7.7-12.15,14.3-15.64a52.46,52.46,0,0,1,15.07-5.41A25.94,25.94,0,0,0,826,524.81Z" transform="translate(-788.6 -365.11)" fill="#f1992c"/><path d="M897.65,436.5c0-.1.05-.2.09-.3.51-1.38,3.38-1.31,2.63-3-.87-1.91-2.16.63-3.33.45a5.67,5.67,0,0,1-2.29-.88c-1.25-.87-2.39-1.9-3.57-2.87A42.86,42.86,0,0,1,913,422a6.45,6.45,0,0,0,6.18-6.34,15.24,15.24,0,0,1,1.29-6.36c1.56-.78,2.34-2.38,3.62-3.44,2.26-1.86,4.31-1.18,4.75,1.71.34,2.19.72,4.22-.08,6.68-.87,2.67-1.11,6,.78,8.83.31,1.34-.49,2.17-1.38,2.94-.64.56-1.46.86-2.09,1.39a26,26,0,0,1-16.33,6.13c-2.7.1-5.2,1.51-7.68,2.68C900.64,436.81,899.2,437.82,897.65,436.5Z" transform="translate(-788.6 -365.11)" fill="#f9ca4e"/><path d="M853.27,460.19c3.2,1.26,3.2,1.72,0,4.73.42.59.92.3,1.36.09,1.16-.55,2.18-.72,3,.56a2.48,2.48,0,0,1-.28,3.19c-1.32,1.56-2.49,3.14-2.05,5.36,1.21,1.16.73,2.59.46,3.89-1.16,5.62-.53,10.88,2.81,15.71,1.46,2.11,1.43,4.11-.7,5.87a12.51,12.51,0,0,0-4.56,10.34c0,1.27,0,2.57-1.35,3.32-.92-1-.32-2.94-2.21-3.58-1-.34-.72-1.49.06-2,2.45-1.71,1.65-3.76.37-5.49s-2.12-4-4-5.42a3.37,3.37,0,0,0,0-3.26C841.63,480.91,844.93,470,853.27,460.19Z" transform="translate(-788.6 -365.11)" fill="#f4af3c"/><path d="M928.76,423.19c-1.4-.33-1.5-1.5-1.27-2.49.65-2.94-1.42-6,1-9.06.73-.92-.76-3.63-1.18-5.52-.27-1.22-1.89-.37-2.45.52a11.74,11.74,0,0,1-3.54,3.48c-1.13.77-.61-.53-.87-.87a29.19,29.19,0,0,1,12.41-17,14.7,14.7,0,0,0,6-6.9,11.51,11.51,0,0,1,3.14-4.65c2.2,1.08,4,.93,5.32-1.45.34-.62,1.18-1.63,1.45-1.53,2.51.94,4.17.49,4.76-2.35a1.42,1.42,0,0,1,.87,0c.59.31.25.82.27,1.32.17,4.1-2.81,6.19-5.4,8.47a3.46,3.46,0,0,0-1.49,3.24c.84,3.79-1.6,8.67-5.44,10.71-6.28,3.35-10.68,8.14-12,15.34a38.63,38.63,0,0,0-.26,5.37C930,421.07,930,422.37,928.76,423.19Z" transform="translate(-788.6 -365.11)" fill="#fad858"/><path d="M1054.76,462.13c1-1.17,2.23-.8,3.5-.51s2.43.94,3.69.5c1.7-.61,2.46-.34,2.53,1.69.06,1.76,2.66,2.18,2.74,4.19a2.6,2.6,0,0,0,1-1.2c4.23,8.71,5.11,17.65,1.8,26.87-3.44.94-7.07.08-10.49,1.12a2.44,2.44,0,0,1-.33-2.67c2.79-6.54,2.11-13.09.14-19.65.46-2.42-.29-5,1.23-7.3.13-.37-.24-.32-.26-.25-.67,2.76-2.44,1.23-3.9,1C1055.06,465,1054,464,1054.76,462.13Z" transform="translate(-788.6 -365.11)" fill="#f8c64c"/><path d="M845.72,497.4c1.6,1.86,1.65,3.6-.57,5a2.69,2.69,0,0,0-1.35,3.22c1.24,3.28-1.46,6.42-.15,9.65.11.28-.25.75-.39,1.14C841.38,509.7,842,503.34,845.72,497.4Z" transform="translate(-788.6 -365.11)" fill="#f4af3c"/><path d="M1002.28,415c.88-1.79,1.64-2.17,3.81-1.88A7.31,7.31,0,0,1,1002.28,415Z" transform="translate(-788.6 -365.11)" fill="#fbe360"/><path d="M890,430.71c0,1.84-.47,3-2.61,2A5.64,5.64,0,0,1,890,430.71Z" transform="translate(-788.6 -365.11)" fill="#f9ca4e"/><path d="M1054.76,462.13c.16,1.29,1.23,2,1.9,3,3.19,1.28,3.27,4.29,3.9,7,2.73,7.7,2.65,15.27-1,22.69a8,8,0,0,1-.92,1.28c-2.33,2.12-2.18,3.88-.29,6.59,3.67,5.27,2.45,12.08-2.31,17l-4,4.07c3.32,1.17,6.7,1.09,9.85,2.1,4.49,1.44,8.76,3.11,11.93,6.78a2.14,2.14,0,0,0,2.77.68c9.14-3.71,19,1.28,23.66,7.88,4.74,6.77,7.25,14.48,10.29,22,2.11,5.23,3.5,10.68,7.27,15.28,4.25,5.2,4.8,19.75-1.31,25.08a16.45,16.45,0,0,1-24.56-3.41,12.25,12.25,0,0,0-6.87-5c-3.8-1.32-7.19-2.13-11.47-.62-5.9,2.08-11.39-.27-15.74-4.82a19.56,19.56,0,0,0-1.47-1.66c-2.78-2.34-5.4-1.6-6.35,1.76-1.83,6.47-1.83,6.46-8.81,5a98.32,98.32,0,0,0-40.21.18c-1.38.28-2.62.28-2.23,2.47,2,11-2.5,18.48-13.15,22.19-2.81,1-6.26.53-8.52,1.86s-1.56,5.32-3,7.91c-3.94,6.91-12.15,10.63-21,9.26A18,18,0,0,1,938.27,624c-.36-2.35-1.52-2.75-3.57-2.91-9.94-.81-17.78-6.94-20.06-15.29a12.67,12.67,0,0,1,.5-7.76c.65-1.83,0-2.51-1.65-2.86a99.76,99.76,0,0,0-36.17-1.1c-3.12.48-6.23,1.06-9.33,1.68-1.77.35-2.69-.12-3.17-2-1.63-6.31-1.69-6.11-8-5.92-3.95.13-7.28,2-10.91,3-2.74.76-5.34,2-8.29,1.72a3.32,3.32,0,0,0-2.33.85c-5.46,4-11.75,6.23-18.26,7.61-6.31,1.34-12.12,0-16-5.58-3.67-5.29-3-10.77-.42-16.48a15.69,15.69,0,0,0-.26-14.47c-1.71-3.25-3.8-6.64-2.22-10.67,2.89-9.23,10.15-13.43,18.63-16.25.58-.19,1.13-.48,1.7-.72,4.68-.77,8.85-3,13.29-4.54h0c3.4-.68,6.5-2.35,10-2.91,4.67-.74,9.06-.36,13,2.5,1.21.88,1.92,1,2.7-.45a16.69,16.69,0,0,1,2.24-3.06c2.65-2.93,2.7-3-.41-5.67s-5.76-5.58-7.24-9.44c-.39-6.16.35-11.85,6.31-15.43,1.06-.65.44-1.47-.07-2.15-5-6.64-5.46-13.89-2.9-21.55l5.67-9h0c5-4.82,9.61-10,15-14.45A38,38,0,0,1,887,444.22c4.2-1.55,7-5.21,10.64-7.72,3.1-1.25,6.19-2.53,9.31-3.74a6.81,6.81,0,0,1,3-.77c7.31.93,12.16-4,17.74-7.24.58-.33,1.54-.48,1-1.56,0-1.05.1-2.11,0-3.15-.84-9.43,3.24-16.46,11.16-21a13.14,13.14,0,0,0,6.62-7.77c.32-1,.8-1.94,1.21-2.91,9.37-12.66,22.4-14.94,36.89-12.94,4.39.6,8.55,2.19,12.71,3.63,10.87,3.77,13.71,16.48,5.61,24.68-.52.52-1,1.07-1.51,1.6-1.28.47-2.54,1-3.85,1.39-5.47,1.55-10.49.64-14.68-3.29a6.47,6.47,0,0,0-6-1.71c-.37,1,.42,1.41.87,1.92a20.84,20.84,0,0,1,4.86,19.4c-.46,2,.06,2.71,1.81,3.44a106,106,0,0,1,18.9,10.13,4,4,0,0,0,2,.82c11.6.13,21.49,5.32,31.46,10.4C1043.8,451.4,1049.42,456.56,1054.76,462.13Z" transform="translate(-788.6 -365.11)" fill="#fdfdfd"/><path d="M861,465.16c-.43-.3-.84-.83-1.28-.85-1.09-.06-2.32.1-2.39-1.36s.92-2.32,1.86-3.16c.52-.46,1.54-.34,1.34.45-.44,1.76,1.13,3.22.47,4.91Z" transform="translate(-788.6 -365.11)" fill="#f4af3c"/><path d="M893.27,434.23c.81,0,1.11.46,1.08,1.16a1.38,1.38,0,0,1-1.22,1.52c-.79.09-1.09-.45-1.07-1.15A1.44,1.44,0,0,1,893.27,434.23Z" transform="translate(-788.6 -365.11)" fill="#f9ca4e"/><path d="M831.72,532.28c-3.88,3.13-8.56,3.91-13.29,4.54,1.4-1.41,3.24-1.23,5-1.47,1.45-.2,2.9-.7,1.46-2.63-.49-.65-.82-1.29,0-1.91a1.34,1.34,0,0,1,2,.2C828.16,532.82,830,532.3,831.72,532.28Z" transform="translate(-788.6 -365.11)" fill="#f2a232"/><path d="M1060.56,472.1l-3.9-7a5.06,5.06,0,0,0,5-.71A18.72,18.72,0,0,0,1060.56,472.1Z" transform="translate(-788.6 -365.11)" fill="#f9d253"/><path d="M973,488.47c-20,.06-33.91-10.61-45.21-25.76-2.63-3.52-3.69-7.8-4-12.14-.4-5.43,1-10.52,5.58-13.74a37.09,37.09,0,0,1,30.59-6c.93.2,2.16.41,2.26,1.4.15,1.5-1.46,1.2-2.32,1.51-7.18,2.56-8.46,8.84-2.58,13.75,4.39,3.65,9.7,5.88,14.58,8.79,5.88,3.5,11.8,7,17.14,11.28a20.36,20.36,0,0,1,5.26,5.83c2.57,4.6,1.53,8.89-2.88,11.76-4,2.59-8.52,2.9-13,3.31C976.56,488.61,974.75,488.47,973,488.47Z" transform="translate(-788.6 -365.11)" fill="#79241d"/><path d="M1031.42,523.38c1.28-2.18,2.58-4.33,3.83-6.53.51-.9,1.16-2,.28-2.91s-1.85-.7-3-.38a20.73,20.73,0,0,0-7,4.11c-.61.49-.93,1.5-2.17,1.15,1.4-2.71,2.89-5.53,0-8.15-2.12-1.95-5.3-1.37-8.94,1.3-1.15.85-2,2.16-4,2.65,1.79-3.25,1.83-6.07-1.4-8-2.72-1.64-7.24-.6-9.74,2.28-1.68,2-3.15,4.11-5,6.15.43-4.32,1.35-8.87-4.06-10.53-5-1.56-8.12,1.42-10.62,6.07-.88-4.16-.89-8.57-6-8.76s-6.46,3.82-7.92,8.07c-1.24-2.5-2-4.87-3.4-6.71-5-6.5-6-6.85-11.31-.05-1.43,1.83-2,4.1-3,6.55-2.25-3.89-3.69-8.77-9.25-7.7-3.86.74-4.62,4.17-4.59,8.92-3.19-5.57-6.75-9-12.46-5.8-4,2.22-3.47,6.06-2.56,10.17-2-1.46-2.76-3.35-4-4.86-1.77-2.16-3.68-4.07-6.62-4.52-4.32-.64-7.14,2.06-6.67,6.43.07.6.12,1.2.25,2.41-3.49-3.28-6.51-6.76-11.44-4.55-2.06.92-2,1.26-1.47,9.4a16.38,16.38,0,0,0-8.06-5.94c-1-.32-2.1-.81-2.94.11s-.36,2.23.2,3.22c1.46,2.57,3,5.06,4.53,7.62a9.54,9.54,0,0,1,1.13,3.19,110.4,110.4,0,0,0-18.46-18.52,1.75,1.75,0,0,1-.84-1.91c.35-1.06,1.34-1.27,2.28-1.4,3.64-.53,7.18.36,10.62,1.21,2.86.71,4.67,0,6.24-2.25.73-1,1.56-2,2.29-3a2.15,2.15,0,0,1,3.25-.65c4.75,2.69,8.89,1.73,12.38-2.29,1.12-1.29,2.43-1.11,3.77-.8s2.83.82,4.23,1.27c3.73,1.19,7.11.61,9.94-2.16,1.84-1.81,3.54-2,5.91-.74,5.52,2.83,8.07,2.21,12.63-2.63.8-.86,1.32-.68,2.08-.16a25.63,25.63,0,0,0,3.17,2.06c4.25,2.07,7.64,1.46,10.73-2.07,1.48-1.69,2.56-2.15,4.29-.25,3.86,4.21,7.81,4.7,12.64,1.53,2.05-1.35,3.32-1.9,5.09.57,2.17,3,6.29,3.58,10.65,1.33,2.93-1.51,4.92-1.22,7.2,1,2.58,2.54,5.93,2.78,9.14,1.49,4-1.62,7.4-2.16,10.74,1.68,2.14,2.46,5.49,2,8.23.56s4.59-1,5.89,1.73c2.37,4.87,6.36,4.27,10.56,3.29,2.55-.6,5.12-1.29,7.79-.54,2,.55,2.48,1.46.87,3L1032,524C1031.45,524.11,1031.1,524.05,1031.42,523.38Z" transform="translate(-788.6 -365.11)" fill="#78251e"/><path d="M1025.19,478.88a18.06,18.06,0,0,1-1.8,7.92,8.58,8.58,0,0,1-8.53,5.36,39.67,39.67,0,0,1-14.46-2.94c-3-1.23-3.13-2.15-1.09-4.53,3-3.44,3.13-7.88.55-12.31-2.77-4.75-7.39-7.42-11.71-10.4-7.54-5.2-15.64-9.55-22.9-15.16-2.79-2.16-5.56-4.51-4.4-8.59.85-3,5-4.84,9.61-4.56a27.48,27.48,0,0,1,8.56,2.05,109.83,109.83,0,0,1,38.83,26.51C1022.23,466.83,1025.23,472.24,1025.19,478.88Z" transform="translate(-788.6 -365.11)" fill="#79241d"/><path d="M932.24,487.3c-8.78-.16-17.45-1.05-25.58-4.71-8.88-4-14.1-12-13.56-20.86.43-7.09,4.85-11.68,10.37-15.36a24.33,24.33,0,0,1,10.43-4.27c3.67-.45,4.53.14,4.11,3.8-1.11,9.54,1.79,17.66,8.18,24.67a64.75,64.75,0,0,0,14.14,11.56c.72.44,1.46.85,2.16,1.31s2,1,1.81,1.95-1.54,1.17-2.59,1.33A51.72,51.72,0,0,1,932.24,487.3Z" transform="translate(-788.6 -365.11)" fill="#79241d"/><path d="M1049.88,556.35c-2.21-2.44-5.29-2-8.11-2.37a1.18,1.18,0,0,0-1.28,1.15c0,3-1,6.15,1.59,8.66,1,1,1.85,2.16,1.18,3.62s-2.08,1.57-3.51,1.59a28.65,28.65,0,0,1-13.08-2.86c-2.76-1.34-3-3.11-.91-4.7,2.15.27,2.75-.26,2.39-2.1,0-6.23,0-12.46.15-18.69a6.19,6.19,0,0,0-2.33-5.23c0-.35.06-.69.11-1,.51-2,1.89-2.84,3.93-2.75,1.35.06,2.7-.06,4,.08,2.56.54,5.09,1.16,7.65,1.67,3.15,2.23,3.16,3.06.11,5.44-2.27,1.76-1.41,4.25-1.36,6.45,0,1.87,1.72,2.12,3.24,2.32,1.35.18,2.69.41,4,.62.59.72,1.39,1.22,2.12.44,1.07-1.16.62-2.51,0-3.77a5.81,5.81,0,0,0-2.22-5.57,2.37,2.37,0,0,1-.94-2.51.85.85,0,0,1,.69-.43c3.09-1.06,6.2-1.5,9.35-.23,1.15,1.1,2.57.53,3.85.55a5.63,5.63,0,0,1,4.33,2.2c1.12,1.3,1.3,2.94-.49,3.68s-2.22,2.12-2.26,3.72c-.12,6.22-.17,12.45-.2,18.68a4.08,4.08,0,0,0,2,3.41,2.63,2.63,0,0,1,1.08,3,2.38,2.38,0,0,1-2.4,1.74,27.1,27.1,0,0,1-14.58-3.18,2.61,2.61,0,0,1-1.43-2.92c2.2-1.53,4.2-3.18,3.8-6.28C1050.05,559.33,1050.31,557.8,1049.88,556.35Z" transform="translate(-788.6 -365.11)" fill="#79241e"/><path d="M975.52,528c.85,2.72-.29,4-3,4-3.88,0-5.91,2.82-8.15,5.27-1.37,1.49-1,3.18.27,4.55,5,5.22,8.83,11.53,15.08,15.56,2.3,1.49,1.85,4.32-.84,5-4.22,1-8.58.5-12.87.29-.71,0-1.42-1.15-2-1.85-2.21-2.54-4.35-5.15-6.59-7.66-.86-1-1.93-2.62-3.32-1.47s-1,3.09-.36,4.68c.24.63,1,1.06,1.49,1.6,2.16,2.33,1.65,4.15-1.49,4.9a40.13,40.13,0,0,1-13.52.4,3.28,3.28,0,0,1-3.14-2.27c-.27-1.08-.07-2.16,1.47-2.17,1.15-.27,1.3-1.41,1.88-2.17.34-2.64,1.28-5.24.46-7.94-.24-5.21.38-10.51-1.48-15.57-.16-.45-.35-.89-.54-1.32-.66-2.13.59-3.2,2.28-3.86a16.41,16.41,0,0,1,5.87-1.06c1.06,0,2.26.75,3.25-.32a2.1,2.1,0,0,1,2,0c3.52,1,4.06,2.52,2,5.28a5.84,5.84,0,0,0-1.05,1.52c-.56,1.7-1.26,4.11.05,5,1.75,1.22,2.56-1.38,3.75-2.38,2.43-2,1.93-4.74,1.59-7.39a1.14,1.14,0,0,1,.76-.42c4.33-1.77,8.82-1.83,13.36-1.18A26.07,26.07,0,0,1,975.52,528Z" transform="translate(-788.6 -365.11)" fill="#78251d"/><path d="M828.13,546.69c1.12,1.46.53,2.79-.36,4a9.2,9.2,0,0,0-1.7,5.64c0,.62-.06,1.37.62,1.67s1.24-.31,1.52-.81c1.71-3,4.82-5.39,3.54-9.56-.47-1.54.52-2.82,1.87-3.69a35.37,35.37,0,0,1,11.7-4.55,2.21,2.21,0,0,1,2.82,1.43,2.86,2.86,0,0,1-1.92,3.81c-3.92,1.23-6.09,4.26-8.31,7.39-1.83,2.57-2,4.59.69,6.7,3,2.32,5.77,4.94,8.64,7.43a7.38,7.38,0,0,0,3.55,1.91c1,.19,2.18.45,1.92,2a.86.86,0,0,1,0,1.06c.12,1.41-.89,2.15-1.89,2.66a69.19,69.19,0,0,1-11.21,4.08c-1.27.4-2.17-.41-3.05-1.23-1.83-1.73-3.65-3.49-5.6-5.09-1-.79-2.21-2.3-3.46-.71a3.8,3.8,0,0,0,0,5.18c3,3.21,2.85,4.53-1,6.62a41.16,41.16,0,0,1-10.9,4c-1.36.29-3.2,1.14-4-1.08.17-.23.35-.46.51-.69a13.09,13.09,0,0,0,3.19-5.72c0-.25.2-.39,0-.42s-.18.08-.28.12a.73.73,0,0,1-.85-.39,80.37,80.37,0,0,0,.46-17.4c-.09-1.48-.17-2.94-1.23-4.11a6.77,6.77,0,0,1-.26-3.28c.33-1.75,1.75-2.52,3.08-3.36A25.79,25.79,0,0,1,828.13,546.69Z" transform="translate(-788.6 -365.11)" fill="#79241d"/><path d="M996,527.92c12.16-1.59,20.71,3.13,24.7,13.66,4.42,11.67-2.81,22.85-15.25,23.69-15.29,1-24.79-11.79-22.76-22.41a11.65,11.65,0,0,0,0-2.21c2-.68,2-2.8,2.82-4.25a15.65,15.65,0,0,1,9-7.36A2,2,0,0,0,996,527.92Z" transform="translate(-788.6 -365.11)" fill="#79241d"/><path d="M1072.56,567.13c.28-2.68,2.08-4.68,3.13-7,1.39-3.1,3.16-6,4-9.37a7.29,7.29,0,0,0,1.19-3.53c.22-3.7,1.53-4.6,5-3.62.4.11.83.15,1.23.26,2,.27,2.91,1.87,3.92,3.32,4.2,6,6.13,13.09,8.82,19.81,1.36,3.41,2.55,6.89,3.86,10.33.48,1.28.83,2.75,2,3.54,3,2.08,3.18,5.28,3.41,8.42.11,1.46,0,3.14-1.62,3.77-1.49.56-2.89-.19-4-1.17a4.23,4.23,0,0,1-1.35-1.72c-1.6-4.65-5.53-6.34-9.68-7.73-4.78-1.59-9.59-3.1-14.37-4.71a3.31,3.31,0,0,0-3.77.74c-1.55,1.59-3.3,2.87-5.57,1.68s-2.76-3.55-2.54-6c0-.42.1-.84.15-1.26.46-.67.34-1.71,1.33-2C1069.94,570.43,1071.9,569.63,1072.56,567.13Z" transform="translate(-788.6 -365.11)" fill="#78251d"/><path d="M852.69,571.13l0-1.06,1.08-.3c2.84.22,4.18-1.29,4.56-3.93,2.63-7,6.08-13.68,8.33-20.84,1-.55,1.13-1.56,1.34-2.53.63-3.25.32-7,4.47-8.38a3.31,3.31,0,0,0,1.78-1.1c3.24-.21,5.25,1.77,6.88,4.13,4.37,6.34,7.5,13.38,11.06,20.17,1,1.86,1.63,3.83,4.23,4.2,1.61.23,1.32,1.64.84,2.78a4.24,4.24,0,0,1-2.63,2.15,43.62,43.62,0,0,1-15.75,2.74c-1,0-2.15-.09-2.6-1.35a2.34,2.34,0,0,1,1.24-2.93c1-.65,2.13-1.24,1.5-2.66-.53-1.22-1.77-1-2.8-.9a50.22,50.22,0,0,0-8.7,1.39,2.6,2.6,0,0,0-2,2.19c-.33,1.39.81,1.39,1.67,1.76,1.9.81,1.76,2.17.65,3.54-1.74,2.14-11.09,3.92-13.5,2.73C853.52,572.52,853.37,571.61,852.69,571.13Z" transform="translate(-788.6 -365.11)" fill="#79241d"/><path d="M914.81,527.9c4.4-.34,8.81-.89,13,1.1s6.35,5.6,5.25,9.61c-.71,2.61-3.07,3.82-4.89,5.38a2,2,0,0,0,1.59,1.15c5.75,1.59,6.86,9.37,2.7,13.76-6.55,6.92-22.41,8.67-30.29,3.25a8.3,8.3,0,0,1-2.93-3.24c.48-1.84-.64-4,1-5.62.31,0,.77-.16.9,0,4.25,4.86,9.87,4.74,15.57,4.33a1.11,1.11,0,0,1,.1.29,1.24,1.24,0,0,1,0,.27c2.62-.59,3.68-2.26,3.59-5.59-.32-3.36-2.95-3.5-5.32-3.5s-5.15.22-5.18-2.91c0-2.94,2.49-3.76,5.19-3.67.73,0,1.46-.06,2.19-.09.8-.7,1.65.18,2.46-.09,1-.31,2-.75,2.09-2,0-.12-.05-.25-.07-.37.06-4.21-3.31-5.49-6.38-5a10.34,10.34,0,0,0-6.44,3.63c-.94,1.13-1.85,2.28-2.81,3.4s-2.46,2.1-4.16,1.52a3.4,3.4,0,0,1-2.46-3.62,17.85,17.85,0,0,0,.38-2,9.46,9.46,0,0,1,4.93-6.78c.71-.51,1.62-.19,2.37-.56l1.14-.25c3.46-.32,6.75-1.77,10.9-1.27C917.39,528.2,915.67,530.32,914.81,527.9Z" transform="translate(-788.6 -365.11)" fill="#79241e"/><path d="M1007.55,448.38c8,.82,15.13,3.88,22,7.47,5.53,2.87,10.74,6.22,14.85,11a27.86,27.86,0,0,1,4.39,6.9c4.5,10.17-1.38,19.77-12.54,20.42a15.13,15.13,0,0,1-6.27-.53c-1.4-.52-2.07-1.29-1.39-2.88,6.22-14.61-.58-25.14-11-34.43C1014.46,453.51,1010.93,451,1007.55,448.38Z" transform="translate(-788.6 -365.11)" fill="#79241d"/><path d="M886.68,492.05c-5.2-.08-10.3-.6-14.86-3.43-5.4-3.34-6.79-8.12-3.35-13.41,5.29-8.15,12.53-14.43,20.36-20,.79-.56,1.92-1.47,2.85-.61s-.23,1.76-.6,2.52a25.54,25.54,0,0,0-1.73,17.8C890.89,481.4,895,485,901.46,486a5.68,5.68,0,0,1,1.52.4c.53.23,1.43-.08,1.56.73s-.67,1.2-1.3,1.57c-3.36,1.94-7.14,2.37-10.88,2.91C890.49,491.92,888.58,491.92,886.68,492.05Z" transform="translate(-788.6 -365.11)" fill="#79241d"/><path d="M959.31,405.4a11,11,0,0,1,6,1.77c3.49,2,6,4.75,6,9s-2.48,7.09-6,8.94c-6.28,3.25-12.63,3.19-18.61-.61-6.85-4.35-6.88-11.91-.28-16.61a12.13,12.13,0,0,1,5.77-2.4c2.46-.25,4.41-.93,4.51-3.86,1.39-.66,1.55.24,1.59,1.26S958,405,959.31,405.4Z" transform="translate(-788.6 -365.11)" fill="#79241d"/><path d="M878.66,579.1c10.59-3.45,21.46-3.69,32.37-2.81a83.71,83.71,0,0,1,23.42,4.82c4.87,1.87,9.37,4.3,12.69,8.49,2.5,3.17,3.79,6.77,2.24,10.6-1.66,4.07-5.33,5.77-9.53,6.31s-8.18-.19-11.3-3.48c-1.62-1.69-1.65-3.37,0-5a4.05,4.05,0,0,1,5.47-.4,2,2,0,0,1,.61,3c-1.39,1.81.35,1.63,1.1,1.71,2.78.29,5.13-2.65,4.73-5.77a12.16,12.16,0,0,0-5.47-8.5c-7.16-5.11-15.51-6.85-23.93-8.27a111,111,0,0,0-30.57-.78A16.67,16.67,0,0,1,878.66,579.1Z" transform="translate(-788.6 -365.11)" fill="#77251d"/><path d="M1036.39,578.91a138.15,138.15,0,0,0-21.14-.27c-10.12.54-20.09,2.19-29.5,6.24-3.91,1.69-7.58,3.82-9.76,7.69-1.26,2.22-2.21,4.63-.89,7.18a4.29,4.29,0,0,0,4.91,2.56c.4-.07,1.47-.1.74-1.13-1.28-1.81-.81-3.32,1.15-4a4.15,4.15,0,0,1,5.1,1.42c1.33,1.81.73,3.36-.74,4.75-3.85,3.65-8.47,4.15-13.25,2.71-8.35-2.53-10.38-9.61-5-16.49,3.67-4.69,8.72-7.36,14.17-9C1000.08,575.12,1018.17,574.22,1036.39,578.91Z" transform="translate(-788.6 -365.11)" fill="#77251e"/><path d="M957.45,614c3.74,0,6.71,2.23,6.78,5.16s-3,5.38-6.6,5.42-6.71-2.38-6.77-5.24S953.7,614.06,957.45,614Z" transform="translate(-788.6 -365.11)" fill="#78261d"/><path d="M959.31,405.4c-1.22-.08-1.45-.92-1.46-1.92a1.65,1.65,0,0,0-1.25-1.84c.39-9.5,6.94-15.58,17.37-16.42,6.93-.56,13.3,1.43,19.69,3.63a2.8,2.8,0,0,1,2,2.21,1.52,1.52,0,0,1-1.16,1.66c-.94.37-2.15.42-2.6-.48-1.82-3.69-5.46-4.09-8.75-4.74-5.64-1.12-11.27-1-16.68,1.49-6.71,3.11-8.13,10.07-8.06,15.22C958.42,404.61,959,405,959.31,405.4Z" transform="translate(-788.6 -365.11)" fill="#6f3027"/><path d="M813.91,553.71c0,1.12.28,2.28-.56,3.25-2.4-.53-2.82-2-1.75-4,1.89-3.53,12.44-7.52,16.53-6.3-3.77,1.58-8,1.88-11.57,4C815.67,551.68,813.32,551.41,813.91,553.71Z" transform="translate(-788.6 -365.11)" fill="#885b59"/><path d="M1041.71,533.38a15.58,15.58,0,0,1-7.73-1c-1.75-.87-3.62-.48-5.38-.31s-2.31,1.74-2.27,3.42l-.19.07-.17-.13a1.91,1.91,0,0,1-1.36-2.45,2.59,2.59,0,0,1,2.5-2A26.52,26.52,0,0,1,1041.71,533.38Z" transform="translate(-788.6 -365.11)" fill="#7e5856"/><path d="M995.22,529.66c-6.48,2.7-10.13,6.8-11.54,13-1.13-.28-.3-1.51-1-2,.38-2.22,2-3.76,3-5.68,1.71-2.76,4.31-4.4,7.15-5.74C993.71,528.83,994.7,528.1,995.22,529.66Z" transform="translate(-788.6 -365.11)" fill="#eed1c9"/><path d="M1087.17,543.86c-.33.57-.8.47-1.35.37-3.24-.59-4,.11-4.4,3.29-.14,1.16.58,3.11-1.72,3.23.12-1.36.29-2.72.36-4.08.1-1.66.42-3.32,2.07-4A4.15,4.15,0,0,1,1087.17,543.86Z" transform="translate(-788.6 -365.11)" fill="#8e6b6a"/><path d="M959.18,528.48a4.44,4.44,0,0,0-.62,0c2.71-3.57,13.86-3.94,17-.56-.84.86-1.66.61-2.46-.05-4.06-1.93-8.09-1-12.12.13C960.36,528.22,959.87,528.76,959.18,528.48Z" transform="translate(-788.6 -365.11)" fill="#826763"/><path d="M907.19,530.48l-1.91,1.08c-3.38,1.42-4.73,3.55-4.5,7.07-.11.73-.7,1-1.27,1.23C898,534,901.28,530,907.19,530.48Z" transform="translate(-788.6 -365.11)" fill="#7d504d"/><path d="M920.4,552.57c1.55,1.6,1.23,3.6-.84,5.21-1.23,1-1.88,1.09-4.53,1,.22-1,1.66,0,1.71-1.13C919,556.65,919.57,554.53,920.4,552.57Z" transform="translate(-788.6 -365.11)" fill="#eed5cd"/><path d="M995.22,529.66c-1.88-1.17-3.1.42-4.36,1.24a64.79,64.79,0,0,0-5.15,4.07c2-4.49,5.94-6,10.29-7.05C997.78,529.41,995.91,529.27,995.22,529.66Z" transform="translate(-788.6 -365.11)" fill="#866261"/><path d="M914.81,527.9c1.46,1.16,3.31,0,4.84.86-2.93.65-5.87,1.25-8.77,2-1,.25-1.84.4-2.55-.5l0,.11c1.64-.82,3.57-.9,5.11-2A1.06,1.06,0,0,1,914.81,527.9Z" transform="translate(-788.6 -365.11)" fill="#cea1a0"/><path d="M1049.85,544.88c1.56,1.35,2,3,.82,4.7-.73,1.07-2.11.74-3.17.25-1.53-.72-.26-1.14.24-1.62C1050.15,548.18,1049.48,546.2,1049.85,544.88Z" transform="translate(-788.6 -365.11)" fill="#d1bcb7"/><path d="M940.87,548.63c.31-.1.81-.85.89-.19a15.64,15.64,0,0,1-1,8.75c-.74-1.45.14-3.06-.47-4.51A10.33,10.33,0,0,1,940.87,548.63Z" transform="translate(-788.6 -365.11)" fill="#e5bdb3"/><path d="M952.27,526.49l-1.94.59c-2,1-4.06.17-6.07.45-1,0-1.91-.06-2.42-1.09A20.16,20.16,0,0,1,952.27,526.49Z" transform="translate(-788.6 -365.11)" fill="#9b7066"/><path d="M868.47,543.09c-.08,1.12.25,2.63-1.79,1.91.74-2.79,0-5.86,1.57-8.5a1.21,1.21,0,0,1,.75.73A19.28,19.28,0,0,1,868.47,543.09Z" transform="translate(-788.6 -365.11)" fill="#855146"/><path d="M941.84,526.44l2,.63c-.78,1.28-2.27.68-3.37,1.26-1.45.79-2.2,1.54-1.2,3.13,0,.53,0,1.07.07,1.6-1.4-.86-3.16-1.63-2.51-3.69C937.61,527,939.72,526.63,941.84,526.44Z" transform="translate(-788.6 -365.11)" fill="#734a45"/><path d="M1056.73,536.14c-3.13-.25-6.21.32-9.31.62.44-1.47,1.57-1.64,2.9-1.67,1.72,0,3.47.34,5.16-.26C1056.38,534.81,1056.68,535.35,1056.73,536.14Z" transform="translate(-788.6 -365.11)" fill="#f1cecb"/><path d="M900.27,553.29c.05,1.43,0,2.86.17,4.27.13,1-.37,1.26-1.17,1.35C897.91,556.74,897.58,554.75,900.27,553.29Z" transform="translate(-788.6 -365.11)" fill="#7b4f4a"/><path d="M1049.88,556.35c.9,1.37.63,3,1.13,4.49-.56,2.2.06,5.26-3.74,5.07C1050.31,563.31,1049.76,559.74,1049.88,556.35Z" transform="translate(-788.6 -365.11)" fill="#906063"/><path d="M1028.15,559.34l1-1.28c.78,2.9-.78,4.17-3,4.62-1.73.35-.37-.77-.37-1.24A2.83,2.83,0,0,0,1028.15,559.34Z" transform="translate(-788.6 -365.11)" fill="#f5e3dc"/><path d="M874.27,533c.39.85.25,1.47-.75,1.72-2.28-.74-3,1.91-4.87,2.19l-.4-.4A5.85,5.85,0,0,1,874.27,533Z" transform="translate(-788.6 -365.11)" fill="#76534f"/><path d="M858.35,565.84c.42,2.18-2.46,5.36-4.4,4.82-.13,0-.11-.59-.16-.89A15.79,15.79,0,0,0,858.35,565.84Z" transform="translate(-788.6 -365.11)" fill="#eec8c5"/><path d="M1047.27,565.91c3.29-.18,2.73-3.21,3.74-5.07.23,4.52-.29,5.25-4.38,6.23Z" transform="translate(-788.6 -365.11)" fill="#eac0bb"/><path d="M1067.51,571.6c-.36.44-.25,1.31-1.14,1.28-.24-2,.34-3.19,2.56-3.4a8.59,8.59,0,0,0,2.5-1.14C1071.78,571.42,1068.8,570.5,1067.51,571.6Z" transform="translate(-788.6 -365.11)" fill="#7d554f"/><path d="M814.12,578.47l1,0c1,3.19-1.61,4.84-3,7a2.51,2.51,0,0,1-.6.1c-.54-1.48.5-2.35,1.28-3.32A5.71,5.71,0,0,0,814.12,578.47Z" transform="translate(-788.6 -365.11)" fill="#7e595c"/><path d="M1055.48,534.83c-1.34,1.3-3,.53-4.47.58s-2.75,0-3.59,1.35l-.73,0c.23-1.73,1.41-2.09,2.89-2.06Z" transform="translate(-788.6 -365.11)" fill="#896868"/><path d="M1067.51,571.6c.86-1.62,3.6-1,3.92-3.26l1.13-1.21C1073,571,1070.34,571.4,1067.51,571.6Z" transform="translate(-788.6 -365.11)" fill="#e4c1bb"/><path d="M940.24,552.68c.82,1.43.48,3,.47,4.51-.22,1.23-.87,1.86-2.18,1.55C939.51,556.84,940.43,554.91,940.24,552.68Z" transform="translate(-788.6 -365.11)" fill="#784c49"/><path d="M919.89,543l-2.61-.59a13.45,13.45,0,0,0,4.48-2.5l0-.07C923.18,542.09,920.93,542.19,919.89,543Z" transform="translate(-788.6 -365.11)" fill="#855555"/><path d="M913.46,528.34a7.07,7.07,0,0,1-5.11,2C909.79,529,911.69,528.86,913.46,528.34Z" transform="translate(-788.6 -365.11)" fill="#79241e"/><path d="M1031.42,523.38l.57.62c-.18,1.36-1.34,2.06-2.3,3.45A6.05,6.05,0,0,1,1031.42,523.38Z" transform="translate(-788.6 -365.11)" fill="#8c5a61"/><path d="M1026.33,535.48c-.81-3-.31-3.82,2.68-3.87,1.65,0,3.3.16,4.94.26,0,0,.13.13.13.2a1.18,1.18,0,0,1-.1.3,26.41,26.41,0,0,1-2.82-.08C1028.58,531.94,1027.1,533.14,1026.33,535.48Z" transform="translate(-788.6 -365.11)" fill="#f5ded2"/><path d="M939.32,531.46c-1.62-1.13-1.65-2.61.06-3.44a10.8,10.8,0,0,1,4.51-.95h6.44l1.51.21c-3.14.9-6.44.21-9.56,1.19C940.71,529,939.25,529.41,939.32,531.46Z" transform="translate(-788.6 -365.11)" fill="#f7dfde"/><path d="M959.18,528.48c4.62-2.59,9.49-2.29,14.41-1.19.07,0,.11.14.16.21l-.69.42c-4.56-.88-9-1-13.31,1.31C959.22,529.51,959.2,528.87,959.18,528.48Z" transform="translate(-788.6 -365.11)" fill="#fad9d4"/><path d="M833.48,549.59c-1.81-3.36-1.28-4.25,4.6-6.91a36.92,36.92,0,0,0-3.42,3A4.83,4.83,0,0,0,833.48,549.59Z" transform="translate(-788.6 -365.11)" fill="#fdfdfd"/><path d="M812.11,585.47c.55-2.52,3.17-4.18,3-7,.08-.58.17-1.15.25-1.73A7.28,7.28,0,0,1,812.11,585.47Z" transform="translate(-788.6 -365.11)" fill="#eecfc8"/><path d="M813.91,553.71l-1,1.88c-.24-.16-.62-.25-.71-.47a2,2,0,0,1,.64-2.29c1-1,2.07-2.1,3.69-2.16C815.86,551.84,814.27,552.24,813.91,553.71Z" transform="translate(-788.6 -365.11)" fill="#eed7cd"/><path d="M995.81,540.74c-.1-2.49.41-4.84,3.06-5.61,2.45-.71,4.25.94,5.57,2.78,2.23,3.13,3.25,6.78,4,10.51a12.88,12.88,0,0,0,1.22,4.43,3.5,3.5,0,0,1-1.2,4.51c-2,1.47-4,.31-5.84-.32a5.6,5.6,0,0,1-2.84-2.85A28.91,28.91,0,0,1,995.81,540.74Z" transform="translate(-788.6 -365.11)" fill="#fbfbfb"/><path d="M1090.42,572.68c.27,2-.49,2.36-1.6,2-2.87-1-5.72-2-8.56-3.08a2.09,2.09,0,0,1-1.2-3.1c1.23-2.54,2.66-5,4.1-7.41.75-1.26,1.84-1.14,2.48,0A64.48,64.48,0,0,1,1090.42,572.68Z" transform="translate(-788.6 -365.11)" fill="#faf9f8"/><path d="M870.65,555.82c-.86-.28-2,.41-1.86-1.12.18-2.55,2.59-7.15,3.64-6.69a6,6,0,0,1,3.58,5.41C875.78,556.56,872.12,554.36,870.65,555.82Z" transform="translate(-788.6 -365.11)" fill="#faf6f4"/><path d="M868.65,536.9c1.52-1,2.24-3.7,4.87-2.19-2.66.58-3.59,2.53-4.1,4.94-.24,1.15.3,2.56-.95,3.44Z" transform="translate(-788.6 -365.11)" fill="#f7ded8"/><path d="M900.78,538.63c-1-3.71.93-6.81,4.5-7.07C903.05,533.46,900.92,535.41,900.78,538.63Z" transform="translate(-788.6 -365.11)" fill="#f4dace"/><path d="M919.89,543c.46-1.14,2.41-1.42,1.84-3.16,1.2-.44,1.25.36,1.15,1.14C922.64,542.71,921.41,543.09,919.89,543Z" transform="translate(-788.6 -365.11)" fill="#deb6b2"/><path d="M951.79,414.33c-1.26-.24-2.22-.92-2.1-2.46s1.14-2.12,2.6-2,2.45.93,2.3,2.37S953.39,414.35,951.79,414.33Z" transform="translate(-788.6 -365.11)" fill="#f7f1ed"/></svg>