<svg id="a34261f7-fdc3-48aa-931b-8ad17575e7e3" data-name="Слой 1" xmlns="http://www.w3.org/2000/svg" viewBox="0 0 379.04 169.82"><title>победа лого</title><path d="M959.69,591.07q-93.93,0-187.87,0c-1.34,0-1.65-.3-1.65-1.65q.06-83.26,0-166.52c0-1.34.31-1.65,1.65-1.65q187.88.06,375.75,0c1.34,0,1.65.31,1.65,1.65q-.06,83.26,0,166.52c0,1.35-.31,1.65-1.65,1.65Q1053.63,591,959.69,591.07Z" transform="translate(-770.17 -421.28)" fill="#fefefe"/><path d="M972.58,460q-6,8-12,16.09c-.66.89-1.3,1.79-2.06,2.84A20,20,0,0,0,969,477.67c7.24-2.53,14.61-4.54,22.33-4.9a31.61,31.61,0,0,1,12.34,1.76c4.67,1.69,9.23,3.63,13.71,5.76,9.14,4.34,18.64,6.26,28.74,4.62,6.73-1.1,12.27-4.49,17.35-8.82.81-.7.37-.9-.28-1.19-2-.9-4.06-1.75-6-2.74a20.28,20.28,0,0,1-6.37-4.56c.23-.9,1-.78,1.6-.72,7.43.72,14.87,1.39,22.3,2.13,7,.69,14,1.33,21,2l17.13,1.62a6.63,6.63,0,0,1,4.46,2.34A51.8,51.8,0,0,1,1131,504.62c1.8,15.15-2.41,28.61-11.91,40.49-.3.37-.64.71-.92,1.09-2.15,2.93-5.07,3.91-8.64,4.18-9.47.73-18.91,1.78-28.37,2.67l-24.81,2.34-23.91,2.3q-12.4,1.21-24.81,2.35l-19.8,1.89c-7.08.69-14.16,1.34-21.24,2-2.43.24-4.88.42-7.31.7-4.87.54-9.65-.46-14.46-.87-8.27-.7-16.53-1.56-24.8-2.36-6.9-.67-13.8-1.32-20.69-2-6.72-.66-13.44-1.26-20.16-1.93q-10.62-1-21.23-2c-8-.75-15.94-1.53-23.91-2.29-9.46-.9-18.92-1.75-28.37-2.73-1.6-.17-3.21-.32-4.82-.43a5.32,5.32,0,0,1-3.74-1.83c-9.37-10.22-14.65-22.05-14.91-36.09a51.66,51.66,0,0,1,12-34.81c.95-1.16,2.06-2.18,3-3.34a3.52,3.52,0,0,1,2.52-1.18c4.63-.57,9.28-.9,13.92-1.36q12.57-1.25,25.16-2.42c8.15-.75,16.3-1.53,24.44-2.29,7-.66,14-1.35,21.06-2l25-2.33c7-.64,13.92-1.31,20.88-2s14.06-1.11,21-2c6.64-.86,13.11.18,19.63.78C971.48,459.23,972.34,459,972.58,460Z" transform="translate(-770.17 -421.28)" fill="#fe0000"/><path d="M972.58,460c-2.78-.75-5.68-.55-8.49-1-7.5-1.26-14.89.31-22.31.89-9.47.75-18.92,1.77-28.37,2.66q-18.66,1.77-37.3,3.52c-10.71,1-21.42,2-32.12,3q-17.85,1.69-35.69,3.44c-2.91.28-5.83.56-8.74.79a2.68,2.68,0,0,0-1.87.87c-8.43,8.66-13.57,19-14.76,31-1.66,16.78,3.52,31.35,15.37,43.46a2.55,2.55,0,0,0,1.71.82q21.06,2,42.11,4,23.29,2.25,46.57,4.52c10.59,1,21.18,2,31.76,3,11.66,1.1,23.32,2.24,35,3.33,3,.28,6-.36,8.92-.62,9.34-.83,18.67-1.8,28-2.7l36.75-3.51,27.31-2.6,36.57-3.5c6.66-.64,13.33-1.28,20-1.87a3.44,3.44,0,0,0,2.35-1.07c11.17-11.4,16.42-25.12,15.43-41a50.59,50.59,0,0,0-14.52-32.74,4.28,4.28,0,0,0-2.91-1.43c-18.74-1.74-37.48-3.56-56.21-5.32-2.11-.2-4.2-.84-6.35-.31-.88-.6-.78-1.19-.06-1.87a5.24,5.24,0,0,1,4.43-1.78c10.64,1.09,21.3,2.05,31.94,3.06q12.32,1.17,24.63,2.38c1.36.13,2.73.3,4.1.36a2.58,2.58,0,0,1,1.82,1,63.09,63.09,0,0,1,7.86,9.54,2.28,2.28,0,0,0,2.46,1.3,2.24,2.24,0,0,1,2.43,1.36,47.39,47.39,0,0,1,5.9,17.75c3,20-2.78,37.29-15.8,52.46a6.4,6.4,0,0,1-4.58,2.31q-23,2.16-46,4.43-28.09,2.77-56.19,5.59c-12.79,1.26-25.58,2.47-38.36,3.71-5.47.54-10.94,1.11-16.41,1.66-4.15.42-8.23-.41-12.32-.78-9.35-.82-18.68-1.79-28-2.7l-35.68-3.47-27.48-2.64-35.68-3.47c-2.56-.25-5.11-.58-7.68-.72a2.85,2.85,0,0,1-2.71-1.64,3.16,3.16,0,0,0-3-1.76c-2.68-.1-5.35-.5-8-.69a4,4,0,0,1-2.49-1.61,54.68,54.68,0,0,1-14.28-23.31c-5.58-18.68-2.59-35.9,9.19-51.52.18-.24.36-.48.55-.7,5-5.92,5-5.95,13.16-6.74q23.57-2.25,47.12-4.44,28.82-2.71,57.64-5.4c14.16-1.32,28.35-2.42,42.48-4,7.61-.86,15,.62,22.49,1,.86,0,1.29.36.58,1.2Z" transform="translate(-770.17 -421.28)" fill="#bf9a65"/><path d="M964.78,475.55c6-7.59,12-14.9,17.61-22.57,1.76-2.41,3.4-4.91,5-7.41a5.09,5.09,0,0,1,2.51-2.15c9.42-3.63,18.86-3.15,28.27-.12,5,1.62,10,3.37,14.85,5.35,7.35,3,14.88,3,22.55,1.9a89.69,89.69,0,0,0,16.89-4.12,6.91,6.91,0,0,1-2.57,1.76A196,196,0,0,0,1048.6,463l-.14.11c-2.93,2.49-3,3.78-.38,6.65a26.06,26.06,0,0,0,8.15,5.75c1.29.62,1.16,1.05.08,1.74a29.7,29.7,0,0,1-14.14,4.68,43.92,43.92,0,0,1-22.43-4.37c-3.77-1.79-7.69-3.27-11.51-5-8.67-3.9-17.59-3.94-26.68-1.9a120.28,120.28,0,0,0-14.72,4.53A3.1,3.1,0,0,1,964.78,475.55Z" transform="translate(-770.17 -421.28)" fill="#bf9a65"/><path d="M1060.83,516.34a3.74,3.74,0,0,0,2.13-1.21c5.06-6.36,11.92-9.34,19.73-10.53a75.89,75.89,0,0,1,9.64-.75,1.84,1.84,0,0,1,2.15,1.33c.59,1.6,1.11,1.69,2,.34a2.85,2.85,0,0,1,2.85-1.32c4.58.05,9.16,0,13.89,0-.19,1.11-1.12,1.48-1.36,2.26-.9,2.13-2.61,3.66-4,5.4-2.34,2.91-4.73,5.79-7.21,8.82,1.8-.24,3.11-1.37,4.75-1.4a1.37,1.37,0,0,0,.51-.07c1.42-1,2.31-.54,2.81,1a3.56,3.56,0,0,0,.59.84c.86.66,1.08,1.7,1.57,2.57s-.16,1.32-.81,1.69a33.46,33.46,0,0,1-3.92,1.75c-4.48,1.82-8.95,3.69-13.45,5.47-3.1,1.22-3.93,1-6.32-1.41l-1.75-1.6c-.18,0-.43-.05-.5-.18-1.08-1.93-2.29-1.4-3.85-.48a44.68,44.68,0,0,1-8.85,3.76c-4.27,1.39-7.8.6-10.79-2.74l-2.12-2.05a.82.82,0,0,1-.42-.31c-1.08-1.85-1-1.7-3.1-.89a30.5,30.5,0,0,0-15,12.44,51.2,51.2,0,0,1-8.57,10.54c-1.11,1-2.26,2-3.44,2.87a4.53,4.53,0,0,1-2.58,1.17c-3.39.1-6.77.67-10.18.47a2.64,2.64,0,0,1-1.19-.37c-5.38-4.16-5.21-12.12.39-16.73,1.33-1.09,2.82-2,4.24-3,.55-1.06,1.66-1.31,2.62-1.71,3.52-1.45,7-3,10.55-4.38a6,6,0,0,0,2.84-1.81c-3.62,2-7.62,3.67-11.56,5.41s-7,1.1-9.83-2l-1.46-1.36c-1.12-.25-1.26-1.26-1.56-2.07a59.72,59.72,0,0,1-24.36,7.59c-.66.06-1.3.18-2,.27a11.33,11.33,0,0,1-9.24-2.92l-3.5-3.64c-1.53-2.15-3.38-1.57-5.44-.84q-4.65,1.62-9.11,3.67a38.19,38.19,0,0,1-14,3.45c-1.14.05-2.25.27-3.38.37a10,10,0,0,1-8.23-3.1l-3-3.43a5.56,5.56,0,0,1-1.45-3.7c-.49-1,.13-1.85.47-2.71a26.41,26.41,0,0,1,2.53-4.23,1.88,1.88,0,0,0-2.08,1c-6.21,9.68-15.42,14.3-26.53,15.68-1.13.14-2.25.32-3.38.41-3.43.27-6.7-.07-9.37-2.57l-3.49-3.75c-.1-.07-.25-.1-.3-.19-1.08-2.14-2.55-1.56-4.28-.82-6.48,2.78-13.15,5.1-19.73,7.64a3.65,3.65,0,0,1-3.86-.55c-1.95-1.57-4.13-2.84-6-4.5a3.3,3.3,0,0,0-.41-.57c-2.41-2.41-2.45-2.44-.19-4.93q13.37-14.73,26.77-29.43a2.72,2.72,0,0,0,.37-.39c2.21-3.81,5.6-4.58,9.72-4.12,3.26.37,6.57.22,9.85.32.51,0,1.25-.26,1.49.24.32.66-.54.93-.84,1.4l-.39.6a2.87,2.87,0,0,1-.84,1.53c-3.73,3.61-7.09,7.56-10.6,11.37-4.36,4.72-8.75,9.43-13,14.28-.63.72-1.34,1.36-2.13,2.25,1.93-.35,3.43-1.59,5.27-1.49,4.14-1.21,8.06-3,12-4.61a2.28,2.28,0,0,0,.72-.52c6.44-6.52,14.5-9.72,23.32-11.35,1.33-.25,2.85-1,3.69.9.13.3.47.2.78.14,4.15-.77,8.34-.21,12.51-.34,1.85-.06.91,1.57,1.28,2.41.51,1.05.33,2.63,2.07,2.76a28.42,28.42,0,0,0,8.7-1.71,123.55,123.55,0,0,1,13.34-3.92c2.49-.6,2.91-.3,3.28,2.18a7.22,7.22,0,0,1,.14,3.69c-.19,1.44-1.33,1.86-2.5,2.2a22.15,22.15,0,0,0-7.73,3.95,13.5,13.5,0,0,0-3.94,5c-.29.63-.79,1.36-.27,2s1.22.21,1.85.12c5.83-.65,9.47-4,11.62-9.3a24.81,24.81,0,0,0,1.35-7.68c-.26-3.86-1.9-7.22-3.86-10.45-1.58-2.63-1.44-3.32,1.41-4.62,7-3.23,14.59-4.81,22.11-6.44,2.16-.46,4.33-.83,6.5-1.24,2-.37,2-.38,1.48,1.54-.08.29-.12.59-.18.88.41,1.93-.75,3.56-1,5.37-.12.76-.44,1.49-.62,2.24a2.2,2.2,0,0,1-2.3,1.8,97.4,97.4,0,0,0-13.26,2c-2.15.5-2.14.5-1.34,2.47.7,1.71,1.85,3.2,2.37,5a25,25,0,0,1,.38,10.65c-.28,2-.3,2,1.69,2.26.43,0,.65-.24.84-.55,4.3-7.15,10.94-10.89,18.76-12.94a72.53,72.53,0,0,1,11.81-1.84,4.26,4.26,0,0,1,4.31,1.79c.68,1,1.42,1.9,2.14,2.85,2.37,2.94,2.41,4.55-.32,7.27A35,35,0,0,1,996,522.15c-1.09.2-2.07.79-2.82.83,1.15-.31,2.67-.68,4.15-1.17,4.25-1.52,8.54-2.93,12.48-5.21a1.21,1.21,0,0,1,.86-.13,39.4,39.4,0,0,0,8-5c4.57-3.59,9.81-5.31,15.36-6.44a77.46,77.46,0,0,1,10.29-1.23c1.44-.1,2.38.22,2.91,1.65.45,1.25,1.18,1.49,1.83.13s1.85-1.72,3.36-1.69c4.4.08,8.81,0,13.36,0-.13,1.08-1.06,1.56-1.3,2.39a3,3,0,0,1-.89,1.71c-2.69,3.44-5.3,6.94-8.08,10.52C1057.49,518,1058.9,516.5,1060.83,516.34Z" transform="translate(-770.17 -421.28)" fill="#bf9a65"/><path d="M820.09,507.85a8,8,0,0,0,2.34,2.07,3.41,3.41,0,0,1,1.6,2.16c.41.59,0,.86-.46,1.06a1.54,1.54,0,0,1-.87.13c-5.7-1-11.46-1.7-16.46-5a13.91,13.91,0,0,1-1.51-1.25c-1.62-1.68-3.33-3.31-3.67-5.79a9.31,9.31,0,0,1,2.64-7.87c3.94-4.34,9.06-6.77,14.36-8.87A128.56,128.56,0,0,1,848.6,477a377.87,377.87,0,0,1,43.58-3.05c9.19-.15,18.39-.28,27.58-.89,7.34-.49,14.67-.91,21.79-2.92.33-.09.67-.15,1.11-.24,0,1.26-.88,2.07-1.12,3.09a1.28,1.28,0,0,1-.17,1c-3.17,4.69-6.62,8.9-12.84,9.63-5.11.6-10.22.83-15.35,1.08-9.56.46-19.12,0-28.67.34-11.08.41-22.22.34-33.18,2.48-8.64,1.68-17.19,3.67-25,7.89a25,25,0,0,0-5.89,4c-2.48,2.43-2.67,3.7-1.15,6.82C819.52,506.81,819.8,507.33,820.09,507.85Z" transform="translate(-770.17 -421.28)" fill="#c09a65"/><path d="M820.09,507.85c-3.25-3.07-3.28-5.57-.13-8.71a24.48,24.48,0,0,1,6.19-4.24c9.36-4.88,19.49-7.1,29.82-8.63s20.85-1.51,31.3-1.71c11.77-.22,23.55,0,35.3-.83,2.38-.16,4.75-.51,7.11-.85,5-.72,7.76-4.38,10.55-8,.48-.62.87-1.29,1.31-1.93l3.33-.66c-1,3.3-3,5.67-5,8.12-3,3.79-7.23,5-11.83,5.47-5.71.55-11.43.72-17.16.77-9.62.08-19.24.2-28.85.41-13.51.28-26.95,1.18-40,4.91a62.22,62.22,0,0,0-17,7.31,30,30,0,0,0-2.66,2.11C820.25,503.1,819.18,505.14,820.09,507.85Z" transform="translate(-770.17 -421.28)" fill="#710700"/><path d="M819.68,532.19h-4.26c2.41-2.57,4.41-4.73,6.45-6.86q16.35-17.13,32.69-34.25a3.72,3.72,0,0,1,3.11-1.31c5.19.2,10.39,0,15.68.4-.21,1-1.24,1.36-1.55,2.18a25.92,25.92,0,0,1-4.26,5c-6.37,6.47-12.5,13.17-18.84,19.68-4.45,4.58-8.78,9.28-13.21,13.9a5.24,5.24,0,0,1-4.28,1.74c-3.16-.1-6.34,0-9.5,0C821,532.65,820.25,532.79,819.68,532.19Z" transform="translate(-770.17 -421.28)" fill="#c09a65"/><path d="M819.68,532.19c3.82,0,7.65-.15,11.47,0a5.2,5.2,0,0,0,4.36-1.81q16.8-17.8,33.72-35.5c.82-.86,1.71-1.66,2.57-2.49h3.68c.06.95-.5,1.2-.85,1.56q-10,10.43-20,20.84Q846,523.9,837.3,533.12a3.82,3.82,0,0,1-3.12,1.32c-5.31-.07-10.62,0-16,0C818.28,533.3,819.39,533,819.68,532.19Z" transform="translate(-770.17 -421.28)" fill="#720700"/><path d="M1014,553.81c3.7-.17,7.39-.34,11.08-.53a4.18,4.18,0,0,0,2.45-1,43,43,0,0,0,8-7.89q4.47-5.94,8.89-11.91a6.65,6.65,0,0,1,2.39-2.08c3-1.5,6-3,8.93-4.55a4.61,4.61,0,0,1,2.2-.77,9.64,9.64,0,0,0,.53,2.78c-3.07,1.59-6.14,3.2-9.22,4.77a8.26,8.26,0,0,0-2.94,2.54c-3.41,4.61-6.74,9.28-10.39,13.71a46.13,46.13,0,0,1-6.72,6.16c-1,.82-2.3.59-3.45.72-2.43.27-4.9.2-7.32.48A3.82,3.82,0,0,1,1014,553.81Z" transform="translate(-770.17 -421.28)" fill="#710700"/><path d="M888.2,531.51c7.36,4.07,14.65,1.61,21.84-.46s12.66-6.81,16.85-13c1.2-1.77,1.16-1.8,3.71-1.7-1.76,2.36-3.42,4.68-4,7.55-6.15,7.06-14.15,10.5-23.23,11.64-4,.51-8,1.33-11.8-1.14A14.56,14.56,0,0,1,888.2,531.51Z" transform="translate(-770.17 -421.28)" fill="#720800"/><path d="M875.63,520.4a25.65,25.65,0,0,1-6.09,2c9-10.12,18-20.23,27.35-30,.79.43,1.64.14,2.46.24.33,0,.77-.13.95.27s-.22.64-.45.89c-1.49,1.62-3,3.23-4.49,4.86l-19.2,21A7.71,7.71,0,0,0,875.63,520.4Z" transform="translate(-770.17 -421.28)" fill="#720800"/><path d="M971.24,517.8l-1,.37c-1.49.55-1.7,0-1.4-1.4,1.35-6.33.8-12.37-3.1-17.79-.83-1.15-.36-1.44.79-1.71A79.47,79.47,0,0,1,981.38,495a1.74,1.74,0,0,0,1.9-1.59c.63-2.49,1.37-4.95,2.07-7.42,2.81-.2,2.79-.21,2,2.54-.67,2.35-1.32,4.7-1.89,7.08a2.06,2.06,0,0,1-2.29,1.85,75,75,0,0,0-14.8,2.32c-1.15.29-1.22.69-.6,1.53C971.39,506.29,972.23,511.85,971.24,517.8Z" transform="translate(-770.17 -421.28)" fill="#720801"/><path d="M931,531.05c4.34,3.54,9.35,2.6,14.24,2A45.68,45.68,0,0,0,960,528.25a71.49,71.49,0,0,1,8.79-3.08,1,1,0,0,1,1.4.62,13.09,13.09,0,0,0,1,1.71c-5.25,1.44-10.13,3.82-15.17,5.8a37.58,37.58,0,0,1-18,2.42C935.09,535.4,932.76,533.49,931,531.05Z" transform="translate(-770.17 -421.28)" fill="#720700"/><path d="M974.67,531.14c5.83,3.9,12,2.28,18.13,1.1a54.37,54.37,0,0,0,16.05-5.88c.52-.28,1.06-.53,1.72-.87a5.16,5.16,0,0,0,1.21,2.78A57.38,57.38,0,0,1,991,535.4a51.22,51.22,0,0,1-6,.66C980.7,536.19,977.38,534.27,974.67,531.14Z" transform="translate(-770.17 -421.28)" fill="#720700"/><path d="M850.52,529.34c2.31,1,4.17,2.73,6.18,4.19a3.2,3.2,0,0,0,3.45.46c6.73-2.65,13.5-5.2,20.23-7.82,2.9-1.12,2.88-1.17,4.33,1.59-7,2.69-14,5.27-21,8.15-2.46,1-4.29.86-6.26-.88a69.09,69.09,0,0,0-5.61-4.12A2.82,2.82,0,0,1,850.52,529.34Z" transform="translate(-770.17 -421.28)" fill="#720800"/><path d="M1086.32,531.18c2.23,2.11,4.51,1.8,7.16.6,5-2.29,10.25-4.24,15.38-6.36,2.05-.84,2-.87,1-2.84-.24-.47-.43-1-.65-1.47,1.55.29,1.55,1.84,2.15,2.82,1.8,2.93,1.74,3-1.4,4.33-5.68,2.36-11.4,4.64-17.1,7a1.86,1.86,0,0,1-1.73.08C1089.33,534.19,1087.47,533.11,1086.32,531.18Z" transform="translate(-770.17 -421.28)" fill="#720700"/><path d="M957.89,506.32c.72,2.81,0,5.43-1.06,8a7.21,7.21,0,0,1-2.51,1.32,18,18,0,0,0-8.6,7.23c-.18.31-.52.48-.72.78-.91.33-2.07.69-2.65,0s.13-1.71.5-2.51c2.11-4.52,5.9-7.06,10.39-8.77a11.34,11.34,0,0,1,1.88-.58,2.38,2.38,0,0,0,2.18-2.9,19,19,0,0,1,.07-2.5Z" transform="translate(-770.17 -421.28)" fill="#720801"/><path d="M1060.58,529.94c5.06,4.72,10.35,2.72,15.6.49,1.91-.82,3.72-1.88,5.55-2.88.76-.42,1.37-.92,1.75.41a6.15,6.15,0,0,0,1.09,1.62c-4.4,2.53-8.89,4.77-14,5.62a5.91,5.91,0,0,1-4.27-.61C1064.17,533.33,1062,532.12,1060.58,529.94Z" transform="translate(-770.17 -421.28)" fill="#720801"/><path d="M902.21,547.3c0-4.3,0-4.31,4.29-4.25a10.67,10.67,0,0,1,2.47.23c1.84.48,2.28,1.53,1.34,3.15-.29.5-.33.71.06,1.18,1.31,1.62.71,3.21-1.33,3.62a30.32,30.32,0,0,1-5.87.26c-.68,0-1-.31-1-1C902.23,549.44,902.22,548.37,902.21,547.3Z" transform="translate(-770.17 -421.28)" fill="#c09964"/><path d="M1105.34,519.3c-1.64,1.12-3.57,1.48-5.36,2.2l-.35-.41,12.19-14.61c1.06.48,2.23,0,3.58.4Z" transform="translate(-770.17 -421.28)" fill="#720801"/><path d="M933.47,543.19c-1.6,2.23-2.28,4.28-.37,6.51.32.37,1.15,1.24.47,1.62a2.13,2.13,0,0,1-2.76-.55A6.65,6.65,0,0,1,930,549a1.38,1.38,0,0,0-1.67-1c-.9.15-.54.9-.64,1.44-.16.76.49,1.91-1,2-1.15.1-1.94,0-1.84-1.55.13-1.9.07-3.82,0-5.72,0-1,.44-1.22,1.31-1.2s1.59.05,1.52,1.2a1.88,1.88,0,0,0,0,.53c.09.54-.27,1.3.63,1.44s1.24-.41,1.45-1.07C930.31,543.3,931.5,542.72,933.47,543.19Z" transform="translate(-770.17 -421.28)" fill="#c19763"/><path d="M1060.83,516.34a21.67,21.67,0,0,1-6.27,2.66l10-12.73h3.68Z" transform="translate(-770.17 -421.28)" fill="#720801"/><path d="M996,521.82a48.94,48.94,0,0,0,10.68-6.1c.28-.22.56-.44.82-.68,3.4-3.1,3.55-3.85,1.64-7.93,1.68,1.08,2.21,2.95,3.13,4.56,1.24,2.17-.66,3.31-1.53,4.8a45.14,45.14,0,0,1-10.45,4.79c-.94.33-1.9.62-2.85.93C996.86,522.29,996.23,522.74,996,521.82Z" transform="translate(-770.17 -421.28)" fill="#730a02"/><path d="M994.37,549.52c-1-.1-1.8,0-2.11,1.14s-1.34,1-2.06.72-.12-1,.06-1.52c.73-1.89,1.6-3.72,2.31-5.62a1.66,1.66,0,0,1,1.87-1.23c1,0,1.66.14,2,1.23.67,1.85,1.55,3.62,2.27,5.45.2.52,1,1.31.21,1.64s-2.12.73-2.61-.6A1.57,1.57,0,0,0,994.37,549.52Z" transform="translate(-770.17 -421.28)" fill="#c09863"/><path d="M972.9,543a4.32,4.32,0,0,1,3.6,1.27c.44.48,1.25,1.19.49,1.77a1.64,1.64,0,0,1-2.28-.2c-.86-1.29-1.84-1.47-3-.66-1,.67-1.12,2.76-.33,3.81a1.86,1.86,0,0,0,2.82.39c.28-.2.37-.66.65-.84a1.9,1.9,0,0,1,2.19,0c.65.56-.12,1.16-.54,1.61a5.28,5.28,0,0,1-6,.93,4.07,4.07,0,0,1-2.53-4.15C968.09,544.64,970.14,543,972.9,543Z" transform="translate(-770.17 -421.28)" fill="#c09763"/><path d="M946.06,543.3c3.36-1.32,3.73,1.68,5.17,3.21a8.31,8.31,0,0,0,1.55-2.6,1.61,1.61,0,0,1,1.76-.88c.86,0,1.08.37.65,1.12-1.13,2-2.2,4-3.4,5.88a3.49,3.49,0,0,1-3.59,1.5c-.65-.06-1-.34-1-1s.43-.77,1-.76c1.71,0,1.58-.75.82-1.87C948,546.42,947.08,544.9,946.06,543.3Z" transform="translate(-770.17 -421.28)" fill="#c19662"/><path d="M804.73,507.05c5.2,3.37,11.09,4.63,17.07,5.61.71.11,1.82.86,2.23-.58a12.53,12.53,0,0,1,1.46,1,1.57,1.57,0,0,1,.29,1.83c-.28.65-.92.33-1.42.24-5.28-.93-10.58-1.74-15.34-4.44A11,11,0,0,1,804.73,507.05Z" transform="translate(-770.17 -421.28)" fill="#750801"/><path d="M1013.24,529.63c3.57,3.16,7.31,2.88,11.39.9,3.73-1.8,7.6-3.3,11.22-5.39a5.91,5.91,0,0,1-2.59,2.75c-4.89,2.05-9.77,4.14-14.64,6.21A14.14,14.14,0,0,1,1013.24,529.63Z" transform="translate(-770.17 -421.28)" fill="#7a160a"/><path d="M932.05,509.79c-2.35.43-2.35.43-2.07-2.76C932.52,506.56,932,508.39,932.05,509.79Z" transform="translate(-770.17 -421.28)" fill="#7a0c04"/><path d="M1085.84,522.73a49,49,0,0,1-9.76,5.86,28,28,0,0,1-8.37,2.55c-2,.25-7-2.61-7.78-4.46a3.84,3.84,0,0,1,0-2.3c.15-.74.4-1.46.69-2.51-4.07,1.64-7.68,3.55-11.41,5.24s-6.44,4.49-8.81,7.83a102.27,102.27,0,0,1-10.77,13.4,11.31,11.31,0,0,1-8.77,3.53c-1,0-2,.14-3,.1-1.21-.06-2.56.86-3.6-.22a8.47,8.47,0,0,1-2.48-5.44c-.21-3.79,1.83-6.46,4.58-8.68,3.72-3,8.06-4.89,12.42-6.72a13.69,13.69,0,0,1,2.17-.84c4.23-1,6.1-4.43,8.38-7.61a2.16,2.16,0,0,0-2.39.49,50.32,50.32,0,0,1-17.15,7.5,3.08,3.08,0,0,1-2.23-.19,15.45,15.45,0,0,1-4.33-3.14c-1.69-1.72.22-3.34.06-5.16a84.29,84.29,0,0,1-10.85,5.58,59.55,59.55,0,0,1-19.15,4.31c-5.24.3-8.59-2.63-11.4-6.54a1.17,1.17,0,0,1-.28-.64c.31-2.68-1.31-1.68-2.55-1.34-5.33,1.43-10.33,3.72-15.42,5.81a38.27,38.27,0,0,1-16.87,2.63c-2.83-.16-4.84-2.18-6.64-4.22-2.12-2.39-2.22-3.85-.59-6.6a26,26,0,0,1,4.36-5.44c.37-.36,1-.73.61-1.34s-1-.25-1.47-.16a10.88,10.88,0,0,1-2.64.44c-2.82-.29-4.1,1.32-5.52,3.46-5.09,7.71-12.69,11.55-21.56,13.17a43.8,43.8,0,0,1-7.83.82,11.88,11.88,0,0,1-10.15-6.57,4.16,4.16,0,0,1,0-2.61c-.67-.42-1.16.07-1.67.28-7.84,3.26-15.77,6.29-23.74,9.22a2.3,2.3,0,0,1-2.49-.24c-2.09-1.59-4.2-3.17-6.37-4.65-1.05-.72-1-1.21-.17-2.08q10.71-11.71,21.37-23.48c2.77-3,5.56-6.09,8.34-9.14a2.41,2.41,0,0,1,2-1c3.94.11,7.88,0,12.12.41-1.34,1.5-2.54,2.86-3.76,4.19l-24.08,26.35a6,6,0,0,0-.49.53c-.39.53-.87,1.08-.39,1.77s1.15.44,1.78.21c4.06-1.45,8.11-2.88,12.16-4.35,1.46-.53,2.88-1.18,4.34-1.71a21.58,21.58,0,0,0,7-4.13c6.07-5.39,13.46-8.07,21.38-9.43a1.4,1.4,0,0,1,1.52.6c.66.84,1.42,1.61,2.16,2.39.1.11.29.14.63.31-.6-2.56.94-2.49,2.61-2.44,2.33.07,4.66.08,7,0,1.3-.06,1.72.42,1.58,1.64a17.14,17.14,0,0,1-.14,2.5c-.39,1.5.25,1.44,1.46,1.42,6.84-.12,13.06-2.75,19.47-4.61,1.78-.52,3.59-.92,5.37-1.43,1-.28,1.27.09,1.36,1,.26,2.7.23,2.74-2.39,3.65-4.51,1.57-8.43,4-11.06,8.11a11,11,0,0,0-1.67,4.31c-.33,2.14.31,2.82,2.49,2.75,13.11-.43,18.87-12.47,16.08-22.53a25.89,25.89,0,0,0-3.58-8c-1-1.44-.57-2,.83-2.57a84.35,84.35,0,0,1,11.23-3.71c4.68-1.25,9.42-2.25,14.17-3.2,1.36-.27,2-.11,1.42,1.46a19.09,19.09,0,0,0-1.06,4c-.24,1.91-1.25,2.3-3,2.39a65.94,65.94,0,0,0-13.93,2.39c-2.23.6-2.62,1.48-1.26,3.35,4.33,5.91,4.57,12.37,2.85,19.15a13.45,13.45,0,0,0-.31,1.4c-.12.81.24,1.11,1,.9l4.68-1.24a1.65,1.65,0,0,0,1.09-.84c3.78-6.78,9.86-10.36,17.1-12.36a59.42,59.42,0,0,1,12.36-2,3.07,3.07,0,0,1,2.94,1.25c4.08,5.42,4.11,5.53-.81,9.37-5.76,4.51-12.51,6.93-19.67,8.21-.89.16-2,0-1.8,1.57s1.23,1.27,2.19,1.22a59.77,59.77,0,0,0,28.81-9.47c2.48-1.56,4.84-3.3,7.25-5,3.72-2.58,8-3.76,12.32-4.67a87.59,87.59,0,0,1,9.42-1.22c1.56-.15,2.34.3,2.83,1.66.22.61.56,1.17.84,1.76-.63.51-1.23.22-1.79.22-6.94,0-13.09,1.89-17.89,7.19a10.87,10.87,0,0,0-2.72,4.58c-.35,1.38.15,2.08,1.64,1.93a23.42,23.42,0,0,0,7.89-2.25c5.16-2.5,9.23-6.34,13-10.56,1.15-1.29,2.39-2.51,3.51-3.83a1.78,1.78,0,0,1,1.58-.6c2.87,0,5.74,0,8.62,0,.43,0,1-.27,1.28.29s-.35.85-.62,1.21c-3.73,4.89-7.49,9.77-11.23,14.66a4.45,4.45,0,0,0-.93,1.83c2.93-1.3,5.86-2.58,8.78-3.91,1.52-.69,3-1.49,4.51-2.22a3.7,3.7,0,0,0,1.41-1.05c4.64-5.95,11-8.86,18.24-10a57.93,57.93,0,0,1,8.92-.75c1.26,0,3.21,2.34,2.9,3.53-.18.69-.79.39-1.2.37a26.07,26.07,0,0,0-10.2,1.66A20.63,20.63,0,0,0,1073,519a8,8,0,0,0-.92,1.94c-.6,1.68,0,2.36,1.77,2.17a21.48,21.48,0,0,0,9.78-3.25,56.35,56.35,0,0,0,13.91-12.81c.4-.52.7-1.11,1.5-1.1,3.45,0,6.91,0,10.82,0-1.77,2.2-3.28,4.08-4.81,6-2.58,3.14-5.2,6.25-7.75,9.42-.52.64-1.57,1.34-.9,2.28s1.55.19,2.34,0a39.6,39.6,0,0,0,7.12-2.43c1.78-.85,1.6.81,2.13,1.52.76,1-.07,1.32-.83,1.63-5.37,2.18-10.75,4.34-16.11,6.56a2.24,2.24,0,0,1-2.49-.31c-.6-.48-1.2-1-1.83-1.43a3.26,3.26,0,0,1-1.16-4.65A2.23,2.23,0,0,0,1085.84,522.73Z" transform="translate(-770.17 -421.28)" fill="#fdfdfd"/><path d="M1030.69,520c-1.2.79-2.58.76-4,1.05,1.06-5.14,10.13-10.69,17.21-10a13.14,13.14,0,0,1-3.44,3.12A36.36,36.36,0,0,0,1030.69,520Z" transform="translate(-770.17 -421.28)" fill="#720801"/><path d="M1078.14,520.43a12.2,12.2,0,0,1-4.16.85c1.51-5.25,10.65-10.46,17.28-9.81a21.43,21.43,0,0,1-3.64,3.17A35.18,35.18,0,0,0,1078.14,520.43Z" transform="translate(-770.17 -421.28)" fill="#720801"/><path d="M945,523.64a13.27,13.27,0,0,1,5.56-6.47,18,18,0,0,1,6.27-2.86A13.51,13.51,0,0,1,945,523.64Z" transform="translate(-770.17 -421.28)" fill="#fd0101"/><path d="M1030.69,520a16.44,16.44,0,0,1,9.8-5.79A23.56,23.56,0,0,1,1030.69,520Z" transform="translate(-770.17 -421.28)" fill="#f40805"/><path d="M1078.14,520.43a16.08,16.08,0,0,1,9.48-5.79A22.33,22.33,0,0,1,1078.14,520.43Z" transform="translate(-770.17 -421.28)" fill="#f50705"/><path d="M996,521.82c.36.56,1,.22,1.44.36a22.76,22.76,0,0,1-5.78,1.38l-.11-.42Z" transform="translate(-770.17 -421.28)" fill="#914429"/><path d="M819.92,510.58c-5.47-1.07-10.89-2-15.08-6-2.8-2.67-3-5.88-.71-9a22.42,22.42,0,0,1,7.72-6.29c9.25-5.08,19.35-7.51,29.59-9.45,11.71-2.21,23.57-3,35.44-3.7,8.78-.48,17.56-.48,26.34-.75,10.63-.32,21.27-.51,31.81-2.08,1.46-.21,2.91-.55,4.76-.9-3.14,4.85-6.46,8.65-12.46,9.19-5.12.46-10.24.88-15.37,1-12.43.23-24.87.27-37.3.54-13.74.29-27.3,1.94-40.38,6.38a49,49,0,0,0-14,7.07c-.19.14-.39.28-.57.43-4.78,3.93-5,7.87-.68,12.31C819.31,509.63,819.82,509.81,819.92,510.58Z" transform="translate(-770.17 -421.28)" fill="#fdfdfd"/><path d="M819.93,530.36a1.62,1.62,0,0,1,.7-1.26q17.21-18,34.41-36a4.48,4.48,0,0,1,3.74-1.53c3.52.11,7,0,10.49,0,.28.94-.34,1.18-.67,1.53q-17.36,18.24-34.74,36.46a1.94,1.94,0,0,1-1.49.82C828.25,530.35,824.14,530.36,819.93,530.36Z" transform="translate(-770.17 -421.28)" fill="#fdfdfd"/><path d="M906.34,547.94c.68.14,1.81-.23,1.85.81s-1.08,1-1.88,1-1.49,0-1.44-1S905.73,548,906.34,547.94Z" transform="translate(-770.17 -421.28)" fill="#f5170f"/><path d="M906.29,544.7c.72.15,1.79-.09,1.66.93s-1.25.69-2,.82-1.19-.16-1.13-1C904.93,544.42,905.8,544.87,906.29,544.7Z" transform="translate(-770.17 -421.28)" fill="#f02316"/><path d="M994.15,546c.75.16.69.79.88,1.23s0,.77-.56.77-.93.1-1-.46A2.28,2.28,0,0,1,994.15,546Z" transform="translate(-770.17 -421.28)" fill="#eb2f1e"/><path d="M900.37,526c-2.32,0-3-.78-2.68-3.06a10.9,10.9,0,0,1,2.5-5.27,23.41,23.41,0,0,1,11.62-7.64c1.93-.56,2.79.72,4,1.71s.64,1.81.35,2.75A16.22,16.22,0,0,1,900.37,526Z" transform="translate(-770.17 -421.28)" fill="#c09a65"/><path d="M986.07,519.3c-1.36,0-1.61-.55-.81-1.91a17.84,17.84,0,0,1,10.2-8.23,15.82,15.82,0,0,1,5.46-.71,2.51,2.51,0,0,1,2.43,1.2c.51,1-.2,1.82-.85,2.54a16.21,16.21,0,0,1-5.31,3.56A44.48,44.48,0,0,1,986.07,519.3Z" transform="translate(-770.17 -421.28)" fill="#bf9a65"/><path d="M1029.7,533.37c.39,0,.75,0,.88.44s-.19.91-.47,1.27q-3,3.81-6,7.58a27,27,0,0,1-3.29,3.55c-.93.79-1.51.66-2-.49a5.73,5.73,0,0,1-.18-4.52C1019.81,538.12,1026.41,533.45,1029.7,533.37Z" transform="translate(-770.17 -421.28)" fill="#bf9b66"/><path d="M902,524.1c-.81.17-1.83.55-2.36-.11s0-1.76.36-2.52a19,19,0,0,1,12.21-9.69c1.47-.42,2.41.77,2.13,2.47a3.27,3.27,0,0,1-1.37.8,20,20,0,0,0-9.82,7.71A3.24,3.24,0,0,1,902,524.1Z" transform="translate(-770.17 -421.28)" fill="#720801"/><path d="M902,524.1c2.57-5.21,6.86-8.28,12.34-9.85C912.58,519.87,907.37,524,902,524.1Z" transform="translate(-770.17 -421.28)" fill="#fd0101"/><path d="M987.78,516.67a15.92,15.92,0,0,1,12.55-6.62c.41,0,.94-.1,1.12.35s-.31.72-.59,1c-2.28,2.12-5.17,3.14-8,4.26-1.58.62-3.25,1-4.89,1.51Z" transform="translate(-770.17 -421.28)" fill="#730a02"/><path d="M1020.13,544.25c-.35-3.3,2.06-6.15,6.33-7.67C1025.86,538.14,1022.3,542.5,1020.13,544.25Z" transform="translate(-770.17 -421.28)" fill="#750e05"/></svg>