<svg id="ee998dc1-9b76-4458-a791-91fab1563b0f" data-name="Слой 1" xmlns="http://www.w3.org/2000/svg" viewBox="0 0 338.67 380.11"><title>славянка лого</title><path d="M791.06,507.52q0-92.2-.12-184.41c0-4.12.83-5,4.95-4.95q164.39.21,328.77,0c4.12,0,4.95.83,4.95,4.95q-.21,185.1,0,370.21c0,4.12-.83,4.95-4.95,4.95q-164.38-.21-328.77,0c-4.12,0-5-.83-4.95-4.95Q791.2,600.42,791.06,507.52Z" transform="translate(-790.94 -318.16)" fill="#fefefe"/><path d="M843.59,662.12c-5.84-4.18-11.6-1.48-17.4.14-8,2.26-10.74,1.24-14.41-6.09a14.42,14.42,0,0,0-4.06-4.52c-9.23-7.84-11.51-16.21-7.44-27.69,3.86-10.92,12-18.33,20.94-25,2.73-2,6.2-2.57,9.09-.46,7.6,5.54,17.54,8.79,19.43,20a11.49,11.49,0,0,0,6-5.08c.41-5.16-1.76-9.08-5.19-12.89-25.25-28.05-39.11-60.39-39.49-98.76-.34-34.61,9.53-65.36,30.63-92.36,24.43-31.25,56.51-50.07,96-55.71,69.93-10,137.07,30.53,159.86,98.18,16.57,49.21,8.77,95.8-22.48,137.82-2.72,3.65-4.74,6.72-1.6,10.91,3.89,3.54,5.12,8.44,6.49,13.56,3.39-2.71,6.39-4.78,7.46-9.06s4.53-6.83,9.24-6.83c15.91,0,23.11-3,21.88,20.24-.58,11-.1,22-.08,33.06,0,5.05-1.64,8.94-7,10.37a68.5,68.5,0,0,0-17.81,0c-3.28-2.25-6.54-.9-9.8.07-17-.44-34-1.42-51-.07l-2.88.09a50.85,50.85,0,0,0-16.47,0,340,340,0,0,1-40.13.12,357.27,357.27,0,0,0-48.31,0l-44.29-.14a49.22,49.22,0,0,0-16.47.08l-2.82.07A53,53,0,0,0,843.59,662.12Z" transform="translate(-790.94 -318.16)" fill="#e91f27"/><path d="M1073.46,600.69c-6.76-2-5.56-4.77-1.87-9.55,34.59-44.93,42.45-94.61,21-146.82-21.15-51.45-61-81.51-116.43-88.85a144.25,144.25,0,0,0-148,78.52c-27.94,55.89-18.1,121.77,25.14,166.88,3.83,4,5,7.77,2.5,12.63-29.44-26.81-46.47-59.91-49.83-99.67C800.51,449.76,832.51,392.1,889.32,363c92.38-47.38,207.74,12.94,220.6,115.56C1115.68,524.45,1103.69,565.36,1073.46,600.69Z" transform="translate(-790.94 -318.16)" fill="#fcf402"/><path d="M1032.86,662a92.93,92.93,0,0,1,23.31-1.44c6.83.32,13.68.15,20.51.34,2.41.07,5.06-.87,7.17,1.17-4.38,2.59-9,.52-13.45.45C1057.89,662.31,1045.36,663.26,1032.86,662Z" transform="translate(-790.94 -318.16)" fill="#e51214"/><path d="M925.07,662.19c1.57-1.92,3.75-1.3,5.72-1.31q18.44-.07,36.86,0c2,0,4.16-.6,5.73,1.31Q949.21,663.08,925.07,662.19Z" transform="translate(-790.94 -318.16)" fill="#e10305"/><path d="M1074.08,667.39h-17.82v-.63h17.83Z" transform="translate(-790.94 -318.16)" fill="#ccc"/><path d="M843.59,662.12a25.87,25.87,0,0,1,17.9.08A83,83,0,0,1,843.59,662.12Z" transform="translate(-790.94 -318.16)" fill="#e30407"/><path d="M1093.65,662a29,29,0,0,1,17.81,0A59.74,59.74,0,0,1,1093.65,662Z" transform="translate(-790.94 -318.16)" fill="#e2030b"/><path d="M846.34,666.66h14.8l0,.62H846.57Z" transform="translate(-790.94 -318.16)" fill="#ccc"/><path d="M864.31,662.13a23.69,23.69,0,0,1,16.47-.08A61,61,0,0,1,864.31,662.13Z" transform="translate(-790.94 -318.16)" fill="#e10407"/><path d="M1013.51,662.07a24,24,0,0,1,16.47,0A58.63,58.63,0,0,1,1013.51,662.07Z" transform="translate(-790.94 -318.16)" fill="#e20305"/><path d="M879.4,667.48H866l0-.61h13.15Z" transform="translate(-790.94 -318.16)" fill="#cdcdcd"/><path d="M1110,667.49h-13.37l0-.63h13.17Z" transform="translate(-790.94 -318.16)" fill="#cfcfcf"/><path d="M1037.08,666.76h11v.69H1037Z" transform="translate(-790.94 -318.16)" fill="#cacaca"/><path d="M1045.23,571.06c-.39,1.48-1.44,1.32-2.54,1-2-1.37-1.9-3.53-2-5.54a38.53,38.53,0,0,0-5.8-18.69c-2.06-3.34-5.12-5.59-8.41-7.57-4.3-2.72-9.13-4.34-13.68-6.52-5.32-2.58-11.41-3.39-16.24-7.08-.93-3.32,1.58-3.84,3.74-4.34,2.9-.66,4.27-2.36,4.21-5.23-.13-5.85.81-11.73-.62-17.52-.84-3.16-.22-6.52-1.34-9.63-1.78-5.82-1.78-11.32,2.9-16,10.74-5.59,18.29-14.16,23.29-25.1a24.05,24.05,0,0,0,1.77-4.66c2.07-4.8,2.09-9.83,1.55-14.89-.22-2-1-4.06.36-6,3.29-1.21,4.39,1.68,6,3.36,16.93,17.83,25.75,39.18,28.14,63.53,2.34,23.94-3,45.91-15.35,66.39C1048.52,561.15,1045.22,565.43,1045.23,571.06Z" transform="translate(-790.94 -318.16)" fill="#fecb00"/><path d="M863.16,560.16c-42-66.2-3.34-155.41,73.58-169.79a32.86,32.86,0,0,1,3.43-.31c1.05,2.59-1,3.81-2.34,5.36-3.67,3-8.28,3.88-12.59,5.45-41.62,15.15-65,44.84-70.54,88.68-.08.68-.22,1.36-.36,2a53.36,53.36,0,0,0,0,18.18A18.26,18.26,0,0,1,855,513a94.08,94.08,0,0,0,6.87,26.53c1.34,4.74,4.8,8.66,5.34,13.72C867,556.19,866.88,559.22,863.16,560.16Z" transform="translate(-790.94 -318.16)" fill="#fdf302"/><path d="M863.16,560.16a12.71,12.71,0,0,0,2.74-7.25c-.21-9.47,5.75-15.86,11.22-22.51,3-2,5.45-4.88,9.2-5.64,4-.39,6.73,1,8.47,4.91,1.93,4.39,7.56,5.73,9.38,10.41,1.25,5.33,2.42,10.67,1.93,16.2-.18,2-.11,4.37-2.28,5.36s-3.85-.72-5.25-2.19c-1.12-1.18-2.18-2.32-3.86-2.6-1.93-.61-2.53-2.33-3.54-4.67.26,5.93,4.71,10.19,3.43,15.68-5.69,3.67-24.52,4.85-30.55,1.92C861.75,566.76,863.4,563.37,863.16,560.16Z" transform="translate(-790.94 -318.16)" fill="#f65f73"/><path d="M1007.72,652.18a3.89,3.89,0,0,1-.66.21c-11.58,1.42-11.57,1.42-11.55-10.09,0-8.92.42-17.88-.15-26.77-.4-6.08,1.39-8.46,7.45-7.38a40.13,40.13,0,0,0,4.79.3c1.72,2.68,1.35,5.44.26,8.21,7.33,2.21,7.91,2.12,8-4.56,0-5.18,3.37-3.76,6.06-3.89,3-.15,5.89-.73,5.77,4.18-.28,11.94-.36,23.91,0,35.85.18,5.37-3,4.39-6.13,4.62-3.76.27-5.69-.28-5.76-5-.13-8.58,1.57-17.26-.95-25.75-4.59-.46-6.42,1.21-6.4,6.2C1008.49,636.26,1009.65,644.28,1007.72,652.18Z" transform="translate(-790.94 -318.16)" fill="#fdfbfa"/><path d="M1071.51,645.65c-.39,2.33,1.6,6-1.48,6.69-3.9.89-8.16.15-12.26,0a2.33,2.33,0,0,1-.41-1.65c2.75-9.35-4.27-14.59-9.53-20.94,0,6.28-.27,12.57.08,18.83.31,5.66-3.57,4-6.45,4.21-3.07.2-5.84.5-5.71-4.32.32-11.24,0-22.51.21-33.76,0-2.41-2.09-6.73,3.26-6.46,3.68.19,9.08-2.46,9.1,5.59a20.13,20.13,0,0,1,11.89-6.4c4-.58,7.31,0,8.77,4.5,1.65,5.06-2.87,4.75-5.3,6.23a23.68,23.68,0,0,1-3.25,1.39c-2-2.2,2-6.74-2.56-7.29-3.62-.43-6.59,1.68-8.68,4.69s-1.74,6.07.54,8.87c2.64,3.24,6,5.59,9.44,8,4.7,3.31,9.14,6.92,12.33,11.82Z" transform="translate(-790.94 -318.16)" fill="#fdfcfb"/><path d="M919.34,652.27a7.28,7.28,0,0,1-1.34.33c-10.51.9-10.51.9-11.3-9.47-4.62,3.37-8.72,7-13.77,9.14-5.37,2.22-7.93.61-7.92-5.17,0-10.4,5.55-18.11,12.27-25.42,3.56-3.87,8.69-6,10.52-12.15,1-3.33,7.41-.92,11.38-1.09,2.1,3.83,1,8,.92,11.95C919.82,631,921.32,641.69,919.34,652.27Z" transform="translate(-790.94 -318.16)" fill="#fdfbfb"/><path d="M1074.39,643.17c2.76-10.89,9.33-19.19,17.78-26.26,1.84-1.55,4-2.78,4.56-5.7,1.07-5.9,5.81-2.28,8.82-2.88,3.63-.73,3,2.4,3,4.59,0,11.7-.26,23.41.14,35.1.17,5.06-2.45,5-5.9,4.79-3-.18-6.93,1.11-6.22-4.38a51.41,51.41,0,0,0,0-5.69c-4.88,3.84-8.92,7.16-13.64,9.39-3.14,1.49-6.12,2-8.44-1.42C1073.16,648.23,1072.79,645.72,1074.39,643.17Z" transform="translate(-790.94 -318.16)" fill="#fdfbfb"/><path d="M1045.23,571.06c-3-3.68-.94-6.89,1.1-9.95a109.07,109.07,0,0,0,17.05-40.79c4.87-26.17.53-50.72-12.33-73.9-4.8-8.65-11.36-15.9-18.11-23-2.14-2.14-3.61-4.38-1.15-7.25C1077.4,454.71,1083.57,525.84,1045.23,571.06Z" transform="translate(-790.94 -318.16)" fill="#fcf402"/><path d="M861.48,629c-4.93,7.28-4.88,15-1.8,22.93-2.16,1.56-4.48.8-6.64.83-8.9.1-10.35-2.11-6.73-10.6s9.64-15,16.53-20.83c2.67-2.25,4.61-4.35,3.89-8-1-5.28,2.28-5.16,6-5.24s5.83.41,5.68,5.09c-.35,11.47-.31,23,0,34.43.12,4.34-1.24,5.64-5.43,5.29-3.46-.3-6.8.61-6.41-5.07.53-8,.18-16.05.19-24.09,0-.21-.15-.59-.24-.6a4.27,4.27,0,0,0-1,.19C864.27,625.26,864.3,628.17,861.48,629Z" transform="translate(-790.94 -318.16)" fill="#fdf9f9"/><path d="M938,631.13c8.32,3.38,14,8.47,16.76,16.31,1.2,3.34,1.24,5.7-3.62,5.46-6.64-.33-13.32-.27-20,0-3.78.15-4.68-1.38-4.54-4.84.23-6,0-11.94.06-17.91.1-11.28,10.83-21.29,22.12-20.7,5.1.27,6.69,3.47,3.77,8C949.07,622.85,943.7,626.5,938,631.13Z" transform="translate(-790.94 -318.16)" fill="#fdf9f9"/><path d="M971.72,652.14a50.21,50.21,0,0,1-6.78.6c-2.17-.07-5.18,1.28-6.35-1-1.41-2.67.67-5.26,2.31-7.47,4.19-5.62,10.36-8.79,16.58-12.62-5.46-4.16-10.89-7.54-14.73-12.7-1.72-2.29-3-4.78-1.38-7.58s4.38-2,6.84-1.75c12.26,1.46,19.51,9.76,19.52,22.22,0,5.28-.3,10.58.1,15.82.34,4.55-1.63,5.21-5.58,5.25s-5.15-1.31-4.93-5.13c.23-4.08-.13-8.19-.25-12.29,0-.06-.3-.18-.42-.14a2.58,2.58,0,0,0-.58.37C973.57,640.94,972.74,646.57,971.72,652.14Z" transform="translate(-790.94 -318.16)" fill="#fcfbfa"/><path d="M825.41,650.89c6.6-3.72,8.32-8.27,5.78-14.19.34-.3.48-.54.64-.55,3.32-.23,8.12-1.95,9.5.74,1.59,3.09-1.86,6.66-4.17,9.53a18.7,18.7,0,0,1-7.77,5.55c-3.84,1.53-7.88,4.14-9.62-2.83-.46-1.84-3.14-3.19-4.92-4.62-6.82-5.45-8.08-10.54-4.7-18.71,3-7.29,9.14-11.95,14.39-17.36.79-.81,1.5-1.49,2.83-.44,3.23,2.55,6.83,4.67,9.89,7.39,2.24,2,4.14,5.28,3,8-1.16,2.86-4.85.93-7.39,1.32-2.78.42-3.75-.77-3-3.56a6.31,6.31,0,0,0-.13-3.39c-.69-2.19-2-4.64-4.1-5.05s-3.18,2.36-4,4.05c-3,5.83-3.79,11.85.16,17.62C825.15,639.18,827.88,644.07,825.41,650.89Z" transform="translate(-790.94 -318.16)" fill="#fcfbfa"/><path d="M1035.63,546.21c6.52,7.49,6.9,16.66,7,25.89,1.22,6.58,2.68,13.13,2.43,19.89-2.77,1-5.18-1.12-7.86-.87-1.88.27-3.51,1.4-5.43,1.53a4.64,4.64,0,0,1-2-.53c-7.58-5.41-7.58-13.94-7.82-21.69-.2-6.72,1.24-13.63,3.21-20.23S1029.4,542.88,1035.63,546.21Z" transform="translate(-790.94 -318.16)" fill="#cb1c26"/><path d="M980.4,602.65a2.87,2.87,0,0,1-2.89-1.06c-1.34-4.72-6.59-5.84-8.91-9.67-.59-2.89.71-4.5,3.46-5.11,3.72-.45,5.3-2.93,5.81-6.3.36-2.41,1.09-4.39,3.94-4.61,5.5,2.88,6.26,2.56,8.05-3.43a25.44,25.44,0,0,0,.77-4.59c1.52-4.8,6-2.61,9.07-3.9,4.5-1,5.67-4.48,6.66-8.32.69-2.66.47-6,4.14-7,2.19,1.71,1.79,4.07,1.37,6.29-.8,4.25-2.09,8.38-1.76,12.83.21,2.8-1.73,4.63-4.31,5.54s-4.3-.19-4.91-1.36c6,3.39,3.4,7.46-1.09,11.52-1.21,1.09-1.6,2.74-2.34,4.16a52.83,52.83,0,0,0-3.91,5.12A11.37,11.37,0,0,1,992,595c-3.84,3.76-4.42,3.56-5.88-1.92C980.55,594.11,985,601.05,980.4,602.65Z" transform="translate(-790.94 -318.16)" fill="#f6af06"/><path d="M875.43,598.42c-3,.15-6.78,1.79-7.26-3.44-.74-1.46,0-2.54.87-3.62a40.15,40.15,0,0,1,10.42-7.22,7,7,0,0,1,4.86.71c2.24,1.15,4.55,2.26,4.27,5.31a14.72,14.72,0,0,1,7.59-5.19,9.23,9.23,0,0,1,5.1.34c2.55,1.53,4.42,3.33,2.64,6.59-1.74,2.09-2.29,4.34-.81,6.83-2.75,1.78-5.16,4-5.59,7.36s-2.78,3.45-5.42,3.62c-3,.19-4.08-1-4.21-3.84s-2.7-4.62-4.33-6.76C881.65,589.51,878.14,598.65,875.43,598.42Z" transform="translate(-790.94 -318.16)" fill="#ddc782"/><path d="M992.44,373.74a1.55,1.55,0,0,1,1.79,1.12c2.91,5.42,7.85,8.8,12.55,12.42l2.58,1.61c3.86,1.33,3.74,6.23,7.13,8a1.9,1.9,0,0,1,0,1.75c-1.28.65-3.68.92-.91,2.88.3.21.3.79.37,1.22a3.63,3.63,0,0,1-.9,2.77c-2.4.67-3.77-1-5.34-2.28-5.19-8-13.74-12.71-19.35-20.36-3-4.07-6.71-4.93-11.8-1.44-6,4.1-13.34,5.95-20,9.08-5.77,2.71-10,6.28-12.48,12.09-.55,1.29-.86,3.4-3.26,2.44-2.9-4.94-.44-8.89,2.84-12.13,7.33-7.26,15.87-12.63,26.23-14.55,2.11-1.28,4.43-2.34,5.52-4.81a3.28,3.28,0,0,1,3-1.3C984.42,372.64,988.62,371.67,992.44,373.74Z" transform="translate(-790.94 -318.16)" fill="#fc897a"/><path d="M865.72,582.86c-4.88-2.94-3.07-6.74-1.34-10.52,6.77.71,13.27-4.41,20.27-.76,1.75.91,4-.72,6.08-.53a5.78,5.78,0,0,1,5.12,3.89,14,14,0,0,1,0,7.83,5.87,5.87,0,0,1-1.91,2.59,8.22,8.22,0,0,1-8.67.29c-3.16-3-6.13-2-9,.45C872,587.28,868.11,587.5,865.72,582.86Z" transform="translate(-790.94 -318.16)" fill="#f15769"/><path d="M936.52,601.72c-4.22,3.38-8.16,5.12-11.58-1.15-.62-1.14-2.71-1.47-4.12-2.18-6.91-1-6.91-1-2.81-7.32a65.43,65.43,0,0,1,9.24-9.73c5.34-2.85,8,2.61,11.94,3.91a8.24,8.24,0,0,1,2.93,2.38C942.9,593.37,938.06,596.89,936.52,601.72Z" transform="translate(-790.94 -318.16)" fill="#e6e7af"/><path d="M941.65,587.8l-2.91-1.28c0-3.69-6.78-3-5-7.82,10.61,1.61,17-4.1,21.87-12.55,3.71-1.52,7.1.21,10.59,1,4.66,2,4.68,5,1.57,8.44-2.43,2.7-5,5.23-8.71,6.16-4.15-1-7.56-.38-9.26,4.14-2.53,1.71-2,4.4-2.25,6.87-.27,2.64.34,5.75-3.17,6.92l-2.66.4c-2.16-2.51-.3-5,.11-7.47C942.09,591,943.52,589.35,941.65,587.8Z" transform="translate(-790.94 -318.16)" fill="#efd57a"/><path d="M1035.63,546.21c-5.69-2-8.33.22-9.31,6-1.75,10.31-3.68,20.39-.75,31,1.11,4,4.18,5.71,5.9,8.76.21,2.31-1.26,3.35-3.1,4.12-2.18-2-2.11-5.74-5.22-7.09-.91-1.52-2-2.94-2.87-4.5-4-8.34-1.8-16.62.2-24.92,1.38-4.88.37-10.07,2-14.91.83-2.57,1.08-5.61,4.86-5.59A19.33,19.33,0,0,1,1035.63,546.21Z" transform="translate(-790.94 -318.16)" fill="#a81317"/><path d="M1012,598.64l-19.33,0c-.29-1.1.35-1.71,1.17-2.22,3.09-2-.88-7.48,4.1-8.63,3.12-6.53,8.45-4.73,13.6-3.62-.13,1.18,1.61,7.26,2.67,8.77C1016.38,596,1014.25,597.3,1012,598.64Z" transform="translate(-790.94 -318.16)" fill="#f2741a"/><path d="M973.36,379a66.94,66.94,0,0,0-24.79,13.07c-4.17,3.36-6.4,7.67-5.54,13.2,0,.31,0,.61,0,.92-.9,2.15.13,5.07-2.55,6.53-3.76-.63-3.22-3.51-2.6-5.82,1.59-5.91,2.62-12.06,6.17-17.27a7.8,7.8,0,0,0,.26-2.55,7.73,7.73,0,0,1,5.85-2.36c2.81,1.44,4.53-.38,6.48-2C961.55,378.7,967.07,377.06,973.36,379Z" transform="translate(-790.94 -318.16)" fill="#fc5c4a"/><path d="M1036.05,401.64c-6.41,1.9-5.44-4.17-5.68-6.83-.35-3.81,2.93-4.05,6.64-4.41,6.47-.63,5.14,4.43,5.51,7C1043.09,401.26,1040.24,402.91,1036.05,401.64Z" transform="translate(-790.94 -318.16)" fill="#f8cb03"/><path d="M890.54,572.45c-3.27.58-6.54,2.55-9.72-.46-1.31-1.24-3-.88-4.52,0-3.91,2.17-7.91,1.43-11.92.4l-.33-2.56c10.15-1,20.57.74,30.48-2.86a4.25,4.25,0,0,1,2.65-1.33,7.32,7.32,0,0,1,3,.43c1.59.73,3,1.6,3.46,3.47a3.31,3.31,0,0,1-.55,1.88,4.09,4.09,0,0,1-2.78.65C897,571.75,893.76,571.33,890.54,572.45Z" transform="translate(-790.94 -318.16)" fill="#a64f59"/><path d="M994,597.22l-1.35,1.37c-1.67,1.19-4,2-4.86,3.64-2.48,4.75-4.85,2.46-7.43.42,4-2.38-3.56-8,2.63-9.64,1.68-.45,1.26-4.24,4.51-2.28s-.61,3.89.4,5.68c2.74-.51,2.87-3.46,4.77-4.61C996.3,592.83,995.36,595,994,597.22Z" transform="translate(-790.94 -318.16)" fill="#f8c427"/><path d="M944.37,599.67c2.17-3.1,1.24-6.64,1.28-10,0-2.9.51-5,4-5,1.92-1.37,3.77-3,6.41-2.05a2.09,2.09,0,0,1,1.19,1.43c-.44,3-3.18,3.26-5.59,4,1.39,1.48,3.06,2,3.86,3.44.93,2.92,3.89,5.88-.14,8.71Z" transform="translate(-790.94 -318.16)" fill="#dda940"/><path d="M836.65,499.49c-4.8-3.24-8.09-6.13-12.77-5.86-3.35.19-2.48-2.45-2.51-4.36,0-2.27.38-4,3.37-3.82,4,.2,8.31,1.94,12.3-1.53C834.29,488.76,834.68,493.42,836.65,499.49Z" transform="translate(-790.94 -318.16)" fill="#f9ad03"/><path d="M955.35,600.21c1.26-3-.41-5.69-1.09-8.48.58-1.41,1.48-2.06,3-1.31,1.91,1.93,4.15,3.47,6.29,5.59,2.73-3.92-.47-9.2,3.63-12.25,6.33-1.79,7-1.36,6.28,4-2.7.06-4.28,1.24-4.12,4.14,1.42,2.62,2.35,5.24.1,7.9Z" transform="translate(-790.94 -318.16)" fill="#ec7422"/><path d="M1081.52,446.17c-2.39-1,.1-5.25-3.15-4.44-2.92.72.05,3-.23,4.62-.4,2.29-1.48,4.07-3.76,4.33-3.56.4-4.26-2.81-5.66-5.1s-.34-3.26,1.7-4.06c1.5-.58,2.85-1.6,4.38-2,1.77-.46,3.46-3.49,5.27-1.08C1081.52,440.36,1084.06,442.61,1081.52,446.17Z" transform="translate(-790.94 -318.16)" fill="#f7c004"/><path d="M1012,598.64c2-2.3,3.12-4.62-.52-6.37-6.41-3.09-4.85-5.35.65-7.32,3.23-2.69,6.47-2.37,9.73-.06,1.36,1.09,1.14,2.66,1.27,4.12-2.43-1.83-4-.38-5.41,1.46-.55,0-1.44-.62-1.57,0-.22,1,.87,1,1.56,1.3,1.89,1.12,3.3,2.7,2.1,4.86C1018.05,599.79,1014.77,598.46,1012,598.64Z" transform="translate(-790.94 -318.16)" fill="#e33a20"/><path d="M1007.72,652.18c-.08-8.46-.05-16.92-.28-25.38-.17-6,2.22-7.44,7.42-4.69v30.21l-1.41,0c0-7.37.14-14.75-.09-22.11-.07-2.15,1.64-6.06-2.17-6-3.05,0-1.75,3.69-1.8,5.74-.18,7.35-.11,14.71-.15,22.07,0,.16-.25.45-.36.44A7.87,7.87,0,0,1,1007.72,652.18Z" transform="translate(-790.94 -318.16)" fill="#e61b1f"/><path d="M919.43,591.55l-3.49,5.09,4.88,1.75-11-.22c-2-1.7-6.4-2.19-3.37-6.51a26.35,26.35,0,0,1,3.31-3.37,9.21,9.21,0,0,1,4.49-1.77C917.55,586.53,918.91,588.61,919.43,591.55Z" transform="translate(-790.94 -318.16)" fill="#dbae57"/><path d="M833.22,532.32c3.94,0,6.72,1.86,6.87,5.41.19,4.13-2.62,6.7-6.81,7-4,.31-7-1.88-7-5.74C826.21,534.9,829.22,532.63,833.22,532.32Z" transform="translate(-790.94 -318.16)" fill="#f8cc03"/><path d="M943.47,378.82c.91-3.23,3.82-5.61.31-8.48-1.58-1.29-.88-3.39.69-4.8a7.42,7.42,0,0,1,6.41-1.65c2.27.34,1.75,2.3,1.89,3.8.18,2.05.24,4.1.4,6.15.1,1.25,1.17,2.78-.87,3.37-1.39.4-1.9-.49-2.29-1.76-.87-2.89-1.72-.68-2.38.15C946.66,376.84,946,378.39,943.47,378.82Z" transform="translate(-790.94 -318.16)" fill="#f8cd03"/><path d="M1092.36,472.46c-.08,2.94-1.49,6.13-4,5.3-3.53-1.15-6.44-4.2-9.62-6.44,2.79-3.36,7.08-2.52,10.64-3.43S1091.68,470.76,1092.36,472.46Z" transform="translate(-790.94 -318.16)" fill="#f7cb04"/><path d="M865.34,402.26c2.51.37,4.41,1.91,3.34,5-.82,2.32-2.54,4.23.18,6.46.93.76-.23,1.64-.89,2.11-1,.68-1.63-.11-2.26-.77a49.1,49.1,0,0,1-4.62-5c-.88-1.23-4.08-1.47-2.28-4C860.25,404.05,862.08,402.26,865.34,402.26Z" transform="translate(-790.94 -318.16)" fill="#f8d104"/><path d="M1086.16,534.64l3.53,5c-4.51-4.3-9.17-3.26-14.33-.34,2.37-3.68,2.37-3.68,6.47-5.85-.32-1.88-4.53-.91-3.18-3.8,1.07-2.28,2.75-.49,4.12-.24a17.67,17.67,0,0,1,4.6,1.25c1.42.7,4.42-.59,4.08,2.33C1091,536.68,1088,532.87,1086.16,534.64Z" transform="translate(-790.94 -318.16)" fill="#f8c303"/><path d="M1032.78,591.63l4.37-2.47c2.51,2,5.94,2.61,8,5.34,0,1.33,0,3.77-1,3.54-5.09-1.26-10.49,3.05-15.32-.92C1029.8,595,1032.48,594.19,1032.78,591.63Z" transform="translate(-790.94 -318.16)" fill="#b31b1d"/><path d="M844,560.32c2.15,1.42,4.08-3.1,5.44,0s-2.46,2.36-3.71,3.61a7.41,7.41,0,0,1-3,1.64c-1.69.53-3.25,3.65-5.16.87s3.42-1.84,2.66-4.29c-1.57-1.82-4.66.31-6.48-3.22,6.68,2.14,9.46-1.72,11.77-6.91C847.52,555.7,844.72,557.59,844,560.32Z" transform="translate(-790.94 -318.16)" fill="#f8cb02"/><path d="M934.21,380.84c-5.56-1.42-9.87-7.51-12.22.61.19-3.53.41-7.05.57-10.59.05-1.19.22-2.42,1.49-2.73s2,.71,2.67,1.7C928.82,373,931,376.07,934.21,380.84Z" transform="translate(-790.94 -318.16)" fill="#f8c603"/><path d="M1051.12,419.32c.3-2,1.78-2.07,2.66-2.27,3.63-.83,8.63-4.83,10.39-2.23,2,3-3.22,6.68-4.74,10.34-.3.72-.64,2-1.89,1.32-.54-.28-1.31-1.22-1.19-1.45C1059.47,418.93,1054.42,419.64,1051.12,419.32Z" transform="translate(-790.94 -318.16)" fill="#f8c403"/><path d="M1031.79,416.18c.38,2.41.76,4.83,1.15,7.24.92,7.32,3.19,14.72-1.2,21.74-2-1.3-2.27-3.42-2.21-5.43.26-8.22-.85-16.29-2.28-24.34.43-1.52.32-3.58,2.91-3Z" transform="translate(-790.94 -318.16)" fill="#f8d178"/><path d="M1072.66,557.38c2,3,7.32,5.41,6,8.19-1.68,3.44-6.49-.21-10-.11-1.26,0-3.69.83-3.56-1.8.09-1.82,1.62-1.55,3.1-1.5C1071.1,562.26,1070.5,558.72,1072.66,557.38Z" transform="translate(-790.94 -318.16)" fill="#f8c204"/><path d="M971.72,652.14c-2.73-6.57-.3-11.78,4.35-16.39,0,4.37.11,8.74,0,13.1C976.08,651.73,975.36,654,971.72,652.14Z" transform="translate(-790.94 -318.16)" fill="#e71921"/><path d="M905.46,380.52l6.8,6c-3.52,1.2-5.3-2.19-8-2.61-2,1.74,3.33,4.54-.54,5.51-2.88.72-2-3-3.3-4.31a4.66,4.66,0,0,1-1.16-2.46c-.27-1.77-3.55-3.66-.64-5.21,2.45-1.29,1.93,2.4,3.41,3.15a.64.64,0,0,0,.62-.16,8.17,8.17,0,0,0,.57-1.24C904.47,378.72,905.06,379.45,905.46,380.52Z" transform="translate(-790.94 -318.16)" fill="#f9d003"/><path d="M831.46,511.9c-.9.93-3,.79-2.85,2.54.13,1.91,1.87,1.56,3.19,1.64,1.48.08,3.62-.61,3.34,2-.19,1.8-2,1.51-3.32,1.63-1.83.16-3.66.35-5.49.33-1.41,0-3.41,1.68-4.12-.69-.79-2.61,1.88-1.77,3-2.53,3-2.06,1.48-3.2-1-4C826.28,509.52,828.78,510,831.46,511.9Z" transform="translate(-790.94 -318.16)" fill="#f6c303"/><path d="M857.3,427.93c-1.28,2.35-1.74,5.92-4.54,4.43-3.28-1.74-7.51-3.41-8.72-6.95-.58-1.72,1.94-5.22,5.2-6.09,2,2.76-5,4-1.14,5.66C850.83,426.17,852.36,432.55,857.3,427.93Z" transform="translate(-790.94 -318.16)" fill="#f8ce03"/><path d="M919.34,652.27q-.09-21.91-.16-43.83c.36.28,1,.54,1,.85,1.28,14.38.79,28.77.29,43.16,0,.07-.38.19-.57.16A2,2,0,0,1,919.34,652.27Z" transform="translate(-790.94 -318.16)" fill="#e30508"/><path d="M846.26,447.57c-.75,2.45-2.35.78-3.65,1-2.78.46-5-7.19-8.12-.49-.45,1-2.24-.88-1.94-1.74A51.29,51.29,0,0,1,836,439c.18-.33,1.23-.19,1.88-.27-1.59,7,5.58,4.79,7.93,7.64A4,4,0,0,1,846.26,447.57Z" transform="translate(-790.94 -318.16)" fill="#f7c903"/><path d="M941.65,587.8c2.84,0,2.77,1.59,2.2,3.66-.78,2.85-1.44,5.74-2.14,8.61l-5.19,1.65C935.12,595.93,941.07,592.85,941.65,587.8Z" transform="translate(-790.94 -318.16)" fill="#e4e7bb"/><ellipse cx="89.22" cy="312.45" rx="0.33" ry="28.92" fill="#e30307"/><path d="M865.72,582.86c3.51,1.45,6.89,3.81,11,1.74,1.14-.34,2.31-.8,3,.75l-9.59,6.16a33,33,0,0,0-7.12-4.12C862.24,584.88,863.68,583.69,865.72,582.86Z" transform="translate(-790.94 -318.16)" fill="#7d9c62"/><path d="M1029,650.52V610h.63v41.12Z" transform="translate(-790.94 -318.16)" fill="#e2030b"/><path d="M973.36,379c-6.48-.63-12.3.66-17.11,5.44-1.78,1.76-4,2.28-6.07.28,5.72-.45,8.46-7.1,14.41-7,4.8.1,8.84-1.89,12.78-4.27C977.5,376.43,975.52,377.8,973.36,379Z" transform="translate(-790.94 -318.16)" fill="#fcb82e"/><path d="M885.41,387.6c-2.68.94-5.66,1.31-4.58,5.16s3.41,6.09,9.31,4.18c-3.86,3.74-6.68,3.82-9.5,1.78a6.66,6.66,0,0,1-2.38-8.53C879.47,387.43,881.8,385.72,885.41,387.6Z" transform="translate(-790.94 -318.16)" fill="#f7cb03"/><path d="M969.45,599.78c0-2.63-.06-5.27-.1-7.9,3.29,2.76,10.23,2.45,8.16,9.71Z" transform="translate(-790.94 -318.16)" fill="#f1c421"/><path d="M906.88,592c1,.85-2.72,4.17,2,3.3,3.14-.58.13,2.06.95,2.91l-6.68.55c-.76-1.64-3.77-.24-3.19-.74,2-1.74-1.88-6.27,3.05-6.12C904.28,591.54,905.62,590.29,906.88,592Z" transform="translate(-790.94 -318.16)" fill="#ed9e19"/><path d="M1030.16,412.36c-1.38.6-1.3,2-1.65,3.11-.69-.08-1.56-.3-1.72-.89-1.78-6.51-6.37-11.11-10.71-15.88a3,3,0,0,0-.15-1.27,1,1,0,0,1,.57-1.61C1023.67,399.18,1028,404.9,1030.16,412.36Z" transform="translate(-790.94 -318.16)" fill="#f3c206"/><path d="M1088.35,503.21l7.58,4.33c-4.58,2.38-8.44.87-12.08,1.29a1.74,1.74,0,0,1-2.15-1.94c0-1.8,1.26-1.43,2.41-1.33,1.62.14,3.87,1.32,3.74-1.95Z" transform="translate(-790.94 -318.16)" fill="#f7d303"/><path d="M832.83,467.19c.85.73,1.72,1.45,2.55,2.21s2.9,1,2.19,2.89c-.91,2.37-2.79,1.08-4,.53-2.94-1.3-8.52-.4-8.41-3.9.13-4.12,5,2,7.05-1.18Z" transform="translate(-790.94 -318.16)" fill="#f8c704"/><path d="M861.48,629c.84-2.28,1.8-4.47,4.11-5.69q0,13.9,0,27.81h-1.31c0-5.65-.17-11.31.07-16.95C864.46,631.65,864,629.91,861.48,629Z" transform="translate(-790.94 -318.16)" fill="#e10709"/><path d="M832.19,467.74c-1.62-2.23-6.33-3.29-5.23-5.93,1.26-3,4.72.17,7.13.56,1.76.29,5.73-.18,5,2.9-.82,3.67-3.65-.38-5.49.36-.41.17-.55,1-.81,1.56Z" transform="translate(-790.94 -318.16)" fill="#f8c704"/><path d="M863,587.39c4.19-1.75,6.66-.56,7.12,4.12l-1.9,3.47-2.42-.54c-1.12-.83-3.9.11-3-2.84Z" transform="translate(-790.94 -318.16)" fill="#d8d08c"/><path d="M1087.85,503.61c-1.48-.59-2.93-1.27-4.44-1.72-1.09-.33-1.58-.93-1.22-1.95.2-.56.9-1.46,1.21-1.4,3.78.75,8-.78,11.67,1.7-1.72,3.1-5.38.11-6.72,3Z" transform="translate(-790.94 -318.16)" fill="#f7d602"/><path d="M875.43,598.42c.7-.54,1.91-1,2-1.63.45-2.78,1.1-5.61,4.63-4.09,2.59,1.12,3.3,3.72,1.49,6.41Z" transform="translate(-790.94 -318.16)" fill="#ef9d1f"/><path d="M1006.78,387.28c-6.45-1.85-10.93-5.7-12.56-12.42C998.48,378.93,1003.73,382,1006.78,387.28Z" transform="translate(-790.94 -318.16)" fill="#fb9b0f"/><path d="M989,651.08V625.22h.57v25.86Z" transform="translate(-790.94 -318.16)" fill="#e30107"/><path d="M929.32,654.4h24.3l0,.48h-24.3Z" transform="translate(-790.94 -318.16)" fill="#e2050a"/><path d="M831.46,511.9c-2.46-.15-5-1-7.23.89-2,.45-3.78-1-1.8-2,3.1-1.53,7.06-1.38,10.67-1.79,1-.11,1.68.71,1.28,1.8C833.85,512.22,832.57,511.9,831.46,511.9Z" transform="translate(-790.94 -318.16)" fill="#f6ea04"/><path d="M992.44,373.74c-4-.3-8.25.76-12.05-1.51C984.69,370.51,988.89,369.49,992.44,373.74Z" transform="translate(-790.94 -318.16)" fill="#fcf4ea"/><path d="M1007.86,616.66c-.09-2.74-.17-5.47-.26-8.21a6.38,6.38,0,0,1,1.41,1.38c.87,1.64-.68,4.77,2.16,5,3.52.29,1.41-3.63,3-5.24C1016.42,616.1,1012.78,617,1007.86,616.66Z" transform="translate(-790.94 -318.16)" fill="#df0609"/><path d="M1016.5,395.82c-.19.53-.37,1.07-.56,1.6-4.39-1.15-3.86-6.09-6.58-8.53C1013.87,389,1014.69,392.92,1016.5,395.82Z" transform="translate(-790.94 -318.16)" fill="#fcebd1"/><path d="M862.71,591.6l3,2.84c-1.41,1.07.68,5.24-2.54,4S861.53,594,862.71,591.6Z" transform="translate(-790.94 -318.16)" fill="#cbb558"/><path d="M1017.73,591.74c-2.67,2.56-3.36,0-4.31-1.71-.44-.77-.72-1.86.5-2.16,2.11-.52,3.55.25,3.81,2.59A3.93,3.93,0,0,0,1017.73,591.74Z" transform="translate(-790.94 -318.16)" fill="#f76e18"/><path d="M1045.12,594.5c-3.23-.93-6.15-2.32-8-5.34l8,2.83C1045.11,592.83,1045.11,593.66,1045.12,594.5Z" transform="translate(-790.94 -318.16)" fill="#485a34"/><path d="M944.33,387.12c.86.15,1.43.56,1.35,1.53-2.39,2.8-3.57,7-8.21,7.23-.39-.37-.5-.72-.35-1.05s.28-.5.42-.5l2.63-4.27Z" transform="translate(-790.94 -318.16)" fill="#fbc3ba"/><path d="M1074.39,643.17l.18,7.54c-3.42-.23-.42-4.36-3.06-5.06v0c.32-1.62.29-3.41,2.16-4.25C1073.9,642,1074.14,642.57,1074.39,643.17Z" transform="translate(-790.94 -318.16)" fill="#e10709"/><path d="M1032.78,591.63c2,2,1.19,3.13-4,5.49a6.74,6.74,0,0,0-.46-1c-.12-2.24,1.93-2.85,3.11-4.12A3.92,3.92,0,0,0,1032.78,591.63Z" transform="translate(-790.94 -318.16)" fill="#571907"/><path d="M905.46,380.52l-2.28-1.29c.1-2.18-.54-4.75,2.89-5.28C907.18,376.31,905.09,378.32,905.46,380.52Z" transform="translate(-790.94 -318.16)" fill="#f59008"/><path d="M1016.08,398.7c8.08,2.67,10.33,9.67,12.43,16.77,3.68,9.62,3.58,19.64,3.23,29.69l-1.6,4.23c-4.84,4-9.35,8.41-14,12.7-2,1.84-3.86,4.89-7.37,2.4-1-2.57.38-5.09.13-7.65,0-1.24,0-2.49-.09-3.73-.05-3.59-.14-7.16-4.62-8.3a4.54,4.54,0,0,1-1.69-3.24c1.05-4-1-6.77-3.7-9.3-1.82-2.75-4.93-4.13-7.06-6.55-2.21-2.05-5.2-2.48-7.8-3.72a9.18,9.18,0,0,0-5.05-1c-3.89-.72-8.2.71-11.66-2.27a3,3,0,0,1,.55-2.84c5.42-1.41,10.61-5.75,16.47-1.25a16.59,16.59,0,0,0,3.45,1.72c7.28,3.5,14.82,6.42,22.09,9.94,6.41,1.26,10.88-3.6,10-11.09-.52-4.66-2.84-8.66-5-12.7C1014.85,401.1,1010,398.17,1016.08,398.7Z" transform="translate(-790.94 -318.16)" fill="#f41c21"/><path d="M1010.65,548.91c-2,2.36-2,5.41-2.87,8.18-1.25,4-2.31,8.58-8.07,8.45a1.75,1.75,0,0,1-.52-2.42c6.1-7.54,5.72-17.08,8.1-25.77-2.25,6.93-2.09,14.5-5.65,21.08-3,5.57-4.17,5.79-9.78,1.73.67-6.52,4.18-12.27,5.13-18.73.4-2.67,1.39-5.3-.74-7.69a6,6,0,0,1-.58-3.87,4.65,4.65,0,0,1,2.29-3.19c5.49,1.06,10.39,3.65,15.45,5.84,2.55,3.53.2,7,0,10.56C1012.63,545.1,1012.53,547.43,1010.65,548.91Z" transform="translate(-790.94 -318.16)" fill="#d6d182"/><path d="M1006.61,474.71c-4.23,4.34-3.8,9.49-2.56,14.78-.41,5.45-3.94,9.9-4.78,15.22a4.1,4.1,0,0,1-1.67.89c-4.61-.62-6.66,1.27-5.05,5.79,1.11,3.1,1.1,6.2,1.22,9.36a5,5,0,0,1-.56,1.84,3,3,0,0,1-1.73.84c-2.67,0-5.46.16-6.78-3a17.15,17.15,0,0,1-.7-5.23c-.13-7-.58-14.07,4.29-20,.55-.73,1.09-1.77,1.87-2,10-2.32,9-10.92,10.47-18.09.28-2.06.21-4.3,2.57-5.38a4.36,4.36,0,0,1,3.83,1.81A3,3,0,0,1,1006.61,474.71Z" transform="translate(-790.94 -318.16)" fill="#430b0a"/><path d="M992.37,522.76l.46-1.42c-.58-6.31,3.34-11.15,5.4-16.59h0a3.64,3.64,0,0,1,3.07-.95c2.59.57,3.21-.28,2.72-2.73a2.26,2.26,0,0,1,1.29-2.15c2,7.1,1,14.38,1.3,21.58.14,3.91-2.61,3.24-5.07,3.65-1.27.2-5.42-2.37-3.61,2.54l-1.35,2.89c-1.74,3-3.41,2.64-5.06-.09C990.85,527.12,990.84,524.85,992.37,522.76Z" transform="translate(-790.94 -318.16)" fill="#a71617"/><path d="M1012.05,543.3q.68-5.38,1.36-10.79a55.8,55.8,0,0,1,13.89,6.58c-4.37,3.45-3,8.71-4,13.18-.62,2.59.68,5.54-1.44,7.87-2.06-3.16-3.81-6.23-7.87-7.86C1010.13,550.74,1011.08,546.68,1012.05,543.3Z" transform="translate(-790.94 -318.16)" fill="#ec771d"/><path d="M1006.61,474.71l-.21-3.13c-1.4-3.48-.08-5.71,3.23-7,6.45-2.41,9.49-8.93,15-12.43,1.72-1.09,2.63-3.92,5.5-2.75A45.84,45.84,0,0,1,1006.61,474.71Z" transform="translate(-790.94 -318.16)" fill="#8c0e0e"/><path d="M1005.35,498.91a2.17,2.17,0,0,0-.09.65c1.25,6.58-2.66,6.16-7,5.18a28.07,28.07,0,0,1,5.78-15.25C1005.87,492.44,1005.45,495.7,1005.35,498.91Z" transform="translate(-790.94 -318.16)" fill="#870910"/><path d="M886.51,525.8l-8.24,5.53c-7.06,1-11.84,6.45-18,9.23-3.54-8.89-6.55-17.91-6.9-27.6.93-3.86-.15-7.7-.25-11.53-.28-10.44,4.64-17.7,13.38-22.3,9.47-5,17.58-11.48,25.41-18.71,8.93-8.25,18.24-15.93,25.79-25.68,5.75-7.44,8.76-6.85,15.13.23,2.53,4.4,5.07,8.81,8,13a6.64,6.64,0,0,1,.2,2c-.67,8.36-4.42,15.44-9.18,22.1-4,5.24-11.12,7.53-13.43,14.34a14,14,0,0,1-1.14,3.24c-3.15,5.31-5.25,10.45,1.5,14.72a169.21,169.21,0,0,1-15.38,9.92c-3.2,1.92-.17,2.85-.09,4.22a4.53,4.53,0,0,1-1.67,2.4A42.06,42.06,0,0,1,886.51,525.8Z" transform="translate(-790.94 -318.16)" fill="#fee376"/><path d="M932,435.64c-.38.18-1,.6-1.12.52-5.69-6.5-7.35-7.18-12.39.27-8.79,13-22.1,21-32.65,32a47.66,47.66,0,0,1-15.64,10.65c-10.64,4.51-15.48,12.12-15.65,24,0,3.31,1.25,6.88-1.16,9.94l-.18-2.6a64.15,64.15,0,0,1-.06-19.61c2.83-37.43,21.61-64.67,53.33-83.73,9.72-5.85,20.91-8,31.08-12.69a2.46,2.46,0,0,1,.16.85c-1.51,6.34-5.29,11.8-6.83,18.16-.81,3.36-1.68,6.59-.4,10C930.56,427.48,934.17,431.21,932,435.64Z" transform="translate(-790.94 -318.16)" fill="#fee781"/><path d="M860.27,540.56c4.84-5.33,9.79-10.47,18-9.23a55.55,55.55,0,0,0-12.38,21.58Q863.09,546.73,860.27,540.56Z" transform="translate(-790.94 -318.16)" fill="#fdde5e"/><path d="M853.13,490.75l.06,19.61A33.19,33.19,0,0,1,853.13,490.75Z" transform="translate(-790.94 -318.16)" fill="#fee376"/><path d="M886.51,525.8l14.77-6.12c4.86.86,4.25,4.94,4.71,8.25.34,2.45-.46,4.86-1.07,7.24-.26,1.59-.62,3.14-2,4.19-3.88-3.58-9.55-5.45-10.94-11.42C891.19,524.59,887.6,528.38,886.51,525.8Z" transform="translate(-790.94 -318.16)" fill="#ee485a"/><path d="M902.91,539.36c0-1.45.09-2.91.13-4.36a1.63,1.63,0,0,1,2.05.68c2.34,6.71,2.69,13.8,3.62,20.74.86,6.4-1.31,8.57-8.74,10.53l-2.73-.4c-2.25-3.22-4.52-6.43-2.62-10.67,3.46-2.5,4,1.1,5.5,2.68.89,1,1.38,2.64,3,2s1-2.31,1.17-3.59C905.22,551,902.79,545.29,902.91,539.36Z" transform="translate(-790.94 -318.16)" fill="#ec4853"/><path d="M894.62,555.88c.42,3.67,3,6.82,2.62,10.67l-2.71.37c-2.83-5.82-6.17-11.51-5.06-18.71C894.32,549.24,892.07,554.05,894.62,555.88Z" transform="translate(-790.94 -318.16)" fill="#fb7a89"/><path d="M907.12,615.87c0,8.23-.08,14.53,0,20.81.07,4.09-2.58,4.89-5.75,5.15-3.62.3-5.44-1.3-5.66-5.07C895.25,628.23,900.84,623.07,907.12,615.87Z" transform="translate(-790.94 -318.16)" fill="#e81e25"/><path d="M1096.62,616c0,8.28-.06,14.61,0,20.93.06,4.21-2.85,4.74-5.94,4.94-3.27.22-5.12-1.31-5.38-4.74C1084.66,628.53,1090.2,623.26,1096.62,616Z" transform="translate(-790.94 -318.16)" fill="#e71c23"/><path d="M937.37,633.08c4.87,4.5,5.69,9.1,6.14,13.87.18,1.94-.36,3-2.58,3-2,0-3.65-.08-3.59-2.8C937.44,642.9,937.37,638.65,937.37,633.08Z" transform="translate(-790.94 -318.16)" fill="#e7171f"/><path d="M937.67,627.91c-.4-3.72-.78-6.71.61-9.48.77-1.54,1.5-3.91,3.81-3.14s1.72,3,1.19,4.73A15.55,15.55,0,0,1,937.67,627.91Z" transform="translate(-790.94 -318.16)" fill="#e4131a"/><path d="M977.07,628.67c-4.09-4.06-7-7.24-5.89-12.17a1.63,1.63,0,0,1,2.66-1.06C977.3,618.72,977.78,622.94,977.07,628.67Z" transform="translate(-790.94 -318.16)" fill="#e82a2e"/><path d="M1030,583.3c-2.12-7.8-5.58-13.35-2.39-19.59,1-2,1.47-4.71,4.32-4.81,3.12-.1,3,2.61,3.84,4.75C1038.9,571.28,1033.49,576,1030,583.3Z" transform="translate(-790.94 -318.16)" fill="#dd2f39"/><path d="M1012.05,543.3c-.21,4.65-.22,8.55,6.5,8.67,5.66.1,2.19,5.38,3.27,8.17-1.58,8.26-3.1,16.51.06,24.75l-9.73.06c-5.1-.1-10.54-1.4-14,4.06a2.45,2.45,0,0,1-1.22-1.44c-1.39-3.57,1.32-5.1,3.46-6.88,3.11-2.6,3.83-5-.28-7.36-1.2-.69-3.52-1-2.35-3.31,1-2,3.14-2.06,4.84-1.6,3.16.86.46,1.74-.05,2.87-.7,1.53.94,1.07,1.57,1.05,2.3-.07,4.9-1.82,4.47-3.4-1.9-7.07,3.16-13.21,2.09-20C1010.75,547,1010.29,544.85,1012.05,543.3Z" transform="translate(-790.94 -318.16)" fill="#f8900d"/><path d="M973.47,587.74c.21-6.77-4.38-2.17-6.75-2.84-1.34,1-2.86.54-4.33.53-1.77-.87-3.91-.57-5.59-1.74l-.14-.23c-.59-1.55.72-2,1.58-2.66,3.63-1.58,6.24-4.45,9.08-7.07,2.53-2.35,1.54-3.77-1-5a2.77,2.77,0,0,1,1.78-2.4,5.68,5.68,0,0,1,2.09-.16,75.5,75.5,0,0,0,13,.23c2.38-.09,4.64-.14,5.7,2.58.15,5-4,5.93-7.35,7.58-1.17.73-2.69,1.59-2.21,3.07C981.2,585.21,977.19,586.32,973.47,587.74Z" transform="translate(-790.94 -318.16)" fill="#f2b008"/><path d="M988.4,569.7c-2.09-3.48-5.33-1-8-1.46-3.71-.68-7.69,1-11.26-1.23,7.82-2.27,15.7-4.33,23.39-7,3.52,2.23,5.93,2,7.72-2.42a79.14,79.14,0,0,0,4.85-18.38c.33-2.23.23-4.51,3.61-6.69-1.05,12.24-1.77,23.45-9,33-2.07,3.08-7-2.63-8.35,2.72C990.79,569.59,990,570.54,988.4,569.7Z" transform="translate(-790.94 -318.16)" fill="#e3e899"/><path d="M988.4,569.7l3-1.44c2.39,4.31-.49,8.5-2.34,11.08-3,4.22-5.5-.1-7.43-2.79C982.78,573.19,987,572.81,988.4,569.7Z" transform="translate(-790.94 -318.16)" fill="#e0b01f"/><path d="M996.9,587.57l1.22,1.44c-5.31,2.9.44,5.11.59,8.21H994c-.11-1.89.75-4-1.33-5.42C993.73,590,994.19,587.68,996.9,587.57Z" transform="translate(-790.94 -318.16)" fill="#e5ab41"/><path d="M913.89,587.64c-1.3.56-2.34,1.85-4,1.42-3.4.91-5.83-1-8.33-2.81l-5.77-.49c-.82-.07-1.67-.07-2.14-.92l1.13-1.29c1.36-1.69,3.15-3.17,5.26-2.53,6,1.81,12.07.75,18.11.77C920.34,586.37,916.24,586.37,913.89,587.64Z" transform="translate(-790.94 -318.16)" fill="#744716"/><path d="M893.66,584.84l2.14.93c-4.08,4.56-8.19,5.94-12.39.15a1.39,1.39,0,0,1,1.39-1.62C887.62,586.58,890.68,585,893.66,584.84Z" transform="translate(-790.94 -318.16)" fill="#40897b"/><path d="M891,599.57c-2,0-1.84-1.45-2-2.83-.26-2.82,1.61-3.39,3.73-3.76,2.41-.41,1.59,1.46,1.81,2.58C895.17,598.49,892.87,598.84,891,599.57Z" transform="translate(-790.94 -318.16)" fill="#f2a41b"/><path d="M901.57,586.25c2.8.86,6,.59,8.33,2.81-.11,1.9-1.25,2.72-3,2.91-1.29-.63-2.64,1.42-3.91-.1C904.67,589.46,902.37,588.05,901.57,586.25Z" transform="translate(-790.94 -318.16)" fill="#ccab70"/><path d="M884.8,584.3l-1.39,1.62-3.75-.57-3-.75C879.31,582.51,882,580.64,884.8,584.3Z" transform="translate(-790.94 -318.16)" fill="#a34c41"/><path d="M943,405.31c3.13-11.25,11.93-15.82,21.92-19.74,5.32-2.09,11.21-3.41,15.68-7.53,5.48-5.06,9.85,1.39,11.08,3.47,5,8.41,14.88,12.12,19,21,.45,1.23-.31,1.84-1.21,2.37-2,1-4.5.37-6.75,2.61,4.33,1.51,10.1,2,6.47,8.61-4.82,3.32-10.13,2.31-15.3,1.48-2.28-.36-4.37-1.62-4.3-4.54,1.56-6,4.87-11.48,2-18.32-3.16-7.58-5.92-9.19-13.29-5.41a43.58,43.58,0,0,0-5.26,3.12c-6.11,4.71-2.72,10.25-1.35,15.6,1.67,3.89-.28,5.59-3.83,6.32a8,8,0,0,1-2,0c-2.57-.6-5.35-.19-7.77-1.57-5.5-7.81-4.88-9.83,3.65-12-3.75-3.38-6.35-2.59-9,2.84-1.54,3.14-1.77,7.44-6.86,7.16-3.35-.61-4.57-2.33-2.91-5.56Z" transform="translate(-790.94 -318.16)" fill="#fcbcb4"/><path d="M1009.15,414.8c.28-2.48.13-5.18-3.17-4.63-3,.5-6.14,1.35-6.07-2.65.06-3.42,3.75-3.35,6.47-3.56a19.58,19.58,0,0,1,2.75.15c4.69.47,5.93,4.1,7.12,7.69.08-2.22-2.38-3.94-1.45-6.43,0-1,.06-1.91.08-2.87,7.26,6.21,8.49,12.64,3.52,21.1-1.38,2.35,3.61,3.34.75,4.95-3.29,1.86-6.82,1.82-9.73-1.23C1009.31,423.15,1005.72,419.05,1009.15,414.8Z" transform="translate(-790.94 -318.16)" fill="#ea815c"/><path d="M1014.8,405.37c1.14,2.71,2.32,5.41,3.41,8.15.71,1.75.31,3.47-1.67,3.64s-1.71-1.77-1.63-3.05c.28-4.64-2-7.72-5.78-10l1.58-1.58Z" transform="translate(-790.94 -318.16)" fill="#fca8a1"/><path d="M918,582.22c-5.26,2.4-10.63,3.32-16,.57-2.67-1.36-4.74.76-7.14.76,0-2.76,0-5.51,0-8.27,3.91-4.37,5.42,1.18,8.19,2-.74-2.21-3.81-3.34-2.79-6.23l2.69.05a24.23,24.23,0,0,1,9.56,0c3.14.88,4.29,3.49,5.34,6.18C918.21,578.91,919.2,580.52,918,582.22Z" transform="translate(-790.94 -318.16)" fill="#de373a"/><path d="M900.14,571c1.67,1.89,3.36,3.76,5,5.69.8,1,2.43,2,.9,3.39-1.24,1.11-2.47,0-3.69-.68-2.52-1.41-3.21-6.2-7.59-4.16a4.31,4.31,0,0,0-4.2-2.83C893.6,571,896.41,567.93,900.14,571Z" transform="translate(-790.94 -318.16)" fill="#ed505f"/><path d="M918,582.22l-1.32-4.16c-.44-8.51-6-15.79-5.89-24.43,4.7-3.33,7.56.72,10.94,2.71,2.1,2.31-.87,6.2,2.53,8.11,1.45,1.15,1.49,3.16,2.72,4.45a6.07,6.07,0,0,1,1.5,3.08c.06.87,0,1.74.16,2.61,1.79,2.74.55,5.28-.53,7.82q-4.32,4.58-8.63,9.14c-1.75-1.44-2.53-4.25-5.54-3.91C915.48,586,918.92,585.77,918,582.22Z" transform="translate(-790.94 -318.16)" fill="#f6b308"/><path d="M928.06,582.41a16.24,16.24,0,0,0-1.56-8.7c5.1-1.42,5.44,2.72,6.73,5.75,2.24,1.56,4.62,2.95,6.69,4.71s0,2-1.18,2.35C934.88,585.93,932.7,581,928.06,582.41Z" transform="translate(-790.94 -318.16)" fill="#e9b230"/><path d="M933.23,579.46c-3.69-.22-2.41-6.25-6.73-5.75l1.25-1.61c.62-3.89-1.48-7.46-1.36-11.29a11.1,11.1,0,0,1,.24-1.9c1.8-4.87-3.54-6.18-4.76-9.54,2.34-4.52-.32-10.26,3.49-14.43,3.18.06,3.8,2.86,4.9,4.89a15.26,15.26,0,0,0,5.62,5.66c3.27,3.42,1.65,8,2.9,11.92,2.6,1.56,5.76,1.23,8.42,2.56a11.92,11.92,0,0,1,3.18,1.85c1.67,1.72,4.25,2.55,5.07,5.12-1.63,3.17-2.9,6.59-5,9.43-2.32,3.2-5.61,5.38-9.93,3.78C938.13,579.25,935.7,579.37,933.23,579.46Z" transform="translate(-790.94 -318.16)" fill="#edeca8"/><path d="M955.45,566.94a10.47,10.47,0,0,1-5.63-4c1.6-8.86,5.27-17.2,6.48-26.15,4.89-.74,2.86,3.72,4.24,5.62a34.78,34.78,0,0,1,1,4.74c.06,2.6-2.44,3.9-3.12,6.12-.24,2.11-.55,4.22,1.5,5.71-.91,2.1.65,2.54,2.06,3.3,2.28,1.23,5.21,1.77,5.93,4.92l-1.58,1.5C962.62,568.7,959.28,566.35,955.45,566.94Z" transform="translate(-790.94 -318.16)" fill="#dd6a18"/><path d="M958.24,580.8c-.53.89-1,1.78-1.58,2.66l-7,1.24C950.16,578.24,953.43,577.81,958.24,580.8Z" transform="translate(-790.94 -318.16)" fill="#e5b43d"/><path d="M929,423.39c-1.9-10.88,2-20,8.7-28.21l8-6.53c-2.76,5.63-4.18,11.71-5.95,17.66-.69,2.32-2.2,4.86,1.54,6.06l.52.71c-.31,1.46-1.4,2.55-1.83,3.95-1,3.44-.15,6.63,1.27,9.75-1.3,3.31-2.46,6.9-7.14,3.69-2.6-3.29-4.45-6.9-4.34-10.31A2.84,2.84,0,0,1,929,423.39Z" transform="translate(-790.94 -318.16)" fill="#f81f23"/><path d="M943,405.31c-.28,3.06,1.22,4.33,4.16,4.16a2.52,2.52,0,0,1,.63,2.61,3.52,3.52,0,0,1-1.92,1.87c-1.8.4-2.2-2.76-4.27-1.68l-.35.1C940.4,409.66,940.44,407.17,943,405.31Z" transform="translate(-790.94 -318.16)" fill="#fc897a"/><path d="M900,567c11.66-5,5.65-14.5,5.27-22.29-.15-3.09-.82-6.3-1-9.5,2.16-.42,3,1.18,3.37,2.66a214.37,214.37,0,0,1,5.31,30.73c-3.18,1.92-6.41,3.47-10,1Z" transform="translate(-790.94 -318.16)" fill="#d02629"/><path d="M902.88,569.56l9.72-1.37a2.74,2.74,0,0,1,0,4c-3.28-.13-6.78,1.55-9.76-1.15C902.85,570.58,902.86,570.07,902.88,569.56Z" transform="translate(-790.94 -318.16)" fill="#5a0d0a"/><path d="M956.8,583.69c1.94-.27,4.25-2.35,5.44,1.11-1.83,1.94-3.6,3.94-5.49,5.82l-2.49,1.11c-1.67-2.08-5.49-.7-6.51-4.53C950.16,584.9,955,587.72,956.8,583.69Z" transform="translate(-790.94 -318.16)" fill="#aa5d11"/><path d="M823.64,490.46c.42-.54.53-.81.65-.81,2.79-.08,5.83-1.42,8.07,1.37.24.3-.42,1.78-.45,1.77C829.16,492.18,826.14,492.3,823.64,490.46Z" transform="translate(-790.94 -318.16)" fill="#e31c28"/><path d="M956.75,590.62c-.45-4.09,1.33-6.08,5.49-5.82a4.51,4.51,0,0,1,4.48.1c-.07,3.38-.27,6.77-.19,10.15.07,2.62-2.77,4.54-3.21,3.39C961.93,594.88,956.69,594.94,956.75,590.62Z" transform="translate(-790.94 -318.16)" fill="#dcad4a"/><path d="M838.07,537.82c-1.57,3.12-4.35,3.49-7,3.72-1.41.12-3-.89-2.47-2.48,1-3,4-3.43,6.7-3.57C836.78,535.41,837.64,536.52,838.07,537.82Z" transform="translate(-790.94 -318.16)" fill="#e81f27"/><path d="M948.48,365.75c1.42.39,1.32,1.61,1.32,2.64s-.33,2.31-1.86,1.94a2.13,2.13,0,0,1-1.62-2.51A2.3,2.3,0,0,1,948.48,365.75Z" transform="translate(-790.94 -318.16)" fill="#ee401f"/><path d="M1009.15,414.8c.9,3.09-1,6.68,2.24,9.47,1.14,1-1.47,1.86-2,3.05a145.65,145.65,0,0,1-22.37-9.76c-1.59-2.69-1.7-4.95,1.77-6.18a3,3,0,0,1,2,.75c-.53,2,.48,3.14,2.29,3.39C998.51,416.27,1003.93,417.63,1009.15,414.8Z" transform="translate(-790.94 -318.16)" fill="#e86842"/><path d="M1003.87,442.08c6.63.5,5.92,5.91,6.83,10.23a2.92,2.92,0,0,1-1.14.74c-7.8,2.29-7.81,2.29-5.47,10.17.4,1.33.81,2.64.2,4a2.62,2.62,0,0,1-1.62,1,3.85,3.85,0,0,1-1.82-.5c-2.34-4.75-6.45-7.73-10.68-10.58-1.4-2.59-6.14-3.31-4.34-7.7,3.39-1.94,5.19,1,7.45,2.52-1.26-3.61-3.43-7.09-.71-10.91,3.07-.47,3.77,2,4.79,4,.91,1.78,1.29,4.42,4,4,3.49-.6,1.86-3.54,2-5.61A2.36,2.36,0,0,1,1003.87,442.08Z" transform="translate(-790.94 -318.16)" fill="#e4cba0"/><path d="M1003.87,442.08c.52,2.46,3,4.89,1.34,7.29-1,1.39-3.45,2-5.37,2.4-2.61.51-2.35-2.06-3.09-3.56-1.24-2.5-.63-6-4-7.32-3.6-1-4.36-3.51-3.69-6.8,2.62-3.66,5.26-3,7.73.09,1,1.24,1.54,2.82,2.92,3.76a12.09,12.09,0,0,1,3.73,3.05A1.4,1.4,0,0,1,1003.87,442.08Z" transform="translate(-790.94 -318.16)" fill="#7b2613"/><path d="M1004.06,467.36c-.79-2.13-2.13-4.25-2.2-6.41s-3.49-4.09-1-5.78c2.8-1.94,5.58-5.53,9.88-2.86,0,1.28.08,2.56.13,3.83C1008.05,459.57,1010.37,466.07,1004.06,467.36Z" transform="translate(-790.94 -318.16)" fill="#4b2011"/><path d="M967.88,413.42c2.36-1.13,4-2.61,2.91-5.56-.18-2.29,1.2-1.16,1.93-.77,1.37.74,2.6,1.81,4.32,1.22,3.35.38,6.4-1.24,9.67-1.39,1.89.52,2.92,1.59,2.37,3.67a2.91,2.91,0,0,1-1,.83c-2.25,1-5,1.63-3.61,5.15-3.14-2-6-3.88-9.84-.68-1.41,1.17-4.42.41-6.7.53A2.16,2.16,0,0,1,967.88,413.42Z" transform="translate(-790.94 -318.16)" fill="#e17534"/><path d="M967.88,413.42c0,1,0,2,0,3,0,.66,0,1.33-.07,2a2,2,0,0,1,.5,1.76c-1,1.19-2.3.92-3.56,1-3.13.07-6,2.41-9.26,1.25a5,5,0,0,1-2-3.27,4.07,4.07,0,0,1,1.68-3.34,28.08,28.08,0,0,1,11.32-2.39Z" transform="translate(-790.94 -318.16)" fill="#e44630"/><path d="M967.37,420.39c.15-.66.31-1.31.46-2l11.74.67c2.46,6-3,5.77-6,7.5a4.94,4.94,0,0,1-3.63-1.24C968.58,424,967,422.71,967.37,420.39Z" transform="translate(-790.94 -318.16)" fill="#5d150c"/><path d="M1003.39,441l-3.7-1.18c-1.45-1.56-2.69-3.23-2.45-5.55.42-1.48,1.19-2.57,2.9-2.59C1003.11,434.12,1006.28,436.5,1003.39,441Z" transform="translate(-790.94 -318.16)" fill="#57150d"/><path d="M1004.06,467.36c5.21-1.95,2.41-8.74,6.76-11.22q-.59,4.22-1.19,8.43c-1.07,2.34-2.15,4.67-3.23,7l-2.73-1.47c-1-.55-1.95-1.17-1.22-2.57Z" transform="translate(-790.94 -318.16)" fill="#bca183"/><path d="M973,425.8c1.45-2.95,7.79-1.14,6.54-6.71l4.66,1.62a5,5,0,0,1-.78,5.39c-2.66.87-5.43,1.38-8.13,2.13C973.91,428,972.76,427.58,973,425.8Z" transform="translate(-790.94 -318.16)" fill="#e6d4b3"/><path d="M983,426.53c.1-2,0-4,1.25-5.82,3,1.14,6.29,1.46,8.7,3.85a1.6,1.6,0,0,1,.09,1.66c-2.26,1.15-5.18.66-7,2.84C984.05,429.33,983.1,428.43,983,426.53Z" transform="translate(-790.94 -318.16)" fill="#ccaa86"/><path d="M992.73,426.07l.21-1.51c2.22,2.55,5.93,3.6,7.2,7.11l-1.83,2.53c-2.82-.32-4-3-6.24-4.23A3.45,3.45,0,0,1,992.73,426.07Z" transform="translate(-790.94 -318.16)" fill="#733627"/><path d="M984.44,416.57c-3.78-5.55,2.22-4.46,4.15-6.13,1.1,0,1.75.42,1.27,1.66-3.57.47-2.4,3.37-2.81,5.46A2.44,2.44,0,0,1,984.44,416.57Z" transform="translate(-790.94 -318.16)" fill="#f3d690"/><path d="M1017.44,444c1.2,2.31,3.57,2.75,6,3.7C1018.24,449.79,1018.24,449.79,1017.44,444Z" transform="translate(-790.94 -318.16)" fill="#edc475"/><path d="M967.93,567.22c-3-1.6-5.87-3.32-8.9-4.76-4.13-2-.49-2.64.52-3.78,2.62-1.94,5.78-1.13,8.64-1.4,10.31-1,17.63-5.84,21.73-15.42,2.35-2.66,3.49-6.35,6.84-8.17,5.2-.38,2.9,3.75,2.54,5.32-1.67,7.15-2.91,14.5-6.76,21-6.71,6-14.75,7.5-23.39,7A8.41,8.41,0,0,0,967.93,567.22Z" transform="translate(-790.94 -318.16)" fill="#ebefb1"/><path d="M996.76,533.69c-1.81,2.82-2.4,6.46-5.6,8.35-2.73,1.39-3.32-.58-4-2.5.11-4.36,1-8.3,5.55-10.29,1.1,2.44,2.52,1,3.88.32C996.67,530.94,996.71,532.32,996.76,533.69Z" transform="translate(-790.94 -318.16)" fill="#c04332"/><path d="M985.61,515.94l.63,5.2c1.1,3.4-1,5.6-2.93,7.87-4,2.9-8.35,4.58-13.39,3-1.83-.87-3.41-2.21-5.27-3-4-2-7.54.26-11.27,1-2.73.52-5.8,1.41-5.37-3.31,3.36-4.44,8.29-4.81,13.23-5.16,3.63,1.21,6.46,0,9-2.72a27.51,27.51,0,0,1,6.58-5.67c2.84-1.34,5.61-2.12,7.72,1.21C984.87,514.89,985.23,515.42,985.61,515.94Z" transform="translate(-790.94 -318.16)" fill="#f27325"/><path d="M992.74,529.25c-1.86,3.08-4,6-4.41,9.78a7.55,7.55,0,0,1-1.47,2.89c-7.88,6.58-16.27,11-26.82,6.34l-.46-5a1,1,0,0,1-.3-1.09c.14-.34.26-.52.38-.52,2.74-.89,5.61-.44,8.41-.78,10.15-.09,14.42-3.4,18.32-14.23a4.64,4.64,0,0,1,4.87-3.67,5.14,5.14,0,0,0,1.11-.18Q992.57,526,992.74,529.25Z" transform="translate(-790.94 -318.16)" fill="#1b5d1e"/><path d="M985.61,515.94c-.36-.06-.73-.11-1.1-.15-6.48-13.12.48-23.73,6.75-34.25,2.78-4.66,6-9.08,8.91-13.73l.92-.56c.46.09.91.18,1.35.29l1.23,2.58c-1.87,1.45-1.06,3.6-1.42,5.44-2.84,7.3-5.84,14.49-12.24,19.56C985.48,501.41,985.29,508.62,985.61,515.94Z" transform="translate(-790.94 -318.16)" fill="#b8311b"/><path d="M998.23,504.75c-.12,2,4.2,4.19-.87,6-2.68.94-4.17,4-2.11,7.3,1.77,2.84.13,3.48-2.42,3.3-1.85-3.62-1.12-7.73-2.44-11.61C988.7,504.76,992.59,502.55,998.23,504.75Z" transform="translate(-790.94 -318.16)" fill="#830a0c"/><path d="M990,495.12c.16-1.12,0-3,.53-3.24,7.09-3.21,6.46-11.88,11.71-16.32-.23,4.33-2.59,8.32-1.48,13,.31,1.3.31,6.34-4.66,3.33C993.39,490.22,992.4,494.59,990,495.12Z" transform="translate(-790.94 -318.16)" fill="#690c0e"/><path d="M991.26,522.94l-4,3.66c-1.08,2.13-2.47,3.25-4.75,1.46-.22-3.09,3.71-3.95,3.72-6.92C987.41,523.15,990.32,520.3,991.26,522.94Z" transform="translate(-790.94 -318.16)" fill="#296d3d"/><path d="M917.07,485.52c2.13-6.9,8.89-9.42,13.37-14.09,4,.57,4.3,3.28,3.86,6.55a31.91,31.91,0,0,0,.34,12.16c-.8,6.59-.65,13.22-.71,19.84,0,2.5,0,5.07-1.74,7.16-1.75,1.27-3.42.77-5.08-.2-1.29-4.64-6.91-6-8.16-10.68.27-.88.57-2.18-.17-2.54-7.18-3.49-4.95-8.56-2.5-13.75C916.94,488.58,918,487.21,917.07,485.52Z" transform="translate(-790.94 -318.16)" fill="#eb2122"/><path d="M933.25,489.49c-2.36-3.77-1.75-8-.65-11.69.94-3.16-.55-4.56-2.16-6.37a66.08,66.08,0,0,0,9.73-22,1.3,1.3,0,0,1,1.69,0,4.91,4.91,0,0,1,.65,1.77c.31,3.38,2.65,3.76,5.41,3.89a12.39,12.39,0,0,1,9.75,5.76c1.92,2.77,2.16,5.6-1.28,7.65a5.69,5.69,0,0,1-5-.37,3.65,3.65,0,0,1-1-3.65c-.5-1,3.38-1.3.35-2.69a10.75,10.75,0,0,0-5.77-.54c-.93.41-2.48-1.55-2.89.8a57.25,57.25,0,0,0-3.56,10.58c-.94,3.28-.39,6.65-.67,10-.22,2.75-.77,5.32-3.5,6.77Z" transform="translate(-790.94 -318.16)" fill="#a71814"/><path d="M919.89,506c1.19,3.87,8.15,3.84,6.51,9.63a3.49,3.49,0,0,1-2.35,1.54c-2.15.34-4.33.56-6.5.77a14.35,14.35,0,0,0-4.51.51c-2.55.41-5,1.08-7.64,1.26a2.81,2.81,0,0,1-2.49-1.47c-2.78-.56-5.67-1.59-1.54-4.14,5.49-3.39,9.65-9.22,16.87-9.56C919.42,504.33,919.93,504.85,919.89,506Z" transform="translate(-790.94 -318.16)" fill="#fcdf5e"/><path d="M902.91,518.25l2.72.24c2.52,2,7.81-1.62,8.5,4.15-3.4,2.27-3.88,5.44-4,9.39-.31,7.1,2.35,14,1.06,21.07,2.34,8.21,7.37,15.82,5.49,25-1.88-1.56-1.22-4.9-4-5.81,0-1.36,0-2.71,0-4.06A241.65,241.65,0,0,1,907,541.84c-.34-2.38-.63-4.94-2.73-6.68-.4,0-.8-.1-1.2-.16,1.64-5.36,2.13-10.59-1.76-15.32Z" transform="translate(-790.94 -318.16)" fill="#e87019"/><path d="M929,423.39l.4-3.94c.46,4.33,5.49,6.27,5.57,10.74a21.66,21.66,0,0,1,1.81,6.44c.43,3.24,2.52,1.64,4,2a10,10,0,0,1-.58,9.45c-4.91-2.71-5.77-8.08-8.17-12.44C931.21,431.5,928.69,427.79,929,423.39Z" transform="translate(-790.94 -318.16)" fill="#c21517"/><path d="M940.15,448.08c-1.39-3.29.41-6.45.39-9.69-.07-1.77.47-3,2.52-3.07a3.35,3.35,0,0,1,1.83,1.88c.33,1.63-.28,3.37.6,4.93,2.52,2.26,7.49-2.13,8.83,3.26-.9,2.75-5.83.27-5.69,4.39-2.36,1.52-4.69.92-7-.06l-1.44-.32C940.18,449,940.17,448.52,940.15,448.08Z" transform="translate(-790.94 -318.16)" fill="#d6a972"/><path d="M919.89,506l-1.65-1.46c-1.76-3.57-5.66-1.69-8.77-3.32,2.6-5.29,6.07-10.07,7.6-15.71.31.81,1.08,1.81.84,2.39-2.43,6-5.48,12,2.54,16.37A8.91,8.91,0,0,1,919.89,506Z" transform="translate(-790.94 -318.16)" fill="#d7141a"/><path d="M989.86,412.1c-.43-.55-.85-1.1-1.27-1.66a2.41,2.41,0,0,0-2.69-2.36c-1.31-2.77.6-5.27.66-7.95.16-6.37-2.06-8.12-8-6a9,9,0,0,1-3.31.72,4.1,4.1,0,0,1-3.24-3.37c3.43-2.16,6.45-4.91,10.66-5.85,4.7-1.05,7.87,1,9.34,4.82,2.8,7.25,5,14.78-1.14,21.71h-.5Z" transform="translate(-790.94 -318.16)" fill="#de7b2c"/><path d="M947.29,412.13c0-.89-.08-1.77-.11-2.66,4.5-.48,2.7-4.69,4-7,3-5.56,7.87-7.74,12.14-4.79a3.66,3.66,0,0,1,1.65,4.14c-.27,1.24-1.14,2.35-2.33,2.07-11.31-2.68-5.35,3.87-4.24,7.83.85,1.95-.54,2.31-1.91,2.68C953.52,413.22,950.17,413.63,947.29,412.13Z" transform="translate(-790.94 -318.16)" fill="#e48451"/><path d="M972,391.45l2.78,2.78c-.4,4.23-.56,8.34,2.6,11.86,1.11,1.24.21,2.49-1.14,3.23-2.67,2.66-3.32-2.15-5.45-1.46C966,398.87,966.24,395.85,972,391.45Z" transform="translate(-790.94 -318.16)" fill="#e2762c"/><path d="M955.34,413.41a2.77,2.77,0,0,0,3-1.72c2.57,1.2,5.7-.24,8.11,1.7-3,3.51-7.34,1.83-11,3A2.22,2.22,0,0,1,955.34,413.41Z" transform="translate(-790.94 -318.16)" fill="#e0713a"/><path d="M911.14,553.1c-4-8.84-1.91-18.46-3.41-27.65-.59-3.64,4.82-1.68,6.18-4.24-.7-1.43-.12-2.84.09-4.26,1-1.23,2-1.06,2.87.1,2,2.2,1.14,4.66.71,7.11a17.39,17.39,0,0,0,1.55,9.94,27.79,27.79,0,0,1,2.16,15.13,6.77,6.77,0,0,0,.52,1.71,19.13,19.13,0,0,1,1.2,3.3,3.77,3.77,0,0,1-.19,2.54l-.66.56C918,557.28,915.46,552.83,911.14,553.1Z" transform="translate(-790.94 -318.16)" fill="#f8a621"/><path d="M928.2,558.84a2.25,2.25,0,0,1-.36,1.12c-.6.66-.91,1.52-1.52,2.18a15,15,0,0,0-2.86,3.34c-4.8-2-3.33-5-1.3-8.14l.17-.13C924.89,555.6,926.85,556.11,928.2,558.84Z" transform="translate(-790.94 -318.16)" fill="#f8a621"/><path d="M923.46,565.48c-1.78-3.21-1.07-4.64,2.75-3.86.58,2.78,4.42,5.42.37,8.4C923,570.26,924.74,566.83,923.46,565.48Z" transform="translate(-790.94 -318.16)" fill="#f0e5b7"/><path d="M926.58,570c3-2.94-1.62-5.54-.37-8.4l1.63-1.66c-.52,4,3.7,8.12-.09,12.14Z" transform="translate(-790.94 -318.16)" fill="#edc20d"/><path d="M948.63,527c1.58,5,4.25.26,6.36.69,3.34.7,7.1-5.3,10.16.61,0,3.76-2.7,3.92-5.37,4.18-4-.85-5.33,1.17-5.21,4.83A46.8,46.8,0,0,1,952.52,554c-1,3-1.6,6.28-5.31,7.3l-9.93-2.53c2.06-4.94,1.86-9.7-1.09-14.26-2.11-2.64-3.54-5.53-3.42-9a7.06,7.06,0,0,1,.75-1.82c1.45-2.58.19-5.93,2.33-8.32,3.66-.18,3,2.83,3.31,4.82.78,5.22,2.6,10.19,3.39,15.41.28,1.8,1.17,3.71,3.48,3.55s2.83-2.13,3-4c.29-4.23,1.43-8.34-2.19-12.26-1.88-2-2.65-6,1.82-7.6a1.09,1.09,0,0,1,.39,1.13C948.88,526.82,948.75,527,948.63,527Z" transform="translate(-790.94 -318.16)" fill="#faad4f"/><path d="M920.91,550.67c-2.62-4.71.17-10.45-2.86-15.09-.11-3.79-.86-7.62,0-11.38.59-2.59,1-5.5,4.31-6.28,4.83,2.34,1.56,7.55,3.81,10.8a32.21,32.21,0,0,1,.85,4.77,2.28,2.28,0,0,1-.76,1.67c-2.4,2.55-1.07,5.67-1.16,8.51-.08,2.65-.28,5-2.77,6.47A1.08,1.08,0,0,1,920.91,550.67Z" transform="translate(-790.94 -318.16)" fill="#d6cd85"/><path d="M947.21,561.33c6-7.49,5.58-16.41,5.49-25.24-.05-5.09,1.79-7.45,7-4.94.53,2.62-1.28,4-2.92,5.43.74,9.61-2.17,18.25-7,26.38Z" transform="translate(-790.94 -318.16)" fill="#fa8f27"/><path d="M926.27,535.16l-.39-1.45c1.56-1.56,3.4-1.53,5.34-1a2.79,2.79,0,0,1,1.88,2.64c2.13,2.33,1.52,6.09,4.23,8.12.8,1.58-.08,2.39-1.38,3C928.37,546.44,929.31,539.1,926.27,535.16Z" transform="translate(-790.94 -318.16)" fill="#cc3c2a"/><path d="M936,546.5l1.38-3c1.95,5.11,6,10.22-.05,15.3l-2-1.81C938.54,553.68,935.63,550,936,546.5Z" transform="translate(-790.94 -318.16)" fill="#e99031"/><path d="M920.91,550.67l1.43-.53c4.88.92,7.72,3.23,5.85,8.7-1.83-1-3.69-1.84-5.86-1.63l-.09-2.48a3.21,3.21,0,0,0-1.32-2.9C920.92,551.45,920.91,551.06,920.91,550.67Z" transform="translate(-790.94 -318.16)" fill="#edc20d"/><path d="M986.76,541.1l1.58-2.07c.29,1.61.89,2.93,2.82,3a23.55,23.55,0,0,1-21.27,16.81c-3.4.15-6.94,1.9-10.34-.17-5-.26-2.29-3.54-2.25-5.78,3-2,6.16-.1,9.27-.52C974.85,551.24,981.07,546.71,986.76,541.1Z" transform="translate(-790.94 -318.16)" fill="#cc3d2b"/><path d="M986.76,541.1c-6.68,10.85-17.44,15.16-29.46,11.8.27-1.94.83-3.69,2.75-4.64,6.85.1,13.6.51,20.09-3.08C982.42,543.91,983.44,540.52,986.76,541.1Z" transform="translate(-790.94 -318.16)" fill="#ebedb6"/><path d="M956.83,536.58c-.27-2.48,1.85-3.67,2.92-5.43,2.24-.12,4.25-.67,5.4-2.84,2.33-.3,4,.39,4.5,2.92-.48,3-3.21,3.74-5.14,5.29-2.43,1.17-3.27,3.6-4.5,5.72a1.89,1.89,0,0,1-.43,1C957,541.72,959.5,538.07,956.83,536.58Z" transform="translate(-790.94 -318.16)" fill="#d3381a"/><path d="M943,435.51l-2.46,2.88-2.67,3.21c-1.77-3.63-5-6.76-2.91-11.41,3.53,1.05,4.22-1.68,5.26-3.95a34.9,34.9,0,0,1,8.06-5.3c1.91-.74,3.38-2.89,5.85-1.86a3.27,3.27,0,0,1,1.36,2.87,1.37,1.37,0,0,1,0,1.67c-2.46,1.66-5.2,3-7,5.47a17.11,17.11,0,0,0-1.34,2.21A7.8,7.8,0,0,1,943,435.51Z" transform="translate(-790.94 -318.16)" fill="#ef1f21"/><path d="M948.54,421.75c-2.33,2.32-4.81,4.36-8.32,4.49-1.88-3.24-3.91-6.48-1.17-10.25,2.66-.59,5.47.58,8.08-.71C952.11,416.46,952.38,418.66,948.54,421.75Z" transform="translate(-790.94 -318.16)" fill="#e4623f"/><path d="M945.77,416.36c-2.5,4.59-4.46-.68-6.72-.37-.73-2.33,2.17-2.17,2.57-3.72,2-1.5,2.77.65,4,1.45A1.69,1.69,0,0,1,945.77,416.36Z" transform="translate(-790.94 -318.16)" fill="#fcbcb4"/><path d="M945.77,416.36c0-.88-.11-1.76-.16-2.64l1.68-1.59c2.78-.19,6-3,8.05,1.29.06,1,.13,2,.2,2.94l-1.41,2.72c-2,.55-3.15,3-5.59,2.67C950.35,418.54,950.63,416.13,945.77,416.36Z" transform="translate(-790.94 -318.16)" fill="#f67d67"/><path d="M951.32,467l5.52.25c4.8-2.7-.65-6.66,1.2-9.72,3-2.19,6.69-1.22,10-2.26,2-.65,4.84-.05,5.28-3.29,1.2-1.1,2.74-1.22,4.23-1.51,1.83-.24,3.3-1.45,5-1.95a4.58,4.58,0,0,1,2.74.18l.75.57c-.24,3.92,4.86,4,5.31,7.48-.44,4.35-3.91,3.8-6.78,4.23-4.5.1-9-.32-13.42,1.09a8.61,8.61,0,0,0-5.19,4c-1.92,2.57-1.59,5.67-2.13,8.58-.81,4.39-2.55,8.33-6.23,11.14a2.85,2.85,0,0,1-2,.32c0,.89.82.61,1.25.86,1.38.83,2.85,1.53,3.11,3.38-.89,3-3.32,3.44-5.89,3.69a11.36,11.36,0,0,1-7.4-1.95c-4.26-3.64-10.19-6-9.86-13.13.22-2.52-.63-5.13.61-7.57.85-3.7,1-7.65,4-10.52C945,462.52,947.41,466,951.32,467Z" transform="translate(-790.94 -318.16)" fill="#fcc872"/><path d="M973,425.8c.34,2,1.78,1.52,3.07,1.38,3.79-1.77,6,3,9.49,2.31a2.65,2.65,0,0,1,2.29,1.09c.9,1.1,1,2.62,2,3.72-.53,2.85,1.27,4.68,2.87,6.59-1.68,5.33,3.85,9.58,2.52,15.21-3.87-1.61-4.55-6.93-9.19-6.81l-.09.15c-.51-2.72-3.23-3.19-4.85-4.78a18.7,18.7,0,0,1-4.49-5.91c-1.43-2.66-2.25-5.74-5.2-7.31A6,6,0,0,1,970,430.1a5.34,5.34,0,0,1-.63-2.88,3.26,3.26,0,0,1,1.43-2.55Z" transform="translate(-790.94 -318.16)" fill="#b4783a"/><path d="M984.37,459.24c2.49-.35,5.38.41,7-2.47,5.3,1.59,9,4.62,9.75,10.48l0,.41c-3.65,3.51-7.92,1.06-11.91,1.24a10,10,0,0,1-5.21-3c-.83-.9-1.23-1.86-.3-3C984.29,462.13,984.76,459.63,984.37,459.24Z" transform="translate(-790.94 -318.16)" fill="#e3822e"/><path d="M989.83,434.3c-2.36.57-2.81-.77-2.68-2.69,1.52-1.73,3.45-1.92,5.55-1.53,3-.12,4,2.39,5.61,4.12l1.38,5.61c-3.54,1.2-2.94-2.24-3.41-3.58C994.88,432.27,993,431.6,989.83,434.3Z" transform="translate(-790.94 -318.16)" fill="#d7b99b"/><path d="M976.24,409.32c.56-1.3.82-2.4-.56-3.56-4.15-3.48-4.54-7.37-.9-11.53a5.61,5.61,0,0,1,.65-.23c3.45-.78,6.42-5.91,10.19-2.36s3.59,8.58,1.74,13.35c-.41,1.06-1,2.06-1.46,3.09C982.91,410.32,979.53,409.49,976.24,409.32Z" transform="translate(-790.94 -318.16)" fill="#f7930a"/><path d="M955.12,423.15c.13-.4.25-.8.37-1.2l9.72-2.71a6.23,6.23,0,0,1,1,3.24c-.74,3.63-3.39,3.69-6.25,3.37C958.13,425.36,956.28,424.87,955.12,423.15Z" transform="translate(-790.94 -318.16)" fill="#a67c5d"/><path d="M965.11,422.14c0-1,.07-1.93.11-2.9l2.16,1.15,3.41,4.28c0,.95,0,1.91,0,2.86a1.87,1.87,0,0,1-1.7.38C966.37,426.93,966.25,424.19,965.11,422.14Z" transform="translate(-790.94 -318.16)" fill="#e5d7b7"/><path d="M985.94,429.74c-4.74,4.77-6.21-3-9.84-2.56,2.09-2.49,4.37-2.8,6.89-.65a2.88,2.88,0,0,0,2.75,2.1l.47.49Z" transform="translate(-790.94 -318.16)" fill="#6c2419"/><path d="M985.94,429.74a4.62,4.62,0,0,0-.2-1.11c.29-6.43,4.43-2.36,7-2.56l0,4c-1.59,1.43-3.58,1.45-5.55,1.53C986.75,431,986.35,430.36,985.94,429.74Z" transform="translate(-790.94 -318.16)" fill="#5d1007"/><path d="M936.11,525.48c-.55,3.19,1.25,6.7-1.34,9.61-2.77-4.36-2.32-9.59-3.9-14.26-.33-1.16-1-2.31-.17-3.52,2.56-3,.88-6.49.95-9.72a104.54,104.54,0,0,1,1.6-18.1l.19.14c4.89-1.74,5,1.75,4.77,4.76-.32,4.83-.29,9.65-.26,14.48,0,4.57,1.38,7.19,6.63,4.91a15.93,15.93,0,0,1,8.84-.87c1.82.28,3.92.66,3.86,3.08,0,2-1.84,2.47-3.52,2.5a36.59,36.59,0,0,0-4,.66c2.22-.89,5.56,0,8.46-1.59,5.57.34,6.32,1.27,4,5.07-4.77.78-9.54,1.59-13.67,4.38,0-.51-.07-1-.1-1.53-3.07-.17-6.42,2.15-9.14-1.57C938.51,522.7,937.19,524.81,936.11,525.48Z" transform="translate(-790.94 -318.16)" fill="#fca24f"/><path d="M988.63,467.43l12.44.23c-.72,7.5-6.76,12.11-10.28,18-5.71,9.57-8.29,19.22-6.28,30.12-1.93-2.56-4.23-3.3-7-1.41-1.16-.89-2.65-1.45-3.07-3.08.72-2.61,3.24-4.27,3.69-7,3.55-7.5,4.13-16.17,9.46-23,2.44-3.13-1-4.67-3-6.32a2.29,2.29,0,0,1-.43-1.77c.8-1.86,4.46-1.06,3.86-4.2A1.81,1.81,0,0,1,988.63,467.43Z" transform="translate(-790.94 -318.16)" fill="#e55f21"/><path d="M963.78,535.37l5.87-4.14a20.28,20.28,0,0,0,12.87-3.17c1.94.69,3.25-.69,4.75-1.46-.38,9.43-9.33,17.53-19.43,15.21C964.73,540.76,961.7,539.67,963.78,535.37Z" transform="translate(-790.94 -318.16)" fill="#eaefb1"/><path d="M974.77,511.61c1.75.09,2.75.92,2.69,2.77-2.77,2.57-5.53,5.15-8.34,7.69-2.1,1.91-4.29,3.45-6.82.56,2.09-4.68-1.85-3.59-4-4.2-1.61-2.9.31-4.66,2.51-5C965.41,512.56,969.88,510.21,974.77,511.61Z" transform="translate(-790.94 -318.16)" fill="#c82d20"/><path d="M963.78,535.37c.11,2.93,2,4.76,4.06,6.44-2.55,1.28-5.14,1.7-7.83.43C959,538.73,959.54,536,963.78,535.37Z" transform="translate(-790.94 -318.16)" fill="#e4e995"/><path d="M930.7,517.31l1.32,2.44c-1.07,1.88-1.15,4.1-2.11,6-1.35,1.58-1.88,4.2-4.79,3.82-3.09-3.34-.78-7.42-1.55-11.08a1.78,1.78,0,0,1,.07-2.6l2.76-.28Z" transform="translate(-790.94 -318.16)" fill="#c14e2c"/><path d="M921.92,484.72c.6.15.9.14,1,.26,3.26,4.7,2.37,9.38-.14,14-.51.94-1.88,1-2.24.19C918.38,494.09,919.18,489.29,921.92,484.72Z" transform="translate(-790.94 -318.16)" fill="#fc5f51"/><path d="M974.77,511.61a36.73,36.73,0,0,1-11.29,2.73c-2.73.18-5.11.64-5.19,4.09l-15.65,5c3.07-7.8,9.39-5.07,14.59-7.58-6.09-2.64-11.08-1.75-15.18.79s-4.78.43-5.33-2.53a60.86,60.86,0,0,1-.17-19.19c.41-3.11.44-5-3.11-5.25,2.8-3.27,3.07-7.13,2.86-11.21-.12-2.36-.92-5,1.15-7,.1,2.84.19,5.68.29,8.52-.45,5.82,5.24,10.21,3.78,16.26a4.79,4.79,0,0,1-.94,1.73c-3.76,2.12-.29,4.63,0,6.64,1.16,7.34,1.66,7.44,8.9,6.05,6.79,1.14,13.37-.76,20-1.39,3.63-.4,5.18-5.24,9.38-4.43C979.69,508.37,976.79,509.72,974.77,511.61Z" transform="translate(-790.94 -318.16)" fill="#f27727"/><path d="M958.48,457.71c.49,3.37,4.11,7.27-1.64,9.56,1.24-6-3.54-11.82-9.92-10.56s-5.75-2.06-5.36-6c5.43-1.6,9.39,2.72,14.23,3.51C957.41,454.83,958.74,455.66,958.48,457.71Z" transform="translate(-790.94 -318.16)" fill="#df6520"/><path d="M951.32,467c-5.85,2.08-7.61-2.4-9.83-6.14.86-1.76,2.11-.48,3.2-.42,2.73,0,5.36.25,6.6,3.28Z" transform="translate(-790.94 -318.16)" fill="#892d16"/><path d="M955.49,455c-5.36.92-8.81-4.39-13.93-4.29,0-.34,0-.67.05-1,2.23-1.8,4.6,0,6.89-.27C952.35,449.4,955.17,450.64,955.49,455Z" transform="translate(-790.94 -318.16)" fill="#961919"/><path d="M951.29,463.74l-6.6-3.28c3.47-2.66,6.54-1.58,8.61,1.63C954.77,464.37,952.4,463.67,951.29,463.74Z" transform="translate(-790.94 -318.16)" fill="#ed6c29"/><path d="M923.64,515.92c0,.87,0,1.73-.07,2.6-4.11,1.5-3.74,5.23-4,8.46-.2,3-.11,5.9-1.56,8.6-4.21-5.93-1.77-12.29-1.18-18.53A12.17,12.17,0,0,1,923.64,515.92Z" transform="translate(-790.94 -318.16)" fill="#edeeab"/><path d="M914,517c2.14,1.47.79,2.86-.09,4.27-2.7-1.09-6.36.74-8.28-2.73C908.23,516.93,911.22,517.53,914,517Z" transform="translate(-790.94 -318.16)" fill="#cd4e24"/><path d="M955.49,455a23.32,23.32,0,0,0-7-5.57c.11-1-3-1.58-.48-2.71a10.92,10.92,0,0,1,6.54-1.27c3.21-.77,6.33,1.89,9.56.22a7.49,7.49,0,0,1,2.87,0c3.08,1.3,6.4,2.35,6.39,6.62,2,1.94,3,3.62-1,4.11-4.62.58-9.15,2.05-13.89,1.33Z" transform="translate(-790.94 -318.16)" fill="#f9df92"/><path d="M963.92,446.5c-3.57,3.73-6.32,0-9.36-1-2.8-2.75-5.73-1.05-8.7-.33-2.59.64-2.73-.48-1.32-2.31,1.19-1.91,3.48-3.83-.11-5.65a1.61,1.61,0,0,1-1.43-1.67c.09-2.27,3.82-2.63,2.87-5.45,2.09-1.21,3.82-.47,5.42,1,.79,6.75.79,6.75,8.83,5.29a1.94,1.94,0,0,1,1.26,1.31C957.67,441.91,961.91,443.89,963.92,446.5Z" transform="translate(-790.94 -318.16)" fill="#f2e7c1"/><path d="M944.43,437.18c3.51-3.2,4.21,1.22,4.52,2.35,1,3.85-2.75,2.36-4.41,3.3C941.49,441,943.6,439.08,944.43,437.18Z" transform="translate(-790.94 -318.16)" fill="#b1732f"/><path d="M920.92,551.83c.78.13,1.89,0,2.26.43.87,1.06,0,1.88-.94,2.47C921,554.12,921,553,920.92,551.83Z" transform="translate(-790.94 -318.16)" fill="#faf9e3"/><path d="M936.11,525.48c0-2.08-.15-4.46,2.49-5,2-.4,2.51,1.48,3.07,3,1.36,3.77,5.36-1.44,6.86,2-1.47,3-3.19,5.56,1.59,7.78,2.86,1.33.88,16.21-2,17.92-5.39,3.14-7-1.69-7.26-4.72-.48-6.18-3.89-11.71-3.43-18C937.45,527.5,936.56,526.47,936.11,525.48Z" transform="translate(-790.94 -318.16)" fill="#fdbf69"/><path d="M929.14,525.71c.08-2.41,0-4.91,2.88-6,1.91,4.93,3.36,10,2.74,15.34l-1.66.29c-.46-.57-.93-1.13-1.39-1.69C929.81,531.37,927.33,529.23,929.14,525.71Z" transform="translate(-790.94 -318.16)" fill="#38732f"/><path d="M929.14,525.71c-.29,3,3.16,4.85,2.57,8l-5.82,0c-1.39-1.16-.8-2.69-.77-4.11C926.73,528.59,927,526.15,929.14,525.71Z" transform="translate(-790.94 -318.16)" fill="#dd6846"/><path d="M955.12,423.15c1.71.2,3.62-.15,4.74,1.71.87,2.37-.47,3.14-2.48,3.42-3.4-1.95-6.71,3.05-10.13.14C949.37,425.91,951.29,423.11,955.12,423.15Z" transform="translate(-790.94 -318.16)" fill="#cdb897"/><path d="M947.25,428.42c3.36,1.31,5.77-6.53,9.56-1-.06.24-.13.48-.18.72a7.19,7.19,0,0,1-1.4,2.7c-1.18.68-2.35,1.5-3.76.54l-5.6-1.34Z" transform="translate(-790.94 -318.16)" fill="#884b39"/><path d="M953.62,492.64c2.39-.3,4.91-.36,6-3.16,1.09-1.3,2.7-1.45,4.16-1.94,2.23-1.27,1.07-3.21,1-4.92-.29-4.41-.29-8.74,2.57-12.49a4.13,4.13,0,0,1,1.76-.79,10.68,10.68,0,0,1,5.59,1.52,15.15,15.15,0,0,1,2.62,2.86c.66.74,1.31,1.5,1.93,2.28,7.5,11.27,3.61,26.28-8.71,33.64-6.6-.31-7.25-1.45-5.42-9.55-.76-3.18-3.92-2.71-6-3.91C957.21,495.08,954.39,495.47,953.62,492.64Z" transform="translate(-790.94 -318.16)" fill="#fdb36b"/><path d="M940.56,497.94c.26-6.19-4.38-11.61-2.82-18,.21,6.18,7.34,6.35,9.43,10.9.25,1.78,2.24,2.52,2.57,4.25a10.62,10.62,0,0,0,3.44,5.79,15.38,15.38,0,0,1,1.3,1.38c1.91,2.35,2.77,5,.38,7.29-2.65,2.59-4.39-.51-6.39-1.59C944.41,505.76,940.57,503.36,940.56,497.94Z" transform="translate(-790.94 -318.16)" fill="#fcb665"/><path d="M974.59,471.61a5.25,5.25,0,0,1-5.18-1.61c-2.49-3.09,2.27-6.08.11-9.16,4.77-2.17,9.82-1.82,14.85-1.6,1.48,2,4.59.57,6.09,3.08l-7.15,1.25,5.32,3.86c0,.44,0,.87.08,1.3-.68,1.92-2.06,2.52-4,2.14-1.9-1-3.19-3-5.72-3.05-2.73,0-.53,1.94-1.24,2.71C976.94,471.57,976.08,472.52,974.59,471.61Z" transform="translate(-790.94 -318.16)" fill="#ad2717"/><path d="M968,470.29c-1.27,5-3,9.89-.81,15,1,2.22-.24,3.37-2.18,4.07-2.38-2.12-6.32-1.12-8.26-4.13,3.32-4.09,5.95-8.43,5.68-14a8.33,8.33,0,0,1,2.62-6.68C966.78,466.07,966.14,468.82,968,470.29Z" transform="translate(-790.94 -318.16)" fill="#fb9242"/><path d="M977.74,438.44l4,5.1c1,1.88,3.06,3.5,1.45,6l-4,2.67c-3.87-1.77-8.62-2.55-9.1-8.12.69-2.84,1.67-5.47,4.75-6.59A3.61,3.61,0,0,1,977.74,438.44Z" transform="translate(-790.94 -318.16)" fill="#c0a66e"/><path d="M948.48,495.15c-.23-1.5-3.07-2.21-1.31-4.32,1.84,1.73,4.25,1.41,6.45,1.81,4.46,2.64,10.73,1.16,14.12,6.23-4.52,3.47-9.07,6.75-15,3.08l.17-.07C955,497.32,950.11,497.29,948.48,495.15Z" transform="translate(-790.94 -318.16)" fill="#f54720"/><path d="M970.46,444.14c1.27,4.44,6.72,4.38,8.67,8.08l-5.75,0c-2.16-2.32-4.32-4.63-7.38-5.78-1.87-3.06-4.35-5.79-5.09-9.45l.09.1a2,2,0,0,1-.38-2.59,2.65,2.65,0,0,1,2.6-.91,3.77,3.77,0,0,1,1.57,1.07C966.14,438.17,970.35,439.93,970.46,444.14Z" transform="translate(-790.94 -318.16)" fill="#e6d2a7"/><path d="M968,470.29c-8.56,2-.16-4.74-3-5.7,1.11-1.73,2.41-3.23,4.52-3.75,2.72,3.08.24,6.11-.11,9.16Z" transform="translate(-790.94 -318.16)" fill="#f3721e"/><path d="M956.7,485.28c3.14.61,6.9,0,8.26,4.13l-5.36.07A4.63,4.63,0,0,1,956,488c-1.37-1.42-5.7-.69-4.15-3.88C953.08,481.5,954.52,486.77,956.7,485.28Z" transform="translate(-790.94 -318.16)" fill="#f0541c"/><path d="M983.15,449.55c-.48-2-1-4-1.45-6,2.22-.72,3.54,1.49,5.29,2.09,3.94,1.35-1.39,2.21-1,3.8Z" transform="translate(-790.94 -318.16)" fill="#e4cba0"/><path d="M970.46,444.14c-2.21-3.47-6.56-5.46-7.08-10.11a14.42,14.42,0,0,1,7.23-3.85l1.48,0c1.59,2.5,4.21,4.64,3,8.18C972.48,439.48,972.77,442.84,970.46,444.14Z" transform="translate(-790.94 -318.16)" fill="#bb9357"/><path d="M970.61,430.18a7.78,7.78,0,0,1-7.23,3.85l.09-.13c-.81-4.71,2.2-6,5.94-6.55.45.07.9.13,1.36.18C970.72,428.42,970.67,429.3,970.61,430.18Z" transform="translate(-790.94 -318.16)" fill="#d4af7f"/><path d="M975.05,438.39c-.19-3-3.43-4.93-3-8.18,3.75,1.46,4.24,5.16,5.65,8.23Z" transform="translate(-790.94 -318.16)" fill="#eddcb5"/><path d="M984.19,400.91a2,2,0,0,1-2.86,1.2c-1.07-.42-2.12-1.19-1.64-2.55s1.76-1.24,2.88-1A1.82,1.82,0,0,1,984.19,400.91Z" transform="translate(-790.94 -318.16)" fill="#fbce18"/><path d="M969.41,427.35c-1,3-6.55,2-5.94,6.56l-2.44.28-.88-.42c-1.63-1.85-4.11-3.28-3.27-6.4l-.07.07c1.94.23,3.12-.44,3.05-2.58,1.73-.93,5.12,1.32,5.25-2.72Z" transform="translate(-790.94 -318.16)" fill="#813018"/><path d="M970.63,509c11.46-9.28,13.78-20.56,6.85-33.25a6.24,6.24,0,0,1,6.91-1.37c7.5,1.59,8.39,3.47,4,9.16-3.29,4.21-4.88,9-6,14.09-.54,2.57-1.1,5.4-3.47,7.21-3.18,1.21-4.36,5.41-8.28,5.51a.8.8,0,0,1-.35-.9C970.4,509.1,970.51,509,970.63,509Z" transform="translate(-790.94 -318.16)" fill="#f99244"/><path d="M974.59,471.61l3.1-1.79c2.32-1.6,4.53-1.32,6.68.35l4.34-1.44c1,.82,2.84,1.76,2,3.06-1.42,2.25-4.11.87-6.23,1.25-2.79.48-5.31,2.6-8.38,1.36C974.82,473.91,975,472.61,974.59,471.61Z" transform="translate(-790.94 -318.16)" fill="#7c1615"/><path d="M976.13,474.4c2.78-.49,5.13-3.69,8.38-1.36,0,.43-.07.86-.11,1.29-2.13,1.36-4.5,1.47-6.92,1.37Z" transform="translate(-790.94 -318.16)" fill="#bd5638"/><path d="M970.63,509c0,.45,0,.9,0,1.35-7.28,1.7-14.52,4.06-22.06,1.29-6.3-1.81-8.78-5.78-8.62-13.73l.6.08c2.47,3.68,5,7.23,9.39,8.95,1.4.55,1.95,3.72,4.15,1.62,1.54-1.48,1.23-3.28-.35-4.82a7.75,7.75,0,0,1-1-1.74c5.59,1.79,9.8-3.12,15-3.08C967.12,502.68,960.77,508.14,970.63,509Z" transform="translate(-790.94 -318.16)" fill="#fbab51"/><path d="M940,497.86c1.66,5.34,3.82,10.37,8.62,13.74-4.7,4-7.55,2.28-9-3a87.71,87.71,0,0,1-2-9.21C937.23,497.37,938.36,497.09,940,497.86Z" transform="translate(-790.94 -318.16)" fill="#be1d17"/><path d="M960.91,437c1.83,3.08,6.76,4.49,5.09,9.45h-2.08a18.75,18.75,0,0,0-3.13-.88c-1.93-.2-3.86-1-4.45-2.59-.83-2.24,2.11-2.43,3-3.83C959.86,438.46,960.4,437.76,960.91,437Z" transform="translate(-790.94 -318.16)" fill="#b99e66"/><path d="M961,434.19l0,2.95c-1.75-.76-3,.49-4.37,1.12-1.67.75-3.23,4.1-5.33.45-1.43-2.5-3.67-5,.17-7.31l3.79-1.32c3-.11,4,2.71,5.8,4.22Z" transform="translate(-790.94 -318.16)" fill="#b98547"/><path d="M961.06,434.3c-2.78-.24-3.69-3.06-5.8-4.22-.93-1.78-.8-2.94,1.62-2.71C957.69,430,961.94,430.62,961.06,434.3Z" transform="translate(-790.94 -318.16)" fill="#f1e8c7"/><path d="M948.48,495.15c3.77-.55,5.91,2.77,9.21,3.35-.65,3.14-4,1.28-4.83,3.39A6.38,6.38,0,0,1,948.48,495.15Z" transform="translate(-790.94 -318.16)" fill="#fc8444"/><path d="M984.37,470.17l-6.68-.35c-1.08-.65-3-1.24-3.08-2-.12-1.58,1.68-1.72,2.94-1.75C980.64,466,984.1,465.49,984.37,470.17Z" transform="translate(-790.94 -318.16)" fill="#e06021"/></svg>